<svg width="24" height="24" viewBox="0 0 24 24" fill="none" xmlns="http://www.w3.org/2000/svg">
<path d="M15.6868 14.6891C16.254 14.3844 16.9032 14.2109 17.5946 14.2109H17.5969C17.6672 14.2109 17.7001 14.1266 17.6485 14.0797C16.9295 13.4344 16.1081 12.9132 15.218 12.5375C15.2087 12.5328 15.1993 12.5305 15.1899 12.5258C16.6454 11.4687 17.5922 9.75078 17.5922 7.8125C17.5922 4.60156 14.9954 2 11.7915 2C8.58756 2 5.99303 4.60156 5.99303 7.8125C5.99303 9.75078 6.9399 11.4687 8.39771 12.5258C8.38834 12.5305 8.37896 12.5328 8.36959 12.5375C7.32193 12.9805 6.38209 13.6156 5.5735 14.4266C4.76957 15.229 4.12954 16.1803 3.68912 17.2273C3.25579 18.2526 3.02193 19.3512 3.00006 20.4641C2.99943 20.4891 3.00382 20.514 3.01296 20.5373C3.02211 20.5605 3.03582 20.5818 3.05329 20.5997C3.07076 20.6176 3.09165 20.6318 3.11471 20.6415C3.13777 20.6513 3.16254 20.6563 3.18756 20.6562H4.59146C4.69225 20.6562 4.77662 20.5742 4.77896 20.4734C4.82584 18.6641 5.55006 16.9695 6.83209 15.6852C8.15631 14.3563 9.91881 13.625 11.7938 13.625C13.1227 13.625 14.3977 13.993 15.4969 14.682C15.5252 14.6998 15.5576 14.7098 15.5909 14.711C15.6242 14.7122 15.6573 14.7047 15.6868 14.6891ZM11.7938 11.8438C10.7204 11.8438 9.71021 11.4242 8.9485 10.6625C8.57372 10.2887 8.27661 9.84443 8.07428 9.35529C7.87195 8.86616 7.76839 8.34183 7.76959 7.8125C7.76959 6.73672 8.18912 5.72422 8.9485 4.9625C9.70787 4.20078 10.718 3.78125 11.7938 3.78125C12.8696 3.78125 13.8774 4.20078 14.6391 4.9625C15.0139 5.33631 15.311 5.78057 15.5133 6.26971C15.7157 6.75884 15.8192 7.28317 15.818 7.8125C15.818 8.88828 15.3985 9.90078 14.6391 10.6625C13.8774 11.4242 12.8672 11.8438 11.7938 11.8438ZM20.4141 17.4219H18.4454V15.4531C18.4454 15.35 18.361 15.2656 18.2579 15.2656H16.9454C16.8422 15.2656 16.7579 15.35 16.7579 15.4531V17.4219H14.7891C14.686 17.4219 14.6016 17.5063 14.6016 17.6094V18.9219C14.6016 19.025 14.686 19.1094 14.7891 19.1094H16.7579V21.0781C16.7579 21.1812 16.8422 21.2656 16.9454 21.2656H18.2579C18.361 21.2656 18.4454 21.1812 18.4454 21.0781V19.1094H20.4141C20.5172 19.1094 20.6016 19.025 20.6016 18.9219V17.6094C20.6016 17.5063 20.5172 17.4219 20.4141 17.4219Z" fill="#1E253A"/>
</svg>
