<svg width="138" height="24" viewBox="0 0 138 24" fill="none" xmlns="http://www.w3.org/2000/svg">
<rect x="0.5" y="0.5" width="137" height="23" rx="11.5" stroke="#696F7E"/>
<path fill-rule="evenodd" clip-rule="evenodd" d="M14.2658 18.4413C14.8234 18.5911 15.4021 18.6673 15.9858 18.6673C17.4746 18.6673 18.9339 18.1705 20.0943 17.2683C21.7101 16.0122 22.6747 14.0421 22.6747 11.9982C22.6747 9.493 21.2262 7.14971 18.9842 6.02809C18.0764 5.57416 17.0505 5.33398 16.0176 5.33398C14.5258 5.33398 13.0675 5.82923 11.9112 6.72811C9.91127 8.28312 8.95388 10.8902 9.47248 13.37C9.98158 15.8044 11.863 17.7951 14.2658 18.4413ZM12.5414 7.53846C13.5183 6.77891 14.7528 6.3604 16.0179 6.3604C16.8921 6.3604 17.7592 6.56311 18.5252 6.94622C20.4225 7.89539 21.6483 9.87816 21.6483 11.9982C21.6483 13.7277 20.8318 15.3949 19.4646 16.458C18.4833 17.2208 17.2478 17.6409 15.9858 17.6409H15.9856C15.4921 17.6409 15.003 17.5768 14.5324 17.45C12.4999 16.9032 10.9082 15.2191 10.4773 13.1599C10.0383 11.0611 10.8486 8.85432 12.5414 7.53846ZM16.003 15.5907C15.7197 15.5907 15.4898 15.3607 15.4898 15.0775V12.5114H12.9237C12.6404 12.5114 12.4105 12.2815 12.4105 11.9982C12.4105 11.7149 12.6404 11.485 12.9237 11.485H15.4898V8.91899C15.4898 8.6357 15.7197 8.40578 16.003 8.40578C16.2863 8.40578 16.5162 8.6357 16.5162 8.91899V11.485H19.0822C19.3655 11.485 19.5954 11.7149 19.5954 11.9982C19.5954 12.2815 19.3655 12.5114 19.0822 12.5114H16.5162V15.0775C16.5162 15.3607 16.2863 15.5907 16.003 15.5907Z" fill="#696F7E"/>
<path d="M28.36 16L31.456 7.6H32.524L35.608 16H34.54L33.772 13.84H30.196L29.416 16H28.36ZM30.496 13.024H33.472L31.984 8.872L30.496 13.024ZM39.1686 16.144C38.5766 16.144 38.0566 16.008 37.6086 15.736C37.1686 15.464 36.8246 15.092 36.5766 14.62C36.3366 14.148 36.2166 13.612 36.2166 13.012C36.2166 12.412 36.3406 11.88 36.5886 11.416C36.8366 10.944 37.1806 10.576 37.6206 10.312C38.0606 10.04 38.5806 9.904 39.1806 9.904C39.6686 9.904 40.1006 10.004 40.4766 10.204C40.8526 10.404 41.1446 10.684 41.3526 11.044V7.36H42.3606V16H41.4486L41.3526 15.016C41.1606 15.304 40.8846 15.564 40.5246 15.796C40.1646 16.028 39.7126 16.144 39.1686 16.144ZM39.2766 15.268C39.6766 15.268 40.0286 15.176 40.3326 14.992C40.6446 14.8 40.8846 14.536 41.0526 14.2C41.2286 13.864 41.3166 13.472 41.3166 13.024C41.3166 12.576 41.2286 12.184 41.0526 11.848C40.8846 11.512 40.6446 11.252 40.3326 11.068C40.0286 10.876 39.6766 10.78 39.2766 10.78C38.8846 10.78 38.5326 10.876 38.2206 11.068C37.9166 11.252 37.6766 11.512 37.5006 11.848C37.3326 12.184 37.2486 12.576 37.2486 13.024C37.2486 13.472 37.3326 13.864 37.5006 14.2C37.6766 14.536 37.9166 14.8 38.2206 14.992C38.5326 15.176 38.8846 15.268 39.2766 15.268ZM46.7038 16.144C46.1118 16.144 45.5918 16.008 45.1438 15.736C44.7038 15.464 44.3598 15.092 44.1118 14.62C43.8718 14.148 43.7518 13.612 43.7518 13.012C43.7518 12.412 43.8758 11.88 44.1238 11.416C44.3718 10.944 44.7158 10.576 45.1558 10.312C45.5958 10.04 46.1158 9.904 46.7158 9.904C47.2038 9.904 47.6358 10.004 48.0118 10.204C48.3878 10.404 48.6798 10.684 48.8878 11.044V7.36H49.8958V16H48.9838L48.8878 15.016C48.6958 15.304 48.4198 15.564 48.0598 15.796C47.6998 16.028 47.2478 16.144 46.7038 16.144ZM46.8118 15.268C47.2118 15.268 47.5638 15.176 47.8678 14.992C48.1798 14.8 48.4198 14.536 48.5878 14.2C48.7638 13.864 48.8518 13.472 48.8518 13.024C48.8518 12.576 48.7638 12.184 48.5878 11.848C48.4198 11.512 48.1798 11.252 47.8678 11.068C47.5638 10.876 47.2118 10.78 46.8118 10.78C46.4198 10.78 46.0678 10.876 45.7558 11.068C45.4518 11.252 45.2118 11.512 45.0358 11.848C44.8678 12.184 44.7838 12.576 44.7838 13.024C44.7838 13.472 44.8678 13.864 45.0358 14.2C45.2118 14.536 45.4518 14.8 45.7558 14.992C46.0678 15.176 46.4198 15.268 46.8118 15.268ZM57.8947 16.144C57.4067 16.144 56.9707 16.044 56.5867 15.844C56.2107 15.644 55.9227 15.364 55.7227 15.004L55.6267 16H54.7147V7.36H55.7227V11.032C55.9147 10.744 56.1867 10.484 56.5387 10.252C56.8987 10.02 57.3547 9.904 57.9067 9.904C58.4987 9.904 59.0147 10.04 59.4547 10.312C59.8947 10.584 60.2347 10.956 60.4747 11.428C60.7227 11.9 60.8467 12.436 60.8467 13.036C60.8467 13.636 60.7227 14.172 60.4747 14.644C60.2347 15.108 59.8907 15.476 59.4427 15.748C59.0027 16.012 58.4867 16.144 57.8947 16.144ZM57.7867 15.268C58.1867 15.268 58.5387 15.176 58.8427 14.992C59.1467 14.8 59.3867 14.536 59.5627 14.2C59.7387 13.864 59.8267 13.472 59.8267 13.024C59.8267 12.576 59.7387 12.184 59.5627 11.848C59.3867 11.512 59.1467 11.252 58.8427 11.068C58.5387 10.876 58.1867 10.78 57.7867 10.78C57.3867 10.78 57.0347 10.876 56.7307 11.068C56.4267 11.252 56.1867 11.512 56.0107 11.848C55.8347 12.184 55.7467 12.576 55.7467 13.024C55.7467 13.472 55.8347 13.864 56.0107 14.2C56.1867 14.536 56.4267 14.8 56.7307 14.992C57.0347 15.176 57.3867 15.268 57.7867 15.268ZM64.2299 16.144C63.7339 16.144 63.3219 16.06 62.9939 15.892C62.6659 15.724 62.4219 15.5 62.2619 15.22C62.1019 14.94 62.0219 14.636 62.0219 14.308C62.0219 13.7 62.2539 13.232 62.7179 12.904C63.1819 12.576 63.8139 12.412 64.6139 12.412H66.2219V12.34C66.2219 11.82 66.0859 11.428 65.8139 11.164C65.5419 10.892 65.1779 10.756 64.7219 10.756C64.3299 10.756 63.9899 10.856 63.7019 11.056C63.4219 11.248 63.2459 11.532 63.1739 11.908H62.1419C62.1819 11.476 62.3259 11.112 62.5739 10.816C62.8299 10.52 63.1459 10.296 63.5219 10.144C63.8979 9.984 64.2979 9.904 64.7219 9.904C65.5539 9.904 66.1779 10.128 66.5939 10.576C67.0179 11.016 67.2299 11.604 67.2299 12.34V16H66.3299L66.2699 14.932C66.1019 15.268 65.8539 15.556 65.5259 15.796C65.2059 16.028 64.7739 16.144 64.2299 16.144ZM64.3859 15.292C64.7699 15.292 65.0979 15.192 65.3699 14.992C65.6499 14.792 65.8619 14.532 66.0059 14.212C66.1499 13.892 66.2219 13.556 66.2219 13.204V13.192H64.6979C64.1059 13.192 63.6859 13.296 63.4379 13.504C63.1979 13.704 63.0779 13.956 63.0779 14.26C63.0779 14.572 63.1899 14.824 63.4139 15.016C63.6459 15.2 63.9699 15.292 64.3859 15.292ZM68.7421 16V10.048H69.6541L69.7141 11.116C69.9061 10.74 70.1821 10.444 70.5421 10.228C70.9021 10.012 71.3101 9.904 71.7661 9.904C72.4701 9.904 73.0301 10.12 73.4461 10.552C73.8701 10.976 74.0821 11.632 74.0821 12.52V16H73.0741V12.628C73.0741 11.388 72.5621 10.768 71.5381 10.768C71.0261 10.768 70.5981 10.956 70.2541 11.332C69.9181 11.7 69.7501 12.228 69.7501 12.916V16H68.7421ZM75.6093 16V7.36H76.6173V12.556L79.0533 10.048H80.2893L77.6493 12.736L80.6253 16H79.3413L76.6173 12.916V16H75.6093ZM86.8119 16.144C86.3159 16.144 85.9039 16.06 85.5759 15.892C85.2479 15.724 85.0039 15.5 84.8439 15.22C84.6839 14.94 84.6039 14.636 84.6039 14.308C84.6039 13.7 84.8359 13.232 85.2999 12.904C85.7639 12.576 86.3959 12.412 87.1959 12.412H88.8039V12.34C88.8039 11.82 88.6679 11.428 88.3959 11.164C88.1239 10.892 87.7599 10.756 87.3039 10.756C86.9119 10.756 86.5719 10.856 86.2839 11.056C86.0039 11.248 85.8279 11.532 85.7559 11.908H84.7239C84.7639 11.476 84.9079 11.112 85.1559 10.816C85.4119 10.52 85.7279 10.296 86.1039 10.144C86.4799 9.984 86.8799 9.904 87.3039 9.904C88.1359 9.904 88.7599 10.128 89.1759 10.576C89.5999 11.016 89.8119 11.604 89.8119 12.34V16H88.9119L88.8519 14.932C88.6839 15.268 88.4359 15.556 88.1079 15.796C87.7879 16.028 87.3559 16.144 86.8119 16.144ZM86.9679 15.292C87.3519 15.292 87.6799 15.192 87.9519 14.992C88.2319 14.792 88.4439 14.532 88.5879 14.212C88.7319 13.892 88.8039 13.556 88.8039 13.204V13.192H87.2799C86.6879 13.192 86.2679 13.296 86.0199 13.504C85.7799 13.704 85.6599 13.956 85.6599 14.26C85.6599 14.572 85.7719 14.824 85.9959 15.016C86.2279 15.2 86.5519 15.292 86.9679 15.292ZM94.0601 16.144C93.4921 16.144 92.9801 16.016 92.5241 15.76C92.0761 15.496 91.7201 15.132 91.4561 14.668C91.2001 14.196 91.0721 13.648 91.0721 13.024C91.0721 12.4 91.2001 11.856 91.4561 11.392C91.7201 10.92 92.0761 10.556 92.5241 10.3C92.9801 10.036 93.4921 9.904 94.0601 9.904C94.7641 9.904 95.3561 10.088 95.8361 10.456C96.3241 10.824 96.6321 11.316 96.7601 11.932H95.7281C95.6481 11.564 95.4521 11.28 95.1401 11.08C94.8281 10.872 94.4641 10.768 94.0481 10.768C93.7121 10.768 93.3961 10.852 93.1001 11.02C92.8041 11.188 92.5641 11.44 92.3801 11.776C92.1961 12.112 92.1041 12.528 92.1041 13.024C92.1041 13.52 92.1961 13.936 92.3801 14.272C92.5641 14.608 92.8041 14.864 93.1001 15.04C93.3961 15.208 93.7121 15.292 94.0481 15.292C94.4641 15.292 94.8281 15.192 95.1401 14.992C95.4521 14.784 95.6481 14.492 95.7281 14.116H96.7601C96.6401 14.716 96.3361 15.204 95.8481 15.58C95.3601 15.956 94.7641 16.144 94.0601 16.144ZM100.904 16.144C100.336 16.144 99.8238 16.016 99.3678 15.76C98.9198 15.496 98.5638 15.132 98.2998 14.668C98.0438 14.196 97.9158 13.648 97.9158 13.024C97.9158 12.4 98.0438 11.856 98.2998 11.392C98.5638 10.92 98.9198 10.556 99.3678 10.3C99.8238 10.036 100.336 9.904 100.904 9.904C101.608 9.904 102.2 10.088 102.68 10.456C103.168 10.824 103.476 11.316 103.604 11.932H102.572C102.492 11.564 102.296 11.28 101.984 11.08C101.672 10.872 101.308 10.768 100.892 10.768C100.556 10.768 100.24 10.852 99.9438 11.02C99.6478 11.188 99.4078 11.44 99.2238 11.776C99.0398 12.112 98.9478 12.528 98.9478 13.024C98.9478 13.52 99.0398 13.936 99.2238 14.272C99.4078 14.608 99.6478 14.864 99.9438 15.04C100.24 15.208 100.556 15.292 100.892 15.292C101.308 15.292 101.672 15.192 101.984 14.992C102.296 14.784 102.492 14.492 102.572 14.116H103.604C103.484 14.716 103.18 15.204 102.692 15.58C102.204 15.956 101.608 16.144 100.904 16.144ZM107.724 16.144C107.164 16.144 106.66 16.016 106.212 15.76C105.764 15.504 105.408 15.144 105.144 14.68C104.888 14.208 104.76 13.656 104.76 13.024C104.76 12.392 104.892 11.844 105.156 11.38C105.42 10.908 105.776 10.544 106.224 10.288C106.68 10.032 107.188 9.904 107.748 9.904C108.308 9.904 108.812 10.032 109.26 10.288C109.708 10.544 110.06 10.908 110.316 11.38C110.58 11.844 110.712 12.392 110.712 13.024C110.712 13.656 110.58 14.208 110.316 14.68C110.052 15.144 109.692 15.504 109.236 15.76C108.788 16.016 108.284 16.144 107.724 16.144ZM107.724 15.28C108.068 15.28 108.388 15.196 108.684 15.028C108.98 14.86 109.22 14.608 109.404 14.272C109.588 13.936 109.68 13.52 109.68 13.024C109.68 12.528 109.588 12.112 109.404 11.776C109.228 11.44 108.992 11.188 108.696 11.02C108.4 10.852 108.084 10.768 107.748 10.768C107.404 10.768 107.084 10.852 106.788 11.02C106.492 11.188 106.252 11.44 106.068 11.776C105.884 12.112 105.792 12.528 105.792 13.024C105.792 13.52 105.884 13.936 106.068 14.272C106.252 14.608 106.488 14.86 106.776 15.028C107.072 15.196 107.388 15.28 107.724 15.28ZM114.285 16.144C113.581 16.144 113.021 15.932 112.605 15.508C112.189 15.076 111.981 14.416 111.981 13.528V10.048H112.989V13.42C112.989 14.66 113.497 15.28 114.513 15.28C115.033 15.28 115.461 15.096 115.797 14.728C116.141 14.352 116.313 13.82 116.313 13.132V10.048H117.321V16H116.409L116.337 14.932C116.153 15.308 115.877 15.604 115.509 15.82C115.149 16.036 114.741 16.144 114.285 16.144ZM118.98 16V10.048H119.892L119.952 11.116C120.144 10.74 120.42 10.444 120.78 10.228C121.14 10.012 121.548 9.904 122.004 9.904C122.708 9.904 123.268 10.12 123.684 10.552C124.108 10.976 124.32 11.632 124.32 12.52V16H123.312V12.628C123.312 11.388 122.8 10.768 121.776 10.768C121.264 10.768 120.836 10.956 120.492 11.332C120.156 11.7 119.988 12.228 119.988 12.916V16H118.98ZM128.2 16C127.656 16 127.228 15.868 126.916 15.604C126.604 15.34 126.448 14.864 126.448 14.176V10.9H125.416V10.048H126.448L126.58 8.62H127.456V10.048H129.208V10.9H127.456V14.176C127.456 14.552 127.532 14.808 127.684 14.944C127.836 15.072 128.104 15.136 128.488 15.136H129.112V16H128.2Z" fill="#696F7E"/>
</svg>
