<svg width="121" height="123" viewBox="0 0 121 123" fill="none" xmlns="http://www.w3.org/2000/svg">
<rect width="120" height="120" transform="translate(0.5 2.07812)" fill="white"/>
<mask id="mask0_22_1652" style="mask-type:alpha" maskUnits="userSpaceOnUse" x="9" y="11" width="103" height="103">
<circle cx="60.5" cy="62.0781" r="51" fill="white"/>
</mask>
<g mask="url(#mask0_22_1652)">
<path d="M45.8738 59.7672C45.519 57.9951 43.8247 56.3471 41.4974 56.8522C39.1731 57.3602 39.1645 59.5161 39.5193 61.2882C39.5392 61.3785 40.6829 66.17 41.3555 67.1774C42.0282 68.1876 43.0016 70.1037 44.6392 69.5562C45.7205 69.195 46.3591 67.279 46.6145 65.8963C46.8699 64.5136 45.8738 59.7672 45.8738 59.7672Z" fill="#F5B49B"/>
<path d="M75.483 59.6949C75.8378 57.9228 77.5321 56.2748 79.8593 56.78C82.1866 57.2851 82.4136 59.5059 82.0617 61.278C82.0418 61.3711 80.8044 65.8043 80.2255 67.17C79.7487 68.2931 78.4488 70.2741 76.7602 69.5799C75.7044 69.1482 75.0005 67.2067 74.7451 65.824C74.4897 64.4441 75.483 59.6949 75.483 59.6949Z" fill="#F5B49B"/>
<path d="M24.5 113.947H96.6666C96.6666 113.947 95.2448 96.3358 92.8778 93.6946C90.508 91.0561 72.4692 85.1556 72.4692 85.1556L48.8904 85.0879C48.8904 85.0879 29.9094 90.6103 28.6124 93.6946C27.3125 96.7789 24.5 113.947 24.5 113.947Z" fill="url(#paint0_linear_22_1652)"/>
<path d="M51.4385 83.9365C51.4385 83.9365 57.3842 88.7816 60.7161 88.7816C64.0509 88.7816 69.991 83.9365 69.991 83.9365C69.991 83.9365 67.4764 81.0244 69.2105 77.2007C70.9446 73.3771 49.8747 73.6903 52.324 77.2007C54.7732 80.7111 51.4385 83.9365 51.4385 83.9365Z" fill="#E9A88F"/>
<path d="M50.2671 83.5918L48.8906 85.0874C48.8906 85.0874 52.9973 95.1755 56.5648 96.4538C57.6546 96.8433 59.9222 91.8457 60.7141 91.8457C61.0944 91.8457 64.1595 97.148 64.6249 97.0436C68.2775 96.214 72.4694 85.1579 72.4694 85.1579L70.9255 83.9925L60.7141 90.3812L50.2671 83.5918Z" fill="#D64044"/>
<path d="M77.7533 46.4399C77.7533 38.7532 72.9626 31.041 60.2849 31.041C47.6044 31.041 43.001 39.4812 43.001 47.1679C43.001 47.5715 42.9613 68.473 45.4247 73.273C47.8853 78.0701 54.6627 82.9689 60.7163 82.9914C67.3347 83.0168 73.2833 78.7897 76.0618 73.273C78.8402 67.7534 77.7533 46.4399 77.7533 46.4399Z" fill="#F5B49B"/>
<path d="M47.8801 48.1688C47.9879 48.245 48.0872 48.3128 48.215 48.4059C48.5612 48.7304 46.8215 52.5907 47.3266 52.6104C49.8383 53.1353 52.8524 47.7258 55.3073 48.4849C59.6269 49.8225 67.7551 60.6499 75.7301 60.4383C77.8246 58.4291 77.7565 46.4419 77.7565 46.4419C77.7565 38.7551 72.9658 31.043 60.2881 31.043C49.7816 31.043 44.832 36.8391 43.4385 43.1967C45.3996 44.0263 47.04 45.6376 47.8801 48.1688Z" fill="#141929"/>
<path d="M80.5915 44.6057C79.0306 36.1457 72.0801 30.0082 60.7164 30.0787C49.384 30.1493 41.9369 37.0544 40.4469 44.8878C39.8083 48.243 39.3145 54.6204 39.5784 58.4215C41.497 56.8525 42.2888 56.6494 43.2169 57.0162C43.8526 63.9269 45.3653 63.8253 45.3653 63.8253C45.3653 63.8253 45.5044 59.1326 45.8137 56.0285C46.1231 52.9273 51.2288 52.3629 53.783 47.0014C61.8687 46.6515 66.9744 56.9485 75.8406 57.5128C74.9636 62.6091 76.9048 64.6352 76.9048 64.6352C76.9048 64.6352 77.1092 60.425 77.8272 58.4299C78.4516 56.6917 80.3105 56.6917 81.2301 57.4451C81.6671 54.2762 81.4543 49.2815 80.5915 44.6057Z" fill="#1E253A"/>
<path d="M50.2671 81.1973L48.8906 85.0914C48.8906 85.0914 52.9973 92.781 56.5648 94.0593C57.6546 94.4487 59.9222 89.4512 60.7141 89.4512C61.0944 89.4512 64.1595 94.7535 64.6249 94.6491C68.2775 93.8195 72.4694 85.1592 72.4694 85.1592L70.9255 81.598L60.7141 87.9867L50.2671 81.1973Z" fill="white"/>
</g>
<circle cx="60.5" cy="62.0781" r="51" stroke="#D2DAE2" stroke-width="2"/>
<path d="M83.2719 29.0117C86.8174 32.1832 92.2626 31.8799 95.4341 28.3344C98.6056 24.7888 98.3023 19.3436 94.7567 16.1721C91.2112 13.0007 85.7659 13.3039 82.5945 16.8495C79.423 20.3951 79.7263 25.8403 83.2719 29.0117Z" fill="#FFC339"/>
<path d="M82.8271 29.5086C79.016 26.0996 78.6838 20.2211 82.0973 16.405C85.5107 12.5889 91.3897 12.2662 95.2009 15.6752C99.012 19.0842 99.3397 24.9676 95.9307 28.7788C92.5217 32.5899 86.6382 32.9176 82.8271 29.5086ZM94.312 16.669C91.0474 13.7488 86.0112 14.0293 83.0911 17.2939C80.171 20.5585 80.4515 25.5947 83.716 28.5148C86.9806 31.4349 92.0168 31.1544 94.9369 27.8898C97.857 24.6253 97.5765 19.5891 94.312 16.669Z" fill="#FFC339"/>
<path d="M95.8191 14.9851C95.5458 14.7406 95.5222 14.317 95.7667 14.0437L98.7401 10.7195C98.9846 10.4463 99.4082 10.4227 99.6815 10.6671C99.9547 10.9116 99.9783 11.3352 99.7339 11.6085L96.7604 14.9327C96.516 15.2059 96.0924 15.2295 95.8191 14.9851Z" fill="#FFC339"/>
<path d="M78.3474 34.5183C78.0741 34.2738 78.0505 33.8502 78.295 33.5769L81.2684 30.2527C81.5129 29.9795 81.9365 29.9559 82.2098 30.2003C82.4831 30.4448 82.5067 30.8684 82.2622 31.1417L79.2888 34.4659C79.0443 34.7391 78.6207 34.7627 78.3474 34.5183Z" fill="#FFC339"/>
<path d="M99.9976 33.3121L96.6734 30.3386C96.4001 30.0942 96.3765 29.6706 96.621 29.3973C96.8654 29.124 97.289 29.1004 97.5623 29.3449L100.887 32.3183C101.16 32.5627 101.183 32.9864 100.939 33.2596C100.694 33.5329 100.271 33.5565 99.9976 33.3121Z" fill="#FFC339"/>
<path d="M80.4654 15.8394L77.1412 12.866C76.8679 12.6215 76.8443 12.1979 77.0887 11.9246C77.3332 11.6513 77.7568 11.6277 78.0301 11.8722L81.3543 14.8456C81.6276 15.0901 81.6512 15.5137 81.4067 15.787C81.1623 16.0603 80.7387 16.0839 80.4654 15.8394Z" fill="#FFC339"/>
<path d="M87.9662 12.2363C87.837 12.1207 87.7572 11.9599 87.7423 11.7766L87.6054 9.31971C87.585 8.95258 87.865 8.63954 88.2321 8.61909C88.5993 8.59865 88.9123 8.87866 88.9327 9.24578L89.0696 11.7027C89.09 12.0698 88.81 12.3829 88.4429 12.4033C88.264 12.4133 88.0904 12.3474 87.9662 12.2363Z" fill="#FFC339"/>
<path d="M89.3119 36.4004C89.1827 36.2848 89.1029 36.124 89.088 35.9407L88.9511 33.4838C88.9307 33.1166 89.2107 32.8036 89.5778 32.7832C89.945 32.7627 90.258 33.0427 90.2784 33.4098L90.4153 35.8668C90.4357 36.2339 90.1557 36.5469 89.7886 36.5674C89.6097 36.5773 89.4411 36.5159 89.3119 36.4004Z" fill="#FFC339"/>
<path d="M99.4242 22.4864C99.295 22.3709 99.2152 22.21 99.2003 22.0267C99.1798 21.6596 99.4598 21.3466 99.827 21.3261L102.284 21.1893C102.651 21.1688 102.964 21.4489 102.985 21.816C103.005 22.1831 102.725 22.4962 102.358 22.5166L99.9009 22.6534C99.722 22.6634 99.5534 22.602 99.4242 22.4864Z" fill="#FFC339"/>
<path d="M75.2601 23.8321C75.1309 23.7166 75.0512 23.5557 75.0362 23.3724C75.0158 23.0053 75.2958 22.6923 75.6629 22.6718L78.1198 22.535C78.487 22.5145 78.8 22.7946 78.8204 23.1617C78.8409 23.5288 78.5609 23.8419 78.1938 23.8623L75.7368 23.9991C75.558 24.0091 75.3843 23.9432 75.2601 23.8321Z" fill="#FFC339"/>
<path d="M99.9986 33.3101L96.6744 30.3367C96.4011 30.0922 96.3775 29.6686 96.6219 29.3953C96.8664 29.122 97.29 29.0984 97.5633 29.3429L100.887 32.3163C101.161 32.5608 101.184 32.9844 100.94 33.2577C100.695 33.531 100.272 33.5546 99.9986 33.3101Z" fill="#FFC339"/>
<path d="M80.4654 15.8394L77.1412 12.866C76.8679 12.6215 76.8443 12.1979 77.0887 11.9246C77.3332 11.6513 77.7568 11.6277 78.0301 11.8722L81.3543 14.8456C81.6276 15.0901 81.6512 15.5137 81.4067 15.787C81.1623 16.0603 80.7387 16.0839 80.4654 15.8394Z" fill="#FFC339"/>
<path d="M92.1676 12.8277C91.9739 12.6544 91.8922 12.3756 91.9861 12.1107L93.4608 7.90212C93.5831 7.55537 93.9646 7.36888 94.3114 7.4912C94.6581 7.61353 94.8446 7.99502 94.7223 8.34177L93.2476 12.5504C93.1252 12.8971 92.7437 13.0836 92.397 12.9613C92.3057 12.9333 92.2322 12.8855 92.1676 12.8277Z" fill="#FFC339"/>
<path d="M83.4977 37.5601C83.3039 37.3868 83.2223 37.108 83.3161 36.8431L84.7909 32.6345C84.9132 32.2878 85.2947 32.1013 85.6414 32.2236C85.9882 32.346 86.1747 32.7274 86.0524 33.0742L84.5776 37.2828C84.4553 37.6295 84.0738 37.816 83.7271 37.6937C83.6402 37.6608 83.5623 37.6179 83.4977 37.5601Z" fill="#FFC339"/>
<path d="M98.8317 26.6861C98.6379 26.5127 98.5563 26.234 98.6501 25.9691C98.7725 25.6223 99.1539 25.4358 99.5007 25.5582L103.709 27.0329C104.056 27.1552 104.238 27.5323 104.12 27.8835C103.998 28.2302 103.616 28.4167 103.27 28.2944L99.061 26.8196C98.9742 26.7867 98.8963 26.7438 98.8317 26.6861Z" fill="#FFC339"/>
<path d="M74.1003 18.0161C73.9065 17.8428 73.8248 17.5641 73.9187 17.2992C74.041 16.9524 74.4225 16.7659 74.7693 16.8882L78.9778 18.363C79.3246 18.4853 79.5111 18.8668 79.3888 19.2135C79.2664 19.5603 78.8849 19.7468 78.5382 19.6245L74.3296 18.1497C74.2383 18.1218 74.1649 18.0739 74.1003 18.0161Z" fill="#FFC339"/>
<path d="M98.3692 18.3754C98.3046 18.3176 98.2489 18.2499 98.216 18.1668C98.0559 17.8358 98.1989 17.4359 98.5299 17.2758L102.549 15.3429C102.88 15.1828 103.28 15.3258 103.44 15.6568C103.6 15.9878 103.457 16.3877 103.126 16.5477L99.1069 18.4807C98.8541 18.6034 98.563 18.5488 98.3692 18.3754Z" fill="#FFC339"/>
<path d="M74.753 29.7367C74.6884 29.679 74.6327 29.6112 74.5998 29.5281C74.4397 29.1971 74.5827 28.7972 74.9137 28.6372L78.9325 26.7042C79.2635 26.5441 79.6634 26.6871 79.8234 27.0181C79.9835 27.3492 79.8405 27.749 79.5095 27.9091L75.4907 29.842C75.2329 29.9603 74.9468 29.9101 74.753 29.7367Z" fill="#FFC339"/>
<path d="M95.2189 36.9055C95.1543 36.8477 95.0986 36.78 95.0656 36.6968L93.1327 32.678C92.9726 32.347 93.1156 31.9472 93.4466 31.7871C93.7776 31.627 94.1774 31.77 94.3375 32.101L96.2705 36.1198C96.4306 36.4508 96.2876 36.8507 95.9566 37.0108C95.6987 37.129 95.4127 37.0788 95.2189 36.9055Z" fill="#FFC339"/>
<path d="M83.8556 13.2902C83.791 13.2325 83.7353 13.1647 83.7023 13.0816L81.7694 9.06279C81.6093 8.73177 81.7523 8.33194 82.0833 8.17186C82.4143 8.01178 82.8142 8.15476 82.9742 8.48578L84.9072 12.5046C85.0673 12.8356 84.9243 13.2354 84.5933 13.3955C84.3404 13.5182 84.0494 13.4636 83.8556 13.2902Z" fill="#FFC339"/>
<path d="M84.6053 27.5209C84.332 27.2764 84.3084 26.8528 84.5529 26.5795C84.7973 26.3062 85.2209 26.2827 85.4942 26.5271C87.6656 28.4694 91.0074 28.2833 92.9497 26.1119C93.1942 25.8386 93.6178 25.815 93.8911 26.0594C94.1643 26.3039 94.1879 26.7275 93.9435 27.0008C91.5123 29.7188 87.3233 29.9521 84.6053 27.5209Z" fill="#FFC339"/>
<defs>
<linearGradient id="paint0_linear_22_1652" x1="60.5833" y1="110.976" x2="66.9345" y2="86.7531" gradientUnits="userSpaceOnUse">
<stop stop-color="#DA2F47"/>
<stop offset="1" stop-color="#FF4D4D"/>
</linearGradient>
</defs>
</svg>
