<svg width="18" height="24" viewBox="0 0 18 24" fill="none" xmlns="http://www.w3.org/2000/svg">
<g clip-path="url(#clip0_1398_9245)">
<path d="M12.7683 11.3536L7.47497 6.06961C7.38803 5.98195 7.28459 5.91237 7.17063 5.86489C7.05666 5.81741 6.93442 5.79297 6.81096 5.79297C6.6875 5.79297 6.56526 5.81741 6.4513 5.86489C6.33733 5.91237 6.2339 5.98195 6.14696 6.06961C5.97277 6.24483 5.875 6.48187 5.875 6.72894C5.875 6.97601 5.97277 7.21305 6.14696 7.38827L10.7763 12.0644L6.14696 16.6937C5.97277 16.869 5.875 17.106 5.875 17.3531C5.875 17.6001 5.97277 17.8372 6.14696 18.0124C6.23357 18.1008 6.33686 18.1711 6.45084 18.2192C6.56482 18.2674 6.68723 18.2925 6.81096 18.293C6.9347 18.2925 7.05711 18.2674 7.17109 18.2192C7.28507 18.1711 7.38836 18.1008 7.47497 18.0124L12.7683 12.7284C12.8633 12.6408 12.939 12.5345 12.9908 12.4162C13.0427 12.2979 13.0694 12.1702 13.0694 12.041C13.0694 11.9118 13.0427 11.7841 12.9908 11.6658C12.939 11.5475 12.8633 11.4412 12.7683 11.3536Z" fill="#1D1D1B"/>
</g>
<defs>
<clipPath id="clip0_1398_9245">
<rect width="16.6667" height="22.9167" fill="white" transform="translate(0.666504 0.583984)"/>
</clipPath>
</defs>
</svg>
