<svg width="16" height="21" viewBox="0 0 16 21" fill="none" xmlns="http://www.w3.org/2000/svg">
<path d="M14.7 14.9C14.5 14.7 14.3 14.3 14.3 14V7.7C14.3 4.4 11.7 1.5 8.4 1.2V0H7V1.2C3.7 1.6 1.2 4.4 1.2 7.7V14C1.2 14.3 1.1 14.7 0.8 14.9C0.3 15.4 0 16.1 0 16.9V18H4.8C5.1 19.4 6.4 20.3 7.8 20.3C9.2 20.3 10.4 19.3 10.8 18H15.6V16.9C15.5 16.1 15.2 15.4 14.7 14.9ZM7.7 18.8C7.1 18.8 6.5 18.4 6.2 17.9H9.1C8.9 18.5 8.4 18.8 7.7 18.8ZM13.7 15.9C13.9 16.1 14 16.2 14 16.4H1.5C1.6 16.2 1.7 16 1.8 15.9C2.3 15.4 2.6 14.7 2.6 14V7.7C2.6 4.9 4.9 2.6 7.7 2.6C10.5 2.6 12.8 4.9 12.8 7.7V14C12.9 14.7 13.2 15.4 13.7 15.9Z" fill="#1D1D1B"/>
</svg>
