<svg width="24" height="24" viewBox="0 0 24 24" fill="none" xmlns="http://www.w3.org/2000/svg">
<path fill-rule="evenodd" clip-rule="evenodd" d="M8.02002 2.01932C8.54512 1.49422 9.25731 1.19922 9.99992 1.19922H13.9999C14.7425 1.19922 15.4547 1.49422 15.9798 2.01932C16.5049 2.54442 16.7999 3.25661 16.7999 3.99922V5.19922H18.9999C19.7425 5.19922 20.4547 5.49422 20.9798 6.01932C21.5049 6.54442 21.7999 7.25661 21.7999 7.99922V13.2356C21.8002 13.2478 21.8002 13.2601 21.7999 13.2723V17.9992C21.7999 18.7418 21.5049 19.454 20.9798 19.9791C20.4547 20.5042 19.7425 20.7992 18.9999 20.7992H4.99992C4.25731 20.7992 3.54512 20.5042 3.02002 19.9791C2.49492 19.454 2.19992 18.7418 2.19992 17.9992V13.2723C2.19964 13.2601 2.19964 13.2479 2.19992 13.2356V7.99922C2.19992 7.25661 2.49492 6.54442 3.02002 6.01932C3.54512 5.49422 4.25731 5.19922 4.99992 5.19922H7.19992V3.99922C7.19992 3.25661 7.49492 2.54442 8.02002 2.01932ZM4.99992 6.79922C4.68166 6.79922 4.37643 6.92565 4.15139 7.15069C3.92635 7.37573 3.79992 7.68096 3.79992 7.99922V12.7082C6.34906 13.6714 9.11152 14.1992 11.9999 14.1992C14.8021 14.2026 17.5811 13.6969 20.1999 12.708V7.99922C20.1999 7.68096 20.0735 7.37573 19.8484 7.15069C19.6234 6.92565 19.3182 6.79922 18.9999 6.79922H4.99992ZM15.1999 5.19922H8.79992V3.99922C8.79992 3.68096 8.92635 3.37573 9.15139 3.15069C9.37643 2.92565 9.68166 2.79922 9.99992 2.79922H13.9999C14.3182 2.79922 14.6234 2.92565 14.8484 3.15069C15.0735 3.37573 15.1999 3.68096 15.1999 3.99922V5.19922ZM20.1999 14.4105C17.5671 15.3321 14.7945 15.8026 11.9994 15.7992C9.12667 15.7992 6.36766 15.3101 3.79992 14.4108V17.9992C3.79992 18.3175 3.92635 18.6227 4.15139 18.8477C4.37643 19.0728 4.68166 19.1992 4.99992 19.1992H18.9999C19.3182 19.1992 19.6234 19.0728 19.8484 18.8477C20.0735 18.6227 20.1999 18.3175 20.1999 17.9992V14.4105ZM11.1999 11.9992C11.1999 11.5574 11.5581 11.1992 11.9999 11.1992H12.0099C12.4517 11.1992 12.8099 11.5574 12.8099 11.9992C12.8099 12.441 12.4517 12.7992 12.0099 12.7992H11.9999C11.5581 12.7992 11.1999 12.441 11.1999 11.9992Z" fill="#1E253A"/>
</svg>
