<svg width="24" height="24" viewBox="0 0 24 24" fill="none" xmlns="http://www.w3.org/2000/svg">
<path d="M19.5714 18.2143V2.78571C19.5714 2.35714 19.2857 2.07143 18.8571 2.07143L6.14286 2C4.92857 2 4 3 4 4.14286V19.7143C4 21 5 22 6.28571 22H18.8571C19.0714 22 19.3571 21.8571 19.5 21.6429C19.6429 21.4286 19.6429 21.1429 19.5 20.9286C19.0714 20.0714 19.0714 19.2857 19.5 18.4286C19.5 18.4286 19.5714 18.3571 19.5714 18.2143ZM17.8571 20.5714H6.28571C5.78571 20.5714 5.42857 20.2143 5.42857 19.7143C5.42857 19.2143 5.78571 18.8571 6.28571 18.8571H17.8571C17.7143 19.4286 17.7143 20 17.8571 20.5714ZM18.1429 17.4286H6.28571C6 17.4286 5.71429 17.5 5.42857 17.5714V4.14286C5.42857 3.71429 5.78571 3.42857 6.14286 3.42857H18.1429V17.4286Z" fill="#1E253A" stroke="#1E253A" stroke-width="0.15"/>
<path d="M8.85711 7.71373H14.7143C15.1428 7.71373 15.4285 7.42801 15.4285 6.99944C15.4285 6.57087 15.1428 6.28516 14.7143 6.28516H8.85711C8.42854 6.28516 8.14282 6.57087 8.14282 6.99944C8.14282 7.42801 8.49997 7.71373 8.85711 7.71373Z" fill="#1E253A" stroke="#1E253A" stroke-width="0.15"/>
<path fill-rule="evenodd" clip-rule="evenodd" d="M8.28627 6.42933C8.42723 6.28837 8.62583 6.21094 8.85716 6.21094H14.7143C14.9456 6.21094 15.1442 6.28837 15.2852 6.42933C15.4261 6.57029 15.5036 6.76889 15.5036 7.00022C15.5036 7.23155 15.4261 7.43015 15.2852 7.57111C15.1442 7.71207 14.9456 7.78951 14.7143 7.78951H8.85716C8.46355 7.78951 8.06787 7.47501 8.06787 7.00022C8.06787 6.76889 8.14531 6.57029 8.28627 6.42933ZM8.39233 6.5354C8.28329 6.64444 8.21787 6.80298 8.21787 7.00022C8.21787 7.38258 8.53648 7.63951 8.85716 7.63951H14.7143C14.9115 7.63951 15.0701 7.57409 15.1791 7.46505C15.2882 7.35601 15.3536 7.19747 15.3536 7.00022C15.3536 6.80298 15.2882 6.64444 15.1791 6.5354C15.0701 6.42636 14.9115 6.36094 14.7143 6.36094H8.85716C8.65991 6.36094 8.50137 6.42636 8.39233 6.5354Z" fill="#1E253A" stroke="#1E253A" stroke-width="0.15"/>
<path d="M8.85711 10.6434H14.7143C15.1428 10.6434 15.4285 10.3577 15.4285 9.92913C15.4285 9.50056 15.1428 9.21484 14.7143 9.21484H8.85711C8.42854 9.21484 8.14282 9.50056 8.14282 9.92913C8.14282 10.3577 8.49997 10.6434 8.85711 10.6434Z" fill="#1E253A" stroke="#1E253A" stroke-width="0.15"/>
<path fill-rule="evenodd" clip-rule="evenodd" d="M8.28627 9.35707C8.42723 9.21611 8.62583 9.13867 8.85716 9.13867H14.7143C14.9456 9.13867 15.1442 9.21611 15.2852 9.35707C15.4261 9.49803 15.5036 9.69663 15.5036 9.92796C15.5036 10.1593 15.4261 10.3579 15.2852 10.4988C15.1442 10.6398 14.9456 10.7172 14.7143 10.7172H8.85716C8.46355 10.7172 8.06787 10.4027 8.06787 9.92796C8.06787 9.69663 8.14531 9.49803 8.28627 9.35707ZM8.39233 9.46313C8.28329 9.57217 8.21787 9.73072 8.21787 9.92796C8.21787 10.3103 8.53648 10.5672 8.85716 10.5672H14.7143C14.9115 10.5672 15.0701 10.5018 15.1791 10.3928C15.2882 10.2837 15.3536 10.1252 15.3536 9.92796C15.3536 9.73072 15.2882 9.57217 15.1791 9.46313C15.0701 9.35409 14.9115 9.28867 14.7143 9.28867H8.85716C8.65991 9.28867 8.50137 9.35409 8.39233 9.46313Z" fill="#1E253A" stroke="#1E253A" stroke-width="0.15"/>
<path fill-rule="evenodd" clip-rule="evenodd" d="M8.85716 11.9961C8.62583 11.9961 8.42723 12.0735 8.28627 12.2145C8.14531 12.3554 8.06787 12.5541 8.06787 12.7854C8.06787 13.2602 8.46355 13.5747 8.85716 13.5747H14.7143C14.9456 13.5747 15.1442 13.4972 15.2852 13.3563C15.4261 13.2153 15.5036 13.0167 15.5036 12.7854C15.5036 12.5541 15.4261 12.3554 15.2852 12.2145C15.1442 12.0735 14.9456 11.9961 14.7143 11.9961H8.85716Z" fill="#1E253A"/>
<path d="M8.28627 12.2145L8.3393 12.2675L8.28627 12.2145ZM15.2852 13.3563L15.2322 13.3032V13.3032L15.2852 13.3563ZM15.2852 12.2145L15.2322 12.2675V12.2675L15.2852 12.2145ZM8.3393 12.2675C8.46429 12.1425 8.64285 12.0711 8.85716 12.0711V11.9211C8.6088 11.9211 8.39016 12.0045 8.23323 12.1615L8.3393 12.2675ZM8.14287 12.7854C8.14287 12.5711 8.21431 12.3925 8.3393 12.2675L8.23323 12.1615C8.07631 12.3184 7.99287 12.537 7.99287 12.7854H8.14287ZM8.85716 13.4997C8.49987 13.4997 8.14287 13.2138 8.14287 12.7854H7.99287C7.99287 13.3065 8.42723 13.6497 8.85716 13.6497V13.4997ZM14.7143 13.4997H8.85716V13.6497H14.7143V13.4997ZM15.2322 13.3032C15.1072 13.4282 14.9286 13.4997 14.7143 13.4997V13.6497C14.9627 13.6497 15.1813 13.5662 15.3382 13.4093L15.2322 13.3032ZM15.4286 12.7854C15.4286 12.9997 15.3571 13.1782 15.2322 13.3032L15.3382 13.4093C15.4952 13.2524 15.5786 13.0337 15.5786 12.7854H15.4286ZM15.2322 12.2675C15.3571 12.3925 15.4286 12.5711 15.4286 12.7854H15.5786C15.5786 12.537 15.4952 12.3184 15.3382 12.1615L15.2322 12.2675ZM14.7143 12.0711C14.9286 12.0711 15.1072 12.1425 15.2322 12.2675L15.3382 12.1615C15.1813 12.0045 14.9627 11.9211 14.7143 11.9211V12.0711ZM8.85716 12.0711H14.7143V11.9211H8.85716V12.0711Z" fill="#1E253A"/>
</svg>
