<svg width="64" height="65" viewBox="0 0 64 65" fill="none" xmlns="http://www.w3.org/2000/svg">
<circle cx="32" cy="32.6406" r="32" fill="#FFEDEC"/>
<g clip-path="url(#clip0_1559_6990)">
<path d="M46.4086 14.9014V27.0277V37.004V51.1944C46.4086 53.3273 44.6696 55.0645 42.5347 55.0645H21.8739C19.7389 55.0645 18 53.3273 18 51.1944V14.9014C18 12.7685 19.7389 11.0312 21.8739 11.0312H42.5347C44.6696 11.0312 46.4086 12.7685 46.4086 14.9014Z" fill="url(#paint0_linear_1559_6990)"/>
<path d="M30.8765 18.5238H33.4518C34.1643 18.5238 34.7395 17.927 34.7395 17.1877C34.7395 16.4484 34.1643 15.8516 33.4518 15.8516H30.8765C30.164 15.8516 29.5889 16.4484 29.5889 17.1877C29.5889 17.927 30.164 18.5238 30.8765 18.5238Z" fill="white"/>
<path d="M33.4518 48.0977H30.8765C30.164 48.0977 29.5889 48.6945 29.5889 49.4338C29.5889 50.1731 30.164 50.7699 30.8765 50.7699H33.4518C34.1643 50.7699 34.7395 50.1731 34.7395 49.4338C34.7395 48.6945 34.1643 48.0977 33.4518 48.0977Z" fill="white"/>
<rect x="23" y="20.6406" width="18" height="24" rx="0.721311" fill="white"/>
<path d="M26.4001 32.0188H31.3779V27.041H26.4001V32.0188ZM27.6446 28.2855H30.1335V30.7743H27.6446V28.2855ZM26.4001 38.241H31.3779V33.2632H26.4001V38.241ZM27.6446 34.5077H30.1335V36.9966H27.6446V34.5077ZM32.6224 27.041V32.0188H37.6001V27.041H32.6224ZM36.3557 30.7743H33.8668V28.2855H36.3557V30.7743ZM36.3557 36.9966H37.6001V38.241H36.3557V36.9966ZM32.6224 33.2632H33.8668V34.5077H32.6224V33.2632ZM33.8668 34.5077H35.1113V35.7521H33.8668V34.5077ZM32.6224 35.7521H33.8668V36.9966H32.6224V35.7521ZM33.8668 36.9966H35.1113V38.241H33.8668V36.9966ZM35.1113 35.7521H36.3557V36.9966H35.1113V35.7521ZM35.1113 33.2632H36.3557V34.5077H35.1113V33.2632ZM36.3557 34.5077H37.6001V35.7521H36.3557V34.5077Z" fill="#A11421"/>
<path d="M36.3557 36.9966H37.6001V38.241H36.3557V36.9966ZM36.3557 36.9966V35.7521M36.3557 36.9966H35.1113M33.8668 34.5077V33.2632H32.6224V34.5077H33.8668ZM33.8668 34.5077H35.1113M33.8668 34.5077V35.7521M35.1113 34.5077V35.7521M35.1113 34.5077H36.3557M35.1113 34.5077V33.2632H36.3557V34.5077M35.1113 35.7521H33.8668M35.1113 35.7521H36.3557M35.1113 35.7521V36.9966M33.8668 35.7521H32.6224V36.9966H33.8668M33.8668 35.7521V36.9966M33.8668 36.9966H35.1113M33.8668 36.9966V38.241H35.1113V36.9966M36.3557 35.7521H37.6001V34.5077H36.3557M36.3557 35.7521V34.5077M26.4001 32.0188H31.3779V27.041H26.4001V32.0188ZM27.6446 28.2855H30.1335V30.7743H27.6446V28.2855ZM26.4001 38.241H31.3779V33.2632H26.4001V38.241ZM27.6446 34.5077H30.1335V36.9966H27.6446V34.5077ZM32.6224 27.041V32.0188H37.6001V27.041H32.6224ZM36.3557 30.7743H33.8668V28.2855H36.3557V30.7743Z" stroke="white" stroke-width="0.13125"/>
<path d="M27.45 25.6406H25.6563C25.2938 25.6406 25 25.9344 25 26.2969L25 28.0906" stroke="#A11421" stroke-width="0.984375" stroke-linecap="round"/>
<path d="M27.8 39.6406L25.6562 39.6406C25.2938 39.6406 25 39.3468 25 38.9844L25 36.8406" stroke="#A11421" stroke-width="0.984375" stroke-linecap="round"/>
<path d="M36.2 39.6406L38.3438 39.6406C38.7062 39.6406 39 39.3468 39 38.9844L39 36.8406" stroke="#A11421" stroke-width="0.984375" stroke-linecap="round"/>
<path d="M36.2 25.6406L38.3438 25.6406C38.7062 25.6406 39 25.9344 39 26.2969L39 28.4406" stroke="#A11421" stroke-width="0.984375" stroke-linecap="round"/>
<g filter="url(#filter0_d_1559_6990)">
<path d="M51.6218 28.4141C51.6218 27.9793 50.9688 27.6006 50 27.3997C49.712 27.34 49.4881 27.1162 49.4285 26.8282C49.2276 25.8594 48.8489 25.2064 48.4141 25.2064C47.9793 25.2064 47.6009 25.8599 47.4004 26.8283C47.3407 27.1163 47.1169 27.3402 46.8289 27.3999C45.86 27.6008 45.2066 27.98 45.207 28.4144C45.2073 28.8488 45.8599 29.2279 46.8288 29.4287C47.1168 29.4884 47.3406 29.7122 47.4003 30.0002C47.6007 30.9686 47.9798 31.622 48.4142 31.6216C48.8486 31.6212 49.2278 30.9686 49.4287 29.9997C49.4884 29.7117 49.7123 29.4879 50.0003 29.4282C50.9687 29.2277 51.6222 28.8485 51.6218 28.4141Z" fill="#FFC339"/>
</g>
<g filter="url(#filter1_d_1559_6990)">
<path d="M16.0011 34.1465C16.0012 33.8934 15.621 33.6729 15.0571 33.556C14.8894 33.5213 14.7591 33.391 14.7244 33.2233C14.6075 32.6594 14.387 32.2792 14.1339 32.2792C13.8808 32.2793 13.6605 32.6596 13.5438 33.2234C13.5091 33.391 13.3787 33.5213 13.2111 33.5561C12.6471 33.6731 12.2667 33.8938 12.267 34.1467C12.2672 34.3995 12.6471 34.6202 13.211 34.7371C13.3787 34.7719 13.509 34.9022 13.5437 35.0698C13.6604 35.6336 13.8811 36.0139 14.134 36.0137C14.3868 36.0134 14.6076 35.6335 14.7245 35.0695C14.7593 34.9019 14.8896 34.7716 15.0572 34.7368C15.621 34.6201 16.0014 34.3994 16.0011 34.1465Z" fill="#FFC339"/>
</g>
<g filter="url(#filter2_d_1559_6990)">
<path d="M19.0537 39.8281C19.0537 39.4306 18.4568 39.0844 17.571 38.9008C17.3078 38.8462 17.1031 38.6416 17.0485 38.3783C16.865 37.4926 16.5187 36.8956 16.1212 36.8956C15.7237 36.8957 15.3778 37.493 15.1945 38.3784C15.1399 38.6417 14.9353 38.8464 14.672 38.9009C13.7862 39.0846 13.1889 39.4313 13.1892 39.8284C13.1896 40.2255 13.7862 40.5721 14.6719 40.7557C14.9352 40.8103 15.1398 41.0149 15.1944 41.2782C15.3776 42.1636 15.7242 42.7609 16.1213 42.7605C16.5185 42.7601 16.8651 42.1635 17.0488 41.2778C17.1034 41.0145 17.308 40.8098 17.5713 40.7552C18.4567 40.5719 19.0541 40.2253 19.0537 39.8281Z" fill="#FFC339"/>
</g>
</g>
<defs>
<filter id="filter0_d_1559_6990" x="25.207" y="13.207" width="46.4148" height="46.4141" filterUnits="userSpaceOnUse" color-interpolation-filters="sRGB">
<feFlood flood-opacity="0" result="BackgroundImageFix"/>
<feColorMatrix in="SourceAlpha" type="matrix" values="0 0 0 0 0 0 0 0 0 0 0 0 0 0 0 0 0 0 127 0" result="hardAlpha"/>
<feOffset dy="8"/>
<feGaussianBlur stdDeviation="10"/>
<feColorMatrix type="matrix" values="0 0 0 0 0.503271 0 0 0 0 0.206783 0 0 0 0 0.733304 0 0 0 0.15 0"/>
<feBlend mode="normal" in2="BackgroundImageFix" result="effect1_dropShadow_1559_6990"/>
<feBlend mode="normal" in="SourceGraphic" in2="effect1_dropShadow_1559_6990" result="shape"/>
</filter>
<filter id="filter1_d_1559_6990" x="-7.73315" y="20.2793" width="43.7344" height="43.7344" filterUnits="userSpaceOnUse" color-interpolation-filters="sRGB">
<feFlood flood-opacity="0" result="BackgroundImageFix"/>
<feColorMatrix in="SourceAlpha" type="matrix" values="0 0 0 0 0 0 0 0 0 0 0 0 0 0 0 0 0 0 127 0" result="hardAlpha"/>
<feOffset dy="8"/>
<feGaussianBlur stdDeviation="10"/>
<feColorMatrix type="matrix" values="0 0 0 0 0.503271 0 0 0 0 0.206783 0 0 0 0 0.733304 0 0 0 0.15 0"/>
<feBlend mode="normal" in2="BackgroundImageFix" result="effect1_dropShadow_1559_6990"/>
<feBlend mode="normal" in="SourceGraphic" in2="effect1_dropShadow_1559_6990" result="shape"/>
</filter>
<filter id="filter2_d_1559_6990" x="-6.81079" y="24.8965" width="45.8645" height="45.8633" filterUnits="userSpaceOnUse" color-interpolation-filters="sRGB">
<feFlood flood-opacity="0" result="BackgroundImageFix"/>
<feColorMatrix in="SourceAlpha" type="matrix" values="0 0 0 0 0 0 0 0 0 0 0 0 0 0 0 0 0 0 127 0" result="hardAlpha"/>
<feOffset dy="8"/>
<feGaussianBlur stdDeviation="10"/>
<feColorMatrix type="matrix" values="0 0 0 0 0.804123 0 0 0 0 0.0994336 0 0 0 0 0.185086 0 0 0 0.2 0"/>
<feBlend mode="normal" in2="BackgroundImageFix" result="effect1_dropShadow_1559_6990"/>
<feBlend mode="normal" in="SourceGraphic" in2="effect1_dropShadow_1559_6990" result="shape"/>
</filter>
<linearGradient id="paint0_linear_1559_6990" x1="37.1973" y1="55.0267" x2="55.4072" y2="30.8098" gradientUnits="userSpaceOnUse">
<stop stop-color="#DA2F47"/>
<stop offset="1" stop-color="#FF4D4D"/>
</linearGradient>
<clipPath id="clip0_1559_6990">
<rect width="56" height="56" fill="white" transform="translate(4 4.64062)"/>
</clipPath>
</defs>
</svg>
