<svg width="24" height="24" viewBox="0 0 24 24" fill="none" xmlns="http://www.w3.org/2000/svg">
    <path fill-rule="evenodd" clip-rule="evenodd" d="M11.9999 5C16.1499 5 19.8499 7.45 21.8999 11.56C22.0299 11.83 22.0299 12.15 21.8999 12.41C19.8499 16.52 16.1499 18.97 11.9999 18.97C7.84994 18.97 4.14994 16.52 2.09994 12.41C1.96994 12.15 1.96994 11.83 2.09994 11.56C4.14994 7.45 7.84994 5 11.9999 5ZM11.9999 17.06C15.2299 17.06 18.1999 15.17 19.9499 12.01L19.9599 11.98L19.9499 11.96C18.2099 8.8 15.2299 6.91 11.9999 6.91C8.76994 6.91 5.78994 8.8 4.03994 11.97L4.02994 11.99L4.04994 12.01C5.78994 15.17 8.76994 17.06 11.9999 17.06ZM14.5099 11.99C14.5099 13.3762 13.3862 14.5 11.9999 14.5C10.6137 14.5 9.48993 13.3762 9.48993 11.99C9.48993 10.6037 10.6137 9.47998 11.9999 9.47998C13.3862 9.47998 14.5099 10.6037 14.5099 11.99Z" fill="#1D1D1B"/>
</svg>
