<svg width="80" height="80" viewBox="0 0 80 80" fill="none" xmlns="http://www.w3.org/2000/svg">
<g clip-path="url(#clip0_192_1104)">
<path d="M62.8227 27.4512H17.1773C15.4226 27.4512 14 28.8736 14 30.6285V51.4079H66V30.6285C66 28.8738 64.5774 27.4512 62.8227 27.4512Z" fill="#FF5454"/>
<path d="M22.0357 9C19.7969 9 17.9819 10.8149 17.9819 13.0538V65.271C17.9819 67.5099 19.7969 69.3248 22.0357 69.3248H57.9639C60.2027 69.3248 62.0176 67.5099 62.0176 65.271V21.5002C62.0176 20.6857 61.6941 19.9047 61.1182 19.3286L51.6889 9.89933C51.113 9.32354 50.3318 9 49.5173 9H22.0357Z" fill="#F8F8F8"/>
<path opacity="0.5" d="M61.1179 19.3283L54.8677 13.0781L54.8454 23.5625C54.844 24.2207 55.3771 24.755 56.0353 24.755C56.6925 24.755 57.2252 25.2878 57.2252 25.9449V65.2708C57.2252 67.5096 55.4102 69.3246 53.1714 69.3246H57.9634C60.2023 69.3246 62.0172 67.5096 62.0172 65.2708V25.6103V21.4998C62.0175 20.6853 61.6939 19.9043 61.1179 19.3283Z" fill="#E5E2DF"/>
<path d="M61.1183 19.3294L51.689 9.90015C51.4265 9.63764 51.121 9.42827 50.7896 9.27734V16.1751C50.7896 18.414 52.6045 20.2289 54.8433 20.2289H61.7411C61.5903 19.8973 61.3809 19.5919 61.1183 19.3294Z" fill="#E5E2DF"/>
<g filter="url(#filter0_d_192_1104)">
<path d="M32.2183 39.1041L31.3804 37.2076C30.8719 36.0569 29.7323 35.3145 28.4742 35.3145H17.1773C15.4226 35.3145 14 36.7369 14 38.4918V66.1474C14 67.9021 15.4225 69.3247 17.1773 69.3247H62.8227C64.5774 69.3247 66 67.9022 66 66.1474V44.1747C66 42.4199 64.5775 40.9974 62.8227 40.9974H35.1246C33.8664 40.9974 32.7269 40.255 32.2183 39.1041Z" fill="url(#paint0_linear_192_1104)"/>
</g>
<path d="M26.5462 37.2076L27.3842 39.1041C27.8927 40.2549 29.0323 40.9973 30.2904 40.9973H35.1246C33.8665 40.9971 32.727 40.2549 32.2185 39.1041L31.3806 37.2076C30.872 36.0569 29.7325 35.3145 28.4744 35.3145H23.6401C24.8982 35.3146 26.0377 36.0569 26.5462 37.2076Z" fill="#ED3C43"/>
<path d="M62.8227 40.998H57.9886C59.7432 40.9982 61.1656 42.4206 61.1656 44.1753V66.1482C61.1656 67.9029 59.7431 69.3255 57.9883 69.3255H62.8226C64.5774 69.3255 65.9999 67.903 65.9999 66.1482V44.1752C66.0001 42.4205 64.5776 40.998 62.8227 40.998Z" fill="#ED3C43"/>
<path d="M32.6201 15.6726H23.6156C23.1127 15.6726 22.7051 15.265 22.7051 14.7621C22.7051 14.2592 23.1127 13.8516 23.6156 13.8516H32.6201C33.123 13.8516 33.5307 14.2592 33.5307 14.7621C33.5307 15.265 33.1231 15.6726 32.6201 15.6726Z" fill="#FFC339"/>
<path d="M32.6201 21.1472H23.6156C23.1127 21.1472 22.7051 20.7396 22.7051 20.2367C22.7051 19.7338 23.1127 19.3262 23.6156 19.3262H32.6201C33.123 19.3262 33.5307 19.7338 33.5307 20.2367C33.5307 20.7396 33.1231 21.1472 32.6201 21.1472Z" fill="#FFC339"/>
</g>
<defs>
<filter id="filter0_d_192_1104" x="-6.49497" y="23.0175" width="92.9899" height="74.9997" filterUnits="userSpaceOnUse" color-interpolation-filters="sRGB">
<feFlood flood-opacity="0" result="BackgroundImageFix"/>
<feColorMatrix in="SourceAlpha" type="matrix" values="0 0 0 0 0 0 0 0 0 0 0 0 0 0 0 0 0 0 127 0" result="hardAlpha"/>
<feOffset dy="8.19799"/>
<feGaussianBlur stdDeviation="10.2475"/>
<feColorMatrix type="matrix" values="0 0 0 0 0.804123 0 0 0 0 0.0994336 0 0 0 0 0.185086 0 0 0 0.03 0"/>
<feBlend mode="normal" in2="BackgroundImageFix" result="effect1_dropShadow_192_1104"/>
<feBlend mode="normal" in="SourceGraphic" in2="effect1_dropShadow_192_1104" result="shape"/>
</filter>
<linearGradient id="paint0_linear_192_1104" x1="40" y1="85.9998" x2="58.3592" y2="43.1874" gradientUnits="userSpaceOnUse">
<stop stop-color="#DA2F47"/>
<stop offset="1" stop-color="#FF4D4D"/>
</linearGradient>
<clipPath id="clip0_192_1104">
<rect width="80" height="80" fill="white"/>
</clipPath>
</defs>
</svg>
