<svg width="32" height="32" viewBox="0 0 32 32" fill="none" xmlns="http://www.w3.org/2000/svg">
<path d="M28.5399 10.1788L21.8199 3.46003C20.998 2.63878 20.0274 3.01191 19.2062 3.83503L18.4593 4.58503C16.8262 6.21816 16.733 8.23378 16.6205 9.79191C16.5649 10.5569 16.0093 11.5138 15.4637 12.0594L3.66117 23.8544C2.63929 24.875 2.86804 26.3182 3.89429 27.3444L4.65492 28.105C5.67742 29.1269 7.11929 29.365 8.14617 28.3388L19.948 16.5388C20.4943 15.9925 21.448 15.4419 22.2162 15.3813C23.7705 15.265 25.8799 15.0782 27.4199 13.5382L28.1662 12.7919C28.988 11.9707 29.3612 11 28.5399 10.1788Z" stroke="white" stroke-width="2" stroke-miterlimit="10"/>
<path d="M14.0425 19.2051C14.7328 19.2051 15.2925 18.6454 15.2925 17.9551C15.2925 17.2647 14.7328 16.7051 14.0425 16.7051C13.3521 16.7051 12.7925 17.2647 12.7925 17.9551C12.7925 18.6454 13.3521 19.2051 14.0425 19.2051Z" fill="white"/>
<path d="M18.0625 5.0625L26.9375 13.9375" stroke="white" stroke-width="1.35938" stroke-miterlimit="10" stroke-linecap="round"/>
</svg>
