<svg width="105" height="104" viewBox="0 0 105 104" fill="none" xmlns="http://www.w3.org/2000/svg">
<circle cx="52.5" cy="52" r="51" fill="white" stroke="#D2DAE2" stroke-width="2"/>
<path fill-rule="evenodd" clip-rule="evenodd" d="M45.812 22.625H57.438C57.438 22.625 57.438 22.625 57.438 22.625H58.5813C67.4178 26.2257 73.6365 34.9015 73.6365 45.0401L52.1975 52.7196L52.1967 52.72L52.1966 52.72L52.1966 52.7199L30.7568 45.0401C30.7568 34.9015 36.9755 26.2257 45.812 22.625Z" fill="url(#paint0_linear_150_661)"/>
<path fill-rule="evenodd" clip-rule="evenodd" d="M55.1521 25.2903C55.8404 25.5444 56.6315 25.5032 57.3167 25.1076C58.2195 24.5864 58.6827 23.5982 58.5815 22.6243C59.5554 22.7257 60.5435 22.2624 61.0647 21.3595C61.5859 20.4566 61.4931 19.3694 60.9185 18.5766C61.8128 18.1772 62.4369 17.2821 62.4369 16.2396C62.4369 15.1971 61.8128 14.3017 60.9187 13.9026C61.4933 13.1098 61.5862 12.0224 61.065 11.1196C60.5438 10.2167 59.5556 9.75349 58.5817 9.85484C58.6829 8.88092 58.2198 7.89278 57.3169 7.37158C56.6317 6.97607 55.8407 6.93489 55.1523 7.18878V7.18918C54.9336 7.26982 54.7251 7.3798 54.5339 7.51821C54.1348 6.62403 53.2395 6 52.197 6C51.1545 6 50.2591 6.62403 49.86 7.51821C49.0672 6.94355 47.9798 6.85073 47.077 7.37193C46.1742 7.89313 45.711 8.88127 45.8122 9.85519C44.8383 9.75384 43.8502 10.2171 43.329 11.12C42.8078 12.0228 42.9006 13.1101 43.4752 13.903C42.5812 14.3022 41.957 15.1974 41.957 16.2399C41.957 17.2824 42.5812 18.1775 43.4752 18.5769C42.9006 19.3697 42.8078 20.457 43.329 21.3599C43.8502 22.2627 44.8383 22.7259 45.8122 22.6247C45.711 23.5986 46.1742 24.5867 47.077 25.1079C47.9798 25.6291 49.0672 25.5363 49.86 24.9617C50.2592 25.8557 51.1545 26.4799 52.197 26.4799C53.2395 26.4799 54.1348 25.8557 54.5339 24.9617C54.7249 25.1002 54.9333 25.2099 55.1518 25.2905C55.1519 25.2905 55.152 25.2904 55.1521 25.2903Z" fill="#E8E5DA"/>
<path fill-rule="evenodd" clip-rule="evenodd" d="M34.5968 45.0391V45.0392H30.7569V45.0393C28.645 45.0393 26.917 46.7673 26.917 48.8793V60.3992C26.917 62.5112 28.645 64.2392 30.7569 64.2392H34.5969L34.597 64.2389H41.6367L41.6369 64.2385V64.2389H48.6768L48.6769 64.2388V64.2389H55.7168H55.7168H62.7568L62.7569 64.2385V64.2389H69.7969H73.6369C75.7489 64.2389 77.4768 62.5109 77.4768 60.399V48.879C77.4768 46.767 75.7489 45.0391 73.6369 45.0391H69.7969H69.7969H62.7569V45.0395L62.7568 45.0391H55.7168H55.7168H48.6769V45.0392L48.6768 45.0391H41.6369V45.0395L41.6367 45.0391H34.5968Z" fill="url(#paint1_linear_150_661)"/>
<path d="M67.3277 69.584C62.7125 69.584 57.7803 71.5889 57.7803 77.2219C57.7803 79.7541 58.7862 82.1825 60.5767 83.973C62.3671 85.7635 64.7956 86.7694 67.3277 86.7694C69.8598 86.7694 72.2883 85.7635 74.0788 83.973C75.8693 82.1825 76.8752 79.7541 76.8752 77.2219C76.8752 71.5889 71.9429 69.584 67.3277 69.584Z" fill="#E8EDF2"/>
<path d="M36.776 69.584C32.1607 69.584 27.2285 71.5889 27.2285 77.2219C27.2285 79.7541 28.2344 82.1825 30.0249 83.973C31.8154 85.7635 34.2438 86.7694 36.776 86.7694C39.3081 86.7694 41.7365 85.7635 43.527 83.973C45.3175 82.1825 46.3234 79.7541 46.3234 77.2219C46.3234 71.5889 41.3912 69.584 36.776 69.584Z" fill="#E8EDF2"/>
<path d="M79.7394 69.5846H76.3252C73.7498 67.6137 70.5685 66.6009 67.3277 66.7204C62.2246 66.7204 58.1383 68.7254 56.1954 72.1338C54.8478 71.7419 53.4549 71.5269 52.0518 71.4941C50.6487 71.5269 49.2558 71.7419 47.9082 72.1338C45.9653 68.7254 41.879 66.7204 36.7759 66.7204C33.5351 66.6009 30.3538 67.6137 27.7784 69.5846H24.3642C23.6046 69.5846 22.8761 69.8864 22.3389 70.4236C21.8018 70.9607 21.5 71.6892 21.5 72.4489C21.5 73.2085 21.8018 73.9371 22.3389 74.4742C22.8761 75.0113 23.6046 75.3131 24.3642 75.3131H24.5275C24.4186 75.9438 24.364 76.5826 24.3642 77.2226C24.3621 80.0976 25.3581 82.8841 27.1822 85.1064C29.0062 87.3286 31.5452 88.8487 34.3654 89.4071C37.1857 89.9654 40.1123 89.5274 42.6455 88.1678C45.1787 86.8082 47.1613 84.6113 48.2548 81.9524C48.4049 81.9814 48.5574 81.9961 48.7102 81.9963C49.1312 81.9971 49.5449 81.8863 49.9092 81.6752C50.2735 81.4641 50.5753 81.1602 50.7839 80.7945C50.9925 80.4288 51.1005 80.0144 51.0968 79.5934C51.0931 79.1724 50.9779 78.7599 50.7629 78.3979C51.597 78.104 52.5066 78.104 53.3407 78.3979C53.1218 78.7641 53.0063 79.1828 53.0065 79.6095C53.0065 80.2425 53.258 80.8496 53.7056 81.2972C54.1533 81.7449 54.7604 81.9963 55.3934 81.9963C55.5463 81.9961 55.6987 81.9814 55.8488 81.9524C56.9423 84.6113 58.9249 86.8082 61.4581 88.1678C63.9913 89.5274 66.9179 89.9654 69.7382 89.4071C72.5584 88.8487 75.0974 87.3286 76.9214 85.1064C78.7455 82.8841 79.7415 80.0976 79.7394 77.2226C79.7396 76.5826 79.685 75.9438 79.5761 75.3131H79.7394C80.499 75.3131 81.2275 75.0113 81.7647 74.4742C82.3018 73.9371 82.6036 73.2085 82.6036 72.4489C82.6036 71.6892 82.3018 70.9607 81.7647 70.4236C81.2275 69.8864 80.499 69.5846 79.7394 69.5846ZM36.7759 86.77C34.2446 86.7673 31.8178 85.7605 30.0279 83.9706C28.238 82.1807 27.2312 79.7539 27.2285 77.2226C27.2285 71.5896 32.1607 69.5846 36.7759 69.5846C41.3911 69.5846 46.3233 71.5896 46.3233 77.2226C46.3206 79.7539 45.3138 82.1807 43.5239 83.9706C41.734 85.7605 39.3072 86.7673 36.7759 86.77ZM67.3277 86.77C64.7964 86.7673 62.3696 85.7605 60.5797 83.9706C58.7898 82.1807 57.783 79.7539 57.7803 77.2226C57.7803 71.5896 62.7125 69.5846 67.3277 69.5846C71.9429 69.5846 76.8751 71.5896 76.8751 77.2226C76.8724 79.7539 75.8656 82.1807 74.0757 83.9706C72.2858 85.7605 69.859 86.7673 67.3277 86.77Z" fill="url(#paint2_linear_150_661)"/>
<path d="M33.9124 82.016C33.7839 82.0178 33.6565 81.9939 33.5374 81.9456C33.4184 81.8973 33.3103 81.8256 33.2194 81.7349C33.1286 81.6441 33.0568 81.536 33.0084 81.4171C32.96 81.2981 32.9359 81.1706 32.9376 81.0422C32.9376 80.7839 33.0402 80.5362 33.2228 80.3536C33.4054 80.171 33.6531 80.0684 33.9114 80.0684C34.1697 80.0684 34.4174 80.171 34.6 80.3536C34.7827 80.5362 34.8853 80.7839 34.8853 81.0422C34.8869 81.1705 34.8629 81.2978 34.8146 81.4166C34.7663 81.5355 34.6947 81.6434 34.6041 81.7342C34.5134 81.8249 34.4055 81.8966 34.2867 81.945C34.1679 81.9934 34.0406 82.0176 33.9124 82.016Z" fill="white"/>
<path d="M62.5541 83.9292C62.3607 83.9295 62.1717 83.8723 62.0108 83.765C61.85 83.6577 61.7246 83.5051 61.6506 83.3265C61.5766 83.1479 61.5572 82.9513 61.595 82.7617C61.6328 82.572 61.726 82.3979 61.8628 82.2613L65.6818 78.4423C65.8661 78.2634 66.1133 78.1642 66.3701 78.166C66.6269 78.1679 66.8727 78.2708 67.0543 78.4524C67.2359 78.634 67.3387 78.8797 67.3406 79.1365C67.3425 79.3933 67.2432 79.6406 67.0643 79.8248L63.2453 83.6438C63.1546 83.7346 63.0468 83.8065 62.9282 83.8555C62.8096 83.9045 62.6824 83.9296 62.5541 83.9292Z" fill="white"/>
<path d="M34.1257 74.1453C33.9423 73.9622 33.6937 73.8594 33.4345 73.8594C33.1753 73.8594 32.9267 73.9622 32.7433 74.1453L27.4922 79.3963C27.6576 80.0999 27.9029 80.7822 28.2235 81.4299L34.1296 75.5249C34.3115 75.3411 34.4132 75.0928 34.4125 74.8343C34.4118 74.5757 34.3087 74.328 34.1257 74.1453Z" fill="white"/>
<path d="M36.0852 78.8692C36.2687 79.052 36.5173 79.1547 36.7764 79.1547C37.0355 79.1547 37.284 79.052 37.4676 78.8692L44.2539 72.0819C43.7729 71.6273 43.2347 71.2373 42.6528 70.9219L36.0852 77.4905C35.903 77.6737 35.8008 77.9215 35.8008 78.1798C35.8008 78.4382 35.903 78.686 36.0852 78.8692Z" fill="white"/>
<path d="M70.4553 75.0502C70.6386 75.2335 70.8872 75.3365 71.1465 75.3365C71.4058 75.3365 71.6544 75.2335 71.8377 75.0502L74.8051 72.0819C74.3241 71.6273 73.7858 71.2373 73.204 70.9219L70.4553 73.6715C70.2731 73.8547 70.1709 74.1025 70.1709 74.3609C70.1709 74.6192 70.2731 74.867 70.4553 75.0502Z" fill="white"/>
<path d="M69.2376 77.2416C69.1091 77.2434 68.9817 77.2195 68.8626 77.1712C68.7436 77.1229 68.6355 77.0512 68.5446 76.9605C68.4538 76.8697 68.382 76.7616 68.3336 76.6427C68.2852 76.5237 68.2611 76.3962 68.2628 76.2678C68.2611 76.1397 68.2856 76.0127 68.3349 75.8945C68.3841 75.7762 68.4571 75.6694 68.5492 75.5804C68.7343 75.4034 68.9805 75.3047 69.2366 75.3047C69.4927 75.3047 69.7389 75.4034 69.924 75.5804C70.1067 75.7626 70.2097 76.0098 70.2105 76.2678C70.2097 76.5257 70.107 76.7728 69.9247 76.9552C69.7425 77.1377 69.4955 77.2406 69.2376 77.2416Z" fill="white"/>
<line x1="17.2071" y1="16.2929" x2="88.2071" y2="87.2929" stroke="#D2DAE2" stroke-width="2"/>
<defs>
<linearGradient id="paint0_linear_150_661" x1="50.2767" y1="66.9431" x2="68.1186" y2="31.6429" gradientUnits="userSpaceOnUse">
<stop stop-color="#DA2F47"/>
<stop offset="1" stop-color="#FF4D4D"/>
</linearGradient>
<linearGradient id="paint1_linear_150_661" x1="52.1969" y1="71.9082" x2="79.5033" y2="-37.7619" gradientUnits="userSpaceOnUse">
<stop stop-color="#DA2F47"/>
<stop offset="1" stop-color="#B40D0D"/>
</linearGradient>
<linearGradient id="paint2_linear_150_661" x1="49.3159" y1="100.481" x2="57.8219" y2="69.0099" gradientUnits="userSpaceOnUse">
<stop stop-color="#DA2F47"/>
<stop offset="1" stop-color="#FF4D4D"/>
</linearGradient>
</defs>
</svg>
