<svg width="24" height="24" viewBox="0 0 24 24" fill="none" xmlns="http://www.w3.org/2000/svg">
<path d="M20.664 10.3689C20.2749 10.1285 19.8419 10.0795 19.4599 10.1171V9.7158C19.4599 5.61287 16.1024 2.25586 11.9999 2.25586C7.89701 2.25586 4.54 5.61336 4.54 9.7158V10.1171C4.15802 10.0795 3.72489 10.1285 3.33587 10.3689C2.61952 10.8116 2.25635 11.7444 2.25635 13.1413C2.25635 14.5405 2.62021 15.4782 3.33785 15.9284C3.69433 16.152 4.11064 16.2297 4.54 16.1928V16.6048C4.54 16.9201 4.79562 17.1757 5.11092 17.1757H7.39457C7.70987 17.1757 7.96548 16.9201 7.96548 16.6048V9.7158C7.96548 9.4005 7.70987 9.14488 7.39457 9.14488H5.7079C5.99747 5.92763 8.70858 3.39769 11.9999 3.39769C15.2913 3.39769 18.0024 5.92763 18.292 9.14488H16.6053C16.29 9.14488 16.0344 9.4005 16.0344 9.7158V16.6048C16.0344 16.9201 16.29 17.1757 16.6053 17.1757H18.318V17.7466C18.318 18.6911 17.5497 19.4594 16.6053 19.4594H14.7563C14.5206 18.7949 13.886 18.3176 13.1418 18.3176H11.9999C11.0555 18.3176 10.2872 19.0859 10.2872 20.0303C10.2872 20.9747 11.0555 21.743 11.9999 21.743H13.1418C13.886 21.743 14.5206 21.2657 14.7563 20.6012H16.6053C18.1793 20.6012 19.4599 19.3207 19.4599 17.7466C19.4599 17.0512 19.4599 16.6441 19.4599 16.1928C19.8893 16.2297 20.3056 16.152 20.662 15.9284C21.3797 15.4782 21.7435 14.5405 21.7435 13.1413C21.7435 11.7444 21.3804 10.8116 20.664 10.3689ZM4.54 15.0436C4.35784 15.0753 4.13016 15.0775 3.94465 14.9611C3.59225 14.7401 3.39817 14.0938 3.39817 13.1413C3.39817 12.1979 3.58791 11.5591 3.9324 11.3426C4.11867 11.2254 4.35335 11.2338 4.54 11.2706V15.0436ZM6.82366 10.2867V16.0339H5.68183V10.2867H6.82366ZM13.1418 20.6012H11.9999C11.6851 20.6012 11.429 20.3451 11.429 20.0303C11.429 19.7155 11.6851 19.4594 11.9999 19.4594H13.1418C13.4566 19.4594 13.7127 19.7155 13.7127 20.0303C13.7127 20.3451 13.4566 20.6012 13.1418 20.6012ZM18.318 16.0339H17.1762V10.2867H18.318V16.0339ZM20.0593 14.9586C19.8748 15.0764 19.6446 15.0741 19.4599 15.0421V11.2707C19.6465 11.2338 19.8812 11.2255 20.0675 11.3426C20.412 11.5591 20.6017 12.1979 20.6017 13.1413C20.6017 14.0899 20.409 14.7353 20.0593 14.9586Z" fill="white"/>
<path d="M20.664 10.3689L20.7954 10.1563L20.7954 10.1563L20.664 10.3689ZM19.4599 10.1171H19.2099V10.393L19.4844 10.3659L19.4599 10.1171ZM4.54 10.1171L4.51548 10.3659L4.79 10.393V10.1171H4.54ZM3.33587 10.3689L3.4673 10.5816L3.4673 10.5816L3.33587 10.3689ZM3.33785 15.9284L3.47071 15.7166L3.47071 15.7166L3.33785 15.9284ZM4.54 16.1928H4.79V15.9204L4.51858 15.9437L4.54 16.1928ZM5.7079 9.14488L5.45891 9.12247L5.43439 9.39488H5.7079V9.14488ZM18.292 9.14488V9.39488H18.5655L18.541 9.12247L18.292 9.14488ZM18.318 17.1757H18.568V16.9257H18.318V17.1757ZM14.7563 19.4594L14.5207 19.543L14.5797 19.7094H14.7563V19.4594ZM14.7563 20.6012V20.3512H14.5797L14.5207 20.5176L14.7563 20.6012ZM19.4599 16.1928L19.4813 15.9437L19.2099 15.9204V16.1928H19.4599ZM20.662 15.9284L20.5292 15.7166L20.5292 15.7166L20.662 15.9284ZM4.54 15.0436L4.58287 15.2899L4.79 15.2538V15.0436H4.54ZM3.94465 14.9611L4.07752 14.7494L4.0775 14.7493L3.94465 14.9611ZM3.9324 11.3426L4.06545 11.5542L4.06546 11.5542L3.9324 11.3426ZM4.54 11.2706H4.79V11.0651L4.58841 11.0254L4.54 11.2706ZM6.82366 10.2867H7.07366V10.0367H6.82366V10.2867ZM6.82366 16.0339V16.2839H7.07366V16.0339H6.82366ZM5.68183 16.0339H5.43183V16.2839H5.68183V16.0339ZM5.68183 10.2867V10.0367H5.43183V10.2867H5.68183ZM18.318 16.0339V16.2839H18.568V16.0339H18.318ZM17.1762 16.0339H16.9262V16.2839H17.1762V16.0339ZM17.1762 10.2867V10.0367H16.9262V10.2867H17.1762ZM18.318 10.2867H18.568V10.0367H18.318V10.2867ZM20.0593 14.9586L20.1938 15.1693L20.1938 15.1693L20.0593 14.9586ZM19.4599 15.0421H19.2099V15.2525L19.4172 15.2884L19.4599 15.0421ZM19.4599 11.2707L19.4115 11.0254L19.2099 11.0652V11.2707H19.4599ZM20.0675 11.3426L19.9344 11.5543L19.9344 11.5543L20.0675 11.3426ZM20.7954 10.1563C20.3469 9.87909 19.8547 9.82707 19.4354 9.86835L19.4844 10.3659C19.829 10.332 20.203 10.3779 20.5326 10.5816L20.7954 10.1563ZM19.7099 10.1171V9.7158H19.2099V10.1171H19.7099ZM19.7099 9.7158C19.7099 5.47479 16.2404 2.00586 11.9999 2.00586V2.50586C15.9643 2.50586 19.2099 5.75095 19.2099 9.7158H19.7099ZM11.9999 2.00586C7.75893 2.00586 4.29 5.4753 4.29 9.7158H4.79C4.79 5.75142 8.03509 2.50586 11.9999 2.50586V2.00586ZM4.29 9.7158V10.1171H4.79V9.7158H4.29ZM4.56452 9.86835C4.1452 9.82703 3.6529 9.87909 3.20444 10.1563L3.4673 10.5816C3.79688 10.3779 4.17084 10.332 4.51548 10.3659L4.56452 9.86835ZM3.20444 10.1563C2.37544 10.6686 2.00635 11.7164 2.00635 13.1413H2.50635C2.50635 11.7724 2.86361 10.9547 3.4673 10.5816L3.20444 10.1563ZM2.00635 13.1413C2.00635 14.5689 2.37631 15.6203 3.20499 16.1402L3.47071 15.7166C2.86411 15.3361 2.50635 14.512 2.50635 13.1413H2.00635ZM3.20499 16.1402C3.61572 16.3979 4.08852 16.4826 4.56142 16.4419L4.51858 15.9437C4.13275 15.9769 3.77293 15.9062 3.47071 15.7166L3.20499 16.1402ZM4.29 16.1928V16.6048H4.79V16.1928H4.29ZM4.29 16.6048C4.29 17.0582 4.65755 17.4257 5.11092 17.4257V16.9257C4.93369 16.9257 4.79 16.782 4.79 16.6048H4.29ZM5.11092 17.4257H7.39457V16.9257H5.11092V17.4257ZM7.39457 17.4257C7.84794 17.4257 8.21548 17.0582 8.21548 16.6048H7.71548C7.71548 16.782 7.57179 16.9257 7.39457 16.9257V17.4257ZM8.21548 16.6048V9.7158H7.71548V16.6048H8.21548ZM8.21548 9.7158C8.21548 9.26243 7.84794 8.89488 7.39457 8.89488V9.39488C7.57179 9.39488 7.71548 9.53857 7.71548 9.7158H8.21548ZM7.39457 8.89488H5.7079V9.39488H7.39457V8.89488ZM5.95689 9.16729C6.23498 6.07761 8.83927 3.64769 11.9999 3.64769V3.14769C8.57789 3.14769 5.75996 5.77766 5.45891 9.12247L5.95689 9.16729ZM11.9999 3.64769C15.1606 3.64769 17.7649 6.07761 18.043 9.16729L18.541 9.12247C18.2399 5.77766 15.422 3.14769 11.9999 3.14769V3.64769ZM18.292 8.89488H16.6053V9.39488H18.292V8.89488ZM16.6053 8.89488C16.1519 8.89488 15.7844 9.26243 15.7844 9.7158H16.2844C16.2844 9.53857 16.4281 9.39488 16.6053 9.39488V8.89488ZM15.7844 9.7158V16.6048H16.2844V9.7158H15.7844ZM15.7844 16.6048C15.7844 17.0582 16.1519 17.4257 16.6053 17.4257V16.9257C16.4281 16.9257 16.2844 16.782 16.2844 16.6048H15.7844ZM16.6053 17.4257H18.318V16.9257H16.6053V17.4257ZM18.068 17.1757V17.7466H18.568V17.1757H18.068ZM18.068 17.7466C18.068 18.553 17.4116 19.2094 16.6053 19.2094V19.7094C17.6878 19.7094 18.568 18.8291 18.568 17.7466H18.068ZM16.6053 19.2094H14.7563V19.7094H16.6053V19.2094ZM14.9919 19.3758C14.7221 18.6151 13.9955 18.0676 13.1418 18.0676V18.5676C13.7765 18.5676 14.3192 18.9748 14.5207 19.543L14.9919 19.3758ZM13.1418 18.0676H11.9999V18.5676H13.1418V18.0676ZM11.9999 18.0676C10.9175 18.0676 10.0372 18.9478 10.0372 20.0303H10.5372C10.5372 19.224 11.1936 18.5676 11.9999 18.5676V18.0676ZM10.0372 20.0303C10.0372 21.1128 10.9175 21.993 11.9999 21.993V21.493C11.1936 21.493 10.5372 20.8366 10.5372 20.0303H10.0372ZM11.9999 21.993H13.1418V21.493H11.9999V21.993ZM13.1418 21.993C13.9955 21.993 14.7221 21.4455 14.9919 20.6848L14.5207 20.5176C14.3192 21.0858 13.7765 21.493 13.1418 21.493V21.993ZM14.7563 20.8512H16.6053V20.3512H14.7563V20.8512ZM16.6053 20.8512C18.3174 20.8512 19.7099 19.4587 19.7099 17.7466H19.2099C19.2099 19.1826 18.0412 20.3512 16.6053 20.3512V20.8512ZM19.7099 17.7466C19.7099 17.7453 19.7099 17.7439 19.7099 17.7426C19.7099 17.7412 19.7099 17.7399 19.7099 17.7385C19.7099 17.7372 19.7099 17.7358 19.7099 17.7345C19.7099 17.7331 19.7099 17.7317 19.7099 17.7304C19.7099 17.7291 19.7099 17.7277 19.7099 17.7264C19.7099 17.725 19.7099 17.7237 19.7099 17.7223C19.7099 17.721 19.7099 17.7196 19.7099 17.7183C19.7099 17.7169 19.7099 17.7156 19.7099 17.7143C19.7099 17.7129 19.7099 17.7116 19.7099 17.7102C19.7099 17.7089 19.7099 17.7076 19.7099 17.7062C19.7099 17.7049 19.7099 17.7036 19.7099 17.7022C19.7099 17.7009 19.7099 17.6996 19.7099 17.6982C19.7099 17.6969 19.7099 17.6956 19.7099 17.6942C19.7099 17.6929 19.7099 17.6916 19.7099 17.6902C19.7099 17.6889 19.7099 17.6876 19.7099 17.6863C19.7099 17.6849 19.7099 17.6836 19.7099 17.6823C19.7099 17.681 19.7099 17.6796 19.7099 17.6783C19.7099 17.677 19.7099 17.6757 19.7099 17.6744C19.7099 17.673 19.7099 17.6717 19.7099 17.6704C19.7099 17.6691 19.7099 17.6678 19.7099 17.6665C19.7099 17.6651 19.7099 17.6638 19.7099 17.6625C19.7099 17.6612 19.7099 17.6599 19.7099 17.6586C19.7099 17.6573 19.7099 17.656 19.7099 17.6546C19.7099 17.6533 19.7099 17.652 19.7099 17.6507C19.7099 17.6494 19.7099 17.6481 19.7099 17.6468C19.7099 17.6455 19.7099 17.6442 19.7099 17.6429C19.7099 17.6416 19.7099 17.6403 19.7099 17.639C19.7099 17.6377 19.7099 17.6364 19.7099 17.6351C19.7099 17.6338 19.7099 17.6325 19.7099 17.6312C19.7099 17.6299 19.7099 17.6286 19.7099 17.6273C19.7099 17.626 19.7099 17.6247 19.7099 17.6234C19.7099 17.6221 19.7099 17.6208 19.7099 17.6196C19.7099 17.6183 19.7099 17.617 19.7099 17.6157C19.7099 17.6144 19.7099 17.6131 19.7099 17.6118C19.7099 17.6105 19.7099 17.6093 19.7099 17.608C19.7099 17.6067 19.7099 17.6054 19.7099 17.6041C19.7099 17.6028 19.7099 17.6016 19.7099 17.6003C19.7099 17.599 19.7099 17.5977 19.7099 17.5964C19.7099 17.5952 19.7099 17.5939 19.7099 17.5926C19.7099 17.5913 19.7099 17.5901 19.7099 17.5888C19.7099 17.5875 19.7099 17.5862 19.7099 17.585C19.7099 17.5837 19.7099 17.5824 19.7099 17.5811C19.7099 17.5799 19.7099 17.5786 19.7099 17.5773C19.7099 17.5761 19.7099 17.5748 19.7099 17.5735C19.7099 17.5723 19.7099 17.571 19.7099 17.5697C19.7099 17.5685 19.7099 17.5672 19.7099 17.5659C19.7099 17.5647 19.7099 17.5634 19.7099 17.5622C19.7099 17.5609 19.7099 17.5596 19.7099 17.5584C19.7099 17.5571 19.7099 17.5559 19.7099 17.5546C19.7099 17.5534 19.7099 17.5521 19.7099 17.5508C19.7099 17.5496 19.7099 17.5483 19.7099 17.5471C19.7099 17.5458 19.7099 17.5446 19.7099 17.5433C19.7099 17.5421 19.7099 17.5408 19.7099 17.5396C19.7099 17.5383 19.7099 17.5371 19.7099 17.5358C19.7099 17.5346 19.7099 17.5333 19.7099 17.5321C19.7099 17.5309 19.7099 17.5296 19.7099 17.5284C19.7099 17.5271 19.7099 17.5259 19.7099 17.5246C19.7099 17.5234 19.7099 17.5222 19.7099 17.5209C19.7099 17.5197 19.7099 17.5185 19.7099 17.5172C19.7099 17.516 19.7099 17.5147 19.7099 17.5135C19.7099 17.5123 19.7099 17.511 19.7099 17.5098C19.7099 17.5086 19.7099 17.5073 19.7099 17.5061C19.7099 17.5049 19.7099 17.5036 19.7099 17.5024C19.7099 17.5012 19.7099 17.5 19.7099 17.4987C19.7099 17.4975 19.7099 17.4963 19.7099 17.495C19.7099 17.4938 19.7099 17.4926 19.7099 17.4914C19.7099 17.4902 19.7099 17.4889 19.7099 17.4877C19.7099 17.4865 19.7099 17.4853 19.7099 17.484C19.7099 17.4828 19.7099 17.4816 19.7099 17.4804C19.7099 17.4792 19.7099 17.4779 19.7099 17.4767C19.7099 17.4755 19.7099 17.4743 19.7099 17.4731C19.7099 17.4719 19.7099 17.4707 19.7099 17.4694C19.7099 17.4682 19.7099 17.467 19.7099 17.4658C19.7099 17.4646 19.7099 17.4634 19.7099 17.4622C19.7099 17.461 19.7099 17.4598 19.7099 17.4586C19.7099 17.4573 19.7099 17.4561 19.7099 17.4549C19.7099 17.4537 19.7099 17.4525 19.7099 17.4513C19.7099 17.4501 19.7099 17.4489 19.7099 17.4477C19.7099 17.4465 19.7099 17.4453 19.7099 17.4441C19.7099 17.4429 19.7099 17.4417 19.7099 17.4405C19.7099 17.4393 19.7099 17.4381 19.7099 17.4369C19.7099 17.4357 19.7099 17.4345 19.7099 17.4333C19.7099 17.4321 19.7099 17.4309 19.7099 17.4298C19.7099 17.4286 19.7099 17.4274 19.7099 17.4262C19.7099 17.425 19.7099 17.4238 19.7099 17.4226C19.7099 17.4214 19.7099 17.4202 19.7099 17.419C19.7099 17.4179 19.7099 17.4167 19.7099 17.4155C19.7099 17.4143 19.7099 17.4131 19.7099 17.4119C19.7099 17.4107 19.7099 17.4096 19.7099 17.4084C19.7099 17.4072 19.7099 17.406 19.7099 17.4048C19.7099 17.4037 19.7099 17.4025 19.7099 17.4013C19.7099 17.4001 19.7099 17.3989 19.7099 17.3978C19.7099 17.3966 19.7099 17.3954 19.7099 17.3942C19.7099 17.3931 19.7099 17.3919 19.7099 17.3907C19.7099 17.3895 19.7099 17.3884 19.7099 17.3872C19.7099 17.386 19.7099 17.3849 19.7099 17.3837C19.7099 17.3825 19.7099 17.3813 19.7099 17.3802C19.7099 17.379 19.7099 17.3778 19.7099 17.3767C19.7099 17.3755 19.7099 17.3743 19.7099 17.3732C19.7099 17.372 19.7099 17.3709 19.7099 17.3697C19.7099 17.3685 19.7099 17.3674 19.7099 17.3662C19.7099 17.365 19.7099 17.3639 19.7099 17.3627C19.7099 17.3616 19.7099 17.3604 19.7099 17.3592C19.7099 17.3581 19.7099 17.3569 19.7099 17.3558C19.7099 17.3546 19.7099 17.3535 19.7099 17.3523C19.7099 17.3512 19.7099 17.35 19.7099 17.3488C19.7099 17.3477 19.7099 17.3465 19.7099 17.3454C19.7099 17.3442 19.7099 17.3431 19.7099 17.3419C19.7099 17.3408 19.7099 17.3396 19.7099 17.3385C19.7099 17.3373 19.7099 17.3362 19.7099 17.335C19.7099 17.3339 19.7099 17.3328 19.7099 17.3316C19.7099 17.3305 19.7099 17.3293 19.7099 17.3282C19.7099 17.327 19.7099 17.3259 19.7099 17.3248C19.7099 17.3236 19.7099 17.3225 19.7099 17.3213C19.7099 17.3202 19.7099 17.3191 19.7099 17.3179C19.7099 17.3168 19.7099 17.3156 19.7099 17.3145C19.7099 17.3134 19.7099 17.3122 19.7099 17.3111C19.7099 17.31 19.7099 17.3088 19.7099 17.3077C19.7099 17.3066 19.7099 17.3054 19.7099 17.3043C19.7099 17.3032 19.7099 17.302 19.7099 17.3009C19.7099 17.2998 19.7099 17.2986 19.7099 17.2975C19.7099 17.2964 19.7099 17.2953 19.7099 17.2941C19.7099 17.293 19.7099 17.2919 19.7099 17.2908C19.7099 17.2896 19.7099 17.2885 19.7099 17.2874C19.7099 17.2863 19.7099 17.2851 19.7099 17.284C19.7099 17.2829 19.7099 17.2818 19.7099 17.2807C19.7099 17.2795 19.7099 17.2784 19.7099 17.2773C19.7099 17.2762 19.7099 17.2751 19.7099 17.2739C19.7099 17.2728 19.7099 17.2717 19.7099 17.2706C19.7099 17.2695 19.7099 17.2684 19.7099 17.2672C19.7099 17.2661 19.7099 17.265 19.7099 17.2639C19.7099 17.2628 19.7099 17.2617 19.7099 17.2606C19.7099 17.2595 19.7099 17.2583 19.7099 17.2572C19.7099 17.2561 19.7099 17.255 19.7099 17.2539C19.7099 17.2528 19.7099 17.2517 19.7099 17.2506C19.7099 17.2495 19.7099 17.2484 19.7099 17.2473C19.7099 17.2462 19.7099 17.2451 19.7099 17.244C19.7099 17.2429 19.7099 17.2418 19.7099 17.2407C19.7099 17.2395 19.7099 17.2384 19.7099 17.2373C19.7099 17.2362 19.7099 17.2351 19.7099 17.234C19.7099 17.233 19.7099 17.2319 19.7099 17.2308C19.7099 17.2297 19.7099 17.2286 19.7099 17.2275C19.7099 17.2264 19.7099 17.2253 19.7099 17.2242C19.7099 17.2231 19.7099 17.222 19.7099 17.2209C19.7099 17.2198 19.7099 17.2187 19.7099 17.2176C19.7099 17.2165 19.7099 17.2154 19.7099 17.2144C19.7099 17.2133 19.7099 17.2122 19.7099 17.2111C19.7099 17.21 19.7099 17.2089 19.7099 17.2078C19.7099 17.2067 19.7099 17.2056 19.7099 17.2046C19.7099 17.2035 19.7099 17.2024 19.7099 17.2013C19.7099 17.2002 19.7099 17.1991 19.7099 17.1981C19.7099 17.197 19.7099 17.1959 19.7099 17.1948C19.7099 17.1937 19.7099 17.1926 19.7099 17.1916C19.7099 17.1905 19.7099 17.1894 19.7099 17.1883C19.7099 17.1873 19.7099 17.1862 19.7099 17.1851C19.7099 17.184 19.7099 17.1829 19.7099 17.1819C19.7099 17.1808 19.7099 17.1797 19.7099 17.1786C19.7099 17.1776 19.7099 17.1765 19.7099 17.1754C19.7099 17.1744 19.7099 17.1733 19.7099 17.1722C19.7099 17.1711 19.7099 17.1701 19.7099 17.169C19.7099 17.1679 19.7099 17.1669 19.7099 17.1658C19.7099 17.1647 19.7099 17.1637 19.7099 17.1626C19.7099 17.1615 19.7099 17.1605 19.7099 17.1594C19.7099 17.1583 19.7099 17.1573 19.7099 17.1562C19.7099 17.1551 19.7099 17.1541 19.7099 17.153C19.7099 17.1519 19.7099 17.1509 19.7099 17.1498C19.7099 17.1488 19.7099 17.1477 19.7099 17.1466C19.7099 17.1456 19.7099 17.1445 19.7099 17.1435C19.7099 17.1424 19.7099 17.1413 19.7099 17.1403C19.7099 17.1392 19.7099 17.1382 19.7099 17.1371C19.7099 17.1361 19.7099 17.135 19.7099 17.1339C19.7099 17.1329 19.7099 17.1318 19.7099 17.1308C19.7099 17.1297 19.7099 17.1287 19.7099 17.1276C19.7099 17.1266 19.7099 17.1255 19.7099 17.1245C19.7099 17.1234 19.7099 17.1224 19.7099 17.1213C19.7099 17.1203 19.7099 17.1192 19.7099 17.1182C19.7099 17.1171 19.7099 17.1161 19.7099 17.115C19.7099 17.114 19.7099 17.1129 19.7099 17.1119C19.7099 17.1109 19.7099 17.1098 19.7099 17.1088C19.7099 17.1077 19.7099 17.1067 19.7099 17.1056C19.7099 17.1046 19.7099 17.1036 19.7099 17.1025C19.7099 17.1015 19.7099 17.1004 19.7099 17.0994C19.7099 17.0984 19.7099 17.0973 19.7099 17.0963C19.7099 17.0952 19.7099 17.0942 19.7099 17.0932C19.7099 17.0921 19.7099 17.0911 19.7099 17.09C19.7099 17.089 19.7099 17.088 19.7099 17.0869C19.7099 17.0859 19.7099 17.0849 19.7099 17.0838C19.7099 17.0828 19.7099 17.0818 19.7099 17.0807C19.7099 17.0797 19.7099 17.0787 19.7099 17.0776C19.7099 17.0766 19.7099 17.0756 19.7099 17.0746C19.7099 17.0735 19.7099 17.0725 19.7099 17.0715C19.7099 17.0704 19.7099 17.0694 19.7099 17.0684C19.7099 17.0674 19.7099 17.0663 19.7099 17.0653C19.7099 17.0643 19.7099 17.0633 19.7099 17.0622C19.7099 17.0612 19.7099 17.0602 19.7099 17.0592C19.7099 17.0581 19.7099 17.0571 19.7099 17.0561C19.7099 17.0551 19.7099 17.054 19.7099 17.053C19.7099 17.052 19.7099 17.051 19.7099 17.05C19.7099 17.0489 19.7099 17.0479 19.7099 17.0469C19.7099 17.0459 19.7099 17.0449 19.7099 17.0438C19.7099 17.0428 19.7099 17.0418 19.7099 17.0408C19.7099 17.0398 19.7099 17.0388 19.7099 17.0377C19.7099 17.0367 19.7099 17.0357 19.7099 17.0347C19.7099 17.0337 19.7099 17.0327 19.7099 17.0317C19.7099 17.0307 19.7099 17.0296 19.7099 17.0286C19.7099 17.0276 19.7099 17.0266 19.7099 17.0256C19.7099 17.0246 19.7099 17.0236 19.7099 17.0226C19.7099 17.0216 19.7099 17.0205 19.7099 17.0195C19.7099 17.0185 19.7099 17.0175 19.7099 17.0165C19.7099 17.0155 19.7099 17.0145 19.7099 17.0135C19.7099 17.0125 19.7099 17.0115 19.7099 17.0105C19.7099 17.0095 19.7099 17.0085 19.7099 17.0075C19.7099 17.0065 19.7099 17.0055 19.7099 17.0045C19.7099 17.0035 19.7099 17.0025 19.7099 17.0015C19.7099 17.0005 19.7099 16.9995 19.7099 16.9985C19.7099 16.9975 19.7099 16.9965 19.7099 16.9955C19.7099 16.9945 19.7099 16.9935 19.7099 16.9925C19.7099 16.9915 19.7099 16.9905 19.7099 16.9895C19.7099 16.9885 19.7099 16.9875 19.7099 16.9865C19.7099 16.9855 19.7099 16.9845 19.7099 16.9835C19.7099 16.9825 19.7099 16.9815 19.7099 16.9805C19.7099 16.9795 19.7099 16.9785 19.7099 16.9775C19.7099 16.9766 19.7099 16.9756 19.7099 16.9746C19.7099 16.9736 19.7099 16.9726 19.7099 16.9716C19.7099 16.9706 19.7099 16.9696 19.7099 16.9686C19.7099 16.9676 19.7099 16.9667 19.7099 16.9657C19.7099 16.9647 19.7099 16.9637 19.7099 16.9627C19.7099 16.9617 19.7099 16.9607 19.7099 16.9597C19.7099 16.9588 19.7099 16.9578 19.7099 16.9568C19.7099 16.9558 19.7099 16.9548 19.7099 16.9538C19.7099 16.9529 19.7099 16.9519 19.7099 16.9509C19.7099 16.9499 19.7099 16.9489 19.7099 16.9479C19.7099 16.947 19.7099 16.946 19.7099 16.945C19.7099 16.944 19.7099 16.943 19.7099 16.9421C19.7099 16.9411 19.7099 16.9401 19.7099 16.9391C19.7099 16.9381 19.7099 16.9372 19.7099 16.9362C19.7099 16.9352 19.7099 16.9342 19.7099 16.9333C19.7099 16.9323 19.7099 16.9313 19.7099 16.9303C19.7099 16.9294 19.7099 16.9284 19.7099 16.9274C19.7099 16.9264 19.7099 16.9255 19.7099 16.9245C19.7099 16.9235 19.7099 16.9225 19.7099 16.9216C19.7099 16.9206 19.7099 16.9196 19.7099 16.9187C19.7099 16.9177 19.7099 16.9167 19.7099 16.9157C19.7099 16.9148 19.7099 16.9138 19.7099 16.9128C19.7099 16.9119 19.7099 16.9109 19.7099 16.9099C19.7099 16.909 19.7099 16.908 19.7099 16.907C19.7099 16.9061 19.7099 16.9051 19.7099 16.9041C19.7099 16.9032 19.7099 16.9022 19.7099 16.9012C19.7099 16.9003 19.7099 16.8993 19.7099 16.8983C19.7099 16.8974 19.7099 16.8964 19.7099 16.8954C19.7099 16.8945 19.7099 16.8935 19.7099 16.8926C19.7099 16.8916 19.7099 16.8906 19.7099 16.8897C19.7099 16.8887 19.7099 16.8878 19.7099 16.8868C19.7099 16.8858 19.7099 16.8849 19.7099 16.8839C19.7099 16.883 19.7099 16.882 19.7099 16.881C19.7099 16.8801 19.7099 16.8791 19.7099 16.8782C19.7099 16.8772 19.7099 16.8762 19.7099 16.8753C19.7099 16.8743 19.7099 16.8734 19.7099 16.8724C19.7099 16.8715 19.7099 16.8705 19.7099 16.8696C19.7099 16.8686 19.7099 16.8676 19.7099 16.8667C19.7099 16.8657 19.7099 16.8648 19.7099 16.8638C19.7099 16.8629 19.7099 16.8619 19.7099 16.861C19.7099 16.86 19.7099 16.8591 19.7099 16.8581C19.7099 16.8572 19.7099 16.8562 19.7099 16.8553C19.7099 16.8543 19.7099 16.8534 19.7099 16.8524C19.7099 16.8515 19.7099 16.8505 19.7099 16.8496C19.7099 16.8486 19.7099 16.8477 19.7099 16.8467C19.7099 16.8458 19.7099 16.8448 19.7099 16.8439C19.7099 16.8429 19.7099 16.842 19.7099 16.841C19.7099 16.8401 19.7099 16.8392 19.7099 16.8382C19.7099 16.8373 19.7099 16.8363 19.7099 16.8354C19.7099 16.8344 19.7099 16.8335 19.7099 16.8325C19.7099 16.8316 19.7099 16.8307 19.7099 16.8297C19.7099 16.8288 19.7099 16.8278 19.7099 16.8269C19.7099 16.826 19.7099 16.825 19.7099 16.8241C19.7099 16.8231 19.7099 16.8222 19.7099 16.8212C19.7099 16.8203 19.7099 16.8194 19.7099 16.8184C19.7099 16.8175 19.7099 16.8166 19.7099 16.8156C19.7099 16.8147 19.7099 16.8137 19.7099 16.8128C19.7099 16.8119 19.7099 16.8109 19.7099 16.81C19.7099 16.8091 19.7099 16.8081 19.7099 16.8072C19.7099 16.8062 19.7099 16.8053 19.7099 16.8044C19.7099 16.8034 19.7099 16.8025 19.7099 16.8016C19.7099 16.8006 19.7099 16.7997 19.7099 16.7988C19.7099 16.7978 19.7099 16.7969 19.7099 16.796C19.7099 16.795 19.7099 16.7941 19.7099 16.7932C19.7099 16.7922 19.7099 16.7913 19.7099 16.7904C19.7099 16.7894 19.7099 16.7885 19.7099 16.7876C19.7099 16.7867 19.7099 16.7857 19.7099 16.7848C19.7099 16.7839 19.7099 16.7829 19.7099 16.782C19.7099 16.7811 19.7099 16.7802 19.7099 16.7792C19.7099 16.7783 19.7099 16.7774 19.7099 16.7764C19.7099 16.7755 19.7099 16.7746 19.7099 16.7737C19.7099 16.7727 19.7099 16.7718 19.7099 16.7709C19.7099 16.77 19.7099 16.769 19.7099 16.7681C19.7099 16.7672 19.7099 16.7663 19.7099 16.7653C19.7099 16.7644 19.7099 16.7635 19.7099 16.7626C19.7099 16.7616 19.7099 16.7607 19.7099 16.7598C19.7099 16.7589 19.7099 16.7579 19.7099 16.757C19.7099 16.7561 19.7099 16.7552 19.7099 16.7543C19.7099 16.7533 19.7099 16.7524 19.7099 16.7515C19.7099 16.7506 19.7099 16.7497 19.7099 16.7487C19.7099 16.7478 19.7099 16.7469 19.7099 16.746C19.7099 16.7451 19.7099 16.7441 19.7099 16.7432C19.7099 16.7423 19.7099 16.7414 19.7099 16.7405C19.7099 16.7395 19.7099 16.7386 19.7099 16.7377C19.7099 16.7368 19.7099 16.7359 19.7099 16.735C19.7099 16.734 19.7099 16.7331 19.7099 16.7322C19.7099 16.7313 19.7099 16.7304 19.7099 16.7295C19.7099 16.7286 19.7099 16.7276 19.7099 16.7267C19.7099 16.7258 19.7099 16.7249 19.7099 16.724C19.7099 16.7231 19.7099 16.7222 19.7099 16.7212C19.7099 16.7203 19.7099 16.7194 19.7099 16.7185C19.7099 16.7176 19.7099 16.7167 19.7099 16.7158C19.7099 16.7149 19.7099 16.7139 19.7099 16.713C19.7099 16.7121 19.7099 16.7112 19.7099 16.7103C19.7099 16.7094 19.7099 16.7085 19.7099 16.7076C19.7099 16.7067 19.7099 16.7057 19.7099 16.7048C19.7099 16.7039 19.7099 16.703 19.7099 16.7021C19.7099 16.7012 19.7099 16.7003 19.7099 16.6994C19.7099 16.6985 19.7099 16.6976 19.7099 16.6967C19.7099 16.6958 19.7099 16.6948 19.7099 16.6939C19.7099 16.693 19.7099 16.6921 19.7099 16.6912C19.7099 16.6903 19.7099 16.6894 19.7099 16.6885C19.7099 16.6876 19.7099 16.6867 19.7099 16.6858C19.7099 16.6849 19.7099 16.684 19.7099 16.6831C19.7099 16.6822 19.7099 16.6813 19.7099 16.6804C19.7099 16.6795 19.7099 16.6786 19.7099 16.6777C19.7099 16.6767 19.7099 16.6758 19.7099 16.6749C19.7099 16.674 19.7099 16.6731 19.7099 16.6722C19.7099 16.6713 19.7099 16.6704 19.7099 16.6695C19.7099 16.6686 19.7099 16.6677 19.7099 16.6668C19.7099 16.6659 19.7099 16.665 19.7099 16.6641C19.7099 16.6632 19.7099 16.6623 19.7099 16.6614C19.7099 16.6605 19.7099 16.6596 19.7099 16.6587C19.7099 16.6578 19.7099 16.6569 19.7099 16.656C19.7099 16.6551 19.7099 16.6542 19.7099 16.6533C19.7099 16.6524 19.7099 16.6515 19.7099 16.6506C19.7099 16.6497 19.7099 16.6488 19.7099 16.6479C19.7099 16.647 19.7099 16.6461 19.7099 16.6453C19.7099 16.6444 19.7099 16.6435 19.7099 16.6426C19.7099 16.6417 19.7099 16.6408 19.7099 16.6399C19.7099 16.639 19.7099 16.6381 19.7099 16.6372C19.7099 16.6363 19.7099 16.6354 19.7099 16.6345C19.7099 16.6336 19.7099 16.6327 19.7099 16.6318C19.7099 16.6309 19.7099 16.63 19.7099 16.6291C19.7099 16.6282 19.7099 16.6273 19.7099 16.6265C19.7099 16.6256 19.7099 16.6247 19.7099 16.6238C19.7099 16.6229 19.7099 16.622 19.7099 16.6211C19.7099 16.6202 19.7099 16.6193 19.7099 16.6184C19.7099 16.6175 19.7099 16.6166 19.7099 16.6157C19.7099 16.6149 19.7099 16.614 19.7099 16.6131C19.7099 16.6122 19.7099 16.6113 19.7099 16.6104C19.7099 16.6095 19.7099 16.6086 19.7099 16.6077C19.7099 16.6068 19.7099 16.606 19.7099 16.6051C19.7099 16.6042 19.7099 16.6033 19.7099 16.6024C19.7099 16.6015 19.7099 16.6006 19.7099 16.5997C19.7099 16.5988 19.7099 16.5979 19.7099 16.5971C19.7099 16.5962 19.7099 16.5953 19.7099 16.5944C19.7099 16.5935 19.7099 16.5926 19.7099 16.5917C19.7099 16.5908 19.7099 16.59 19.7099 16.5891C19.7099 16.5882 19.7099 16.5873 19.7099 16.5864C19.7099 16.5855 19.7099 16.5846 19.7099 16.5838C19.7099 16.5829 19.7099 16.582 19.7099 16.5811C19.7099 16.5802 19.7099 16.5793 19.7099 16.5784C19.7099 16.5775 19.7099 16.5767 19.7099 16.5758C19.7099 16.5749 19.7099 16.574 19.7099 16.5731C19.7099 16.5722 19.7099 16.5714 19.7099 16.5705C19.7099 16.5696 19.7099 16.5687 19.7099 16.5678C19.7099 16.5669 19.7099 16.5661 19.7099 16.5652C19.7099 16.5643 19.7099 16.5634 19.7099 16.5625C19.7099 16.5616 19.7099 16.5608 19.7099 16.5599C19.7099 16.559 19.7099 16.5581 19.7099 16.5572C19.7099 16.5563 19.7099 16.5555 19.7099 16.5546C19.7099 16.5537 19.7099 16.5528 19.7099 16.5519C19.7099 16.551 19.7099 16.5502 19.7099 16.5493C19.7099 16.5484 19.7099 16.5475 19.7099 16.5466C19.7099 16.5458 19.7099 16.5449 19.7099 16.544C19.7099 16.5431 19.7099 16.5422 19.7099 16.5414C19.7099 16.5405 19.7099 16.5396 19.7099 16.5387C19.7099 16.5378 19.7099 16.537 19.7099 16.5361C19.7099 16.5352 19.7099 16.5343 19.7099 16.5334C19.7099 16.5326 19.7099 16.5317 19.7099 16.5308C19.7099 16.5299 19.7099 16.529 19.7099 16.5282C19.7099 16.5273 19.7099 16.5264 19.7099 16.5255C19.7099 16.5246 19.7099 16.5238 19.7099 16.5229C19.7099 16.522 19.7099 16.5211 19.7099 16.5203C19.7099 16.5194 19.7099 16.5185 19.7099 16.5176C19.7099 16.5167 19.7099 16.5159 19.7099 16.515C19.7099 16.5141 19.7099 16.5132 19.7099 16.5124C19.7099 16.5115 19.7099 16.5106 19.7099 16.5097C19.7099 16.5088 19.7099 16.508 19.7099 16.5071C19.7099 16.5062 19.7099 16.5053 19.7099 16.5045C19.7099 16.5036 19.7099 16.5027 19.7099 16.5018C19.7099 16.501 19.7099 16.5001 19.7099 16.4992C19.7099 16.4983 19.7099 16.4975 19.7099 16.4966C19.7099 16.4957 19.7099 16.4948 19.7099 16.494C19.7099 16.4931 19.7099 16.4922 19.7099 16.4913C19.7099 16.4905 19.7099 16.4896 19.7099 16.4887C19.7099 16.4878 19.7099 16.487 19.7099 16.4861C19.7099 16.4852 19.7099 16.4843 19.7099 16.4835C19.7099 16.4826 19.7099 16.4817 19.7099 16.4808C19.7099 16.48 19.7099 16.4791 19.7099 16.4782C19.7099 16.4773 19.7099 16.4765 19.7099 16.4756C19.7099 16.4747 19.7099 16.4738 19.7099 16.473C19.7099 16.4721 19.7099 16.4712 19.7099 16.4703C19.7099 16.4695 19.7099 16.4686 19.7099 16.4677C19.7099 16.4668 19.7099 16.466 19.7099 16.4651C19.7099 16.4642 19.7099 16.4634 19.7099 16.4625C19.7099 16.4616 19.7099 16.4607 19.7099 16.4599C19.7099 16.459 19.7099 16.4581 19.7099 16.4572C19.7099 16.4564 19.7099 16.4555 19.7099 16.4546C19.7099 16.4538 19.7099 16.4529 19.7099 16.452C19.7099 16.4511 19.7099 16.4503 19.7099 16.4494C19.7099 16.4485 19.7099 16.4476 19.7099 16.4468C19.7099 16.4459 19.7099 16.445 19.7099 16.4442C19.7099 16.4433 19.7099 16.4424 19.7099 16.4415C19.7099 16.4407 19.7099 16.4398 19.7099 16.4389C19.7099 16.4381 19.7099 16.4372 19.7099 16.4363C19.7099 16.4354 19.7099 16.4346 19.7099 16.4337C19.7099 16.4328 19.7099 16.432 19.7099 16.4311C19.7099 16.4302 19.7099 16.4293 19.7099 16.4285C19.7099 16.4276 19.7099 16.4267 19.7099 16.4259C19.7099 16.425 19.7099 16.4241 19.7099 16.4232C19.7099 16.4224 19.7099 16.4215 19.7099 16.4206C19.7099 16.4198 19.7099 16.4189 19.7099 16.418C19.7099 16.4171 19.7099 16.4163 19.7099 16.4154C19.7099 16.4145 19.7099 16.4137 19.7099 16.4128C19.7099 16.4119 19.7099 16.4111 19.7099 16.4102C19.7099 16.4093 19.7099 16.4084 19.7099 16.4076C19.7099 16.4067 19.7099 16.4058 19.7099 16.405C19.7099 16.4041 19.7099 16.4032 19.7099 16.4024C19.7099 16.4015 19.7099 16.4006 19.7099 16.3997C19.7099 16.3989 19.7099 16.398 19.7099 16.3971C19.7099 16.3963 19.7099 16.3954 19.7099 16.3945C19.7099 16.3936 19.7099 16.3928 19.7099 16.3919C19.7099 16.391 19.7099 16.3902 19.7099 16.3893C19.7099 16.3884 19.7099 16.3876 19.7099 16.3867C19.7099 16.3858 19.7099 16.3849 19.7099 16.3841C19.7099 16.3832 19.7099 16.3823 19.7099 16.3815C19.7099 16.3806 19.7099 16.3797 19.7099 16.3789C19.7099 16.378 19.7099 16.3771 19.7099 16.3762C19.7099 16.3754 19.7099 16.3745 19.7099 16.3736C19.7099 16.3728 19.7099 16.3719 19.7099 16.371C19.7099 16.3702 19.7099 16.3693 19.7099 16.3684C19.7099 16.3675 19.7099 16.3667 19.7099 16.3658C19.7099 16.3649 19.7099 16.3641 19.7099 16.3632C19.7099 16.3623 19.7099 16.3615 19.7099 16.3606C19.7099 16.3597 19.7099 16.3588 19.7099 16.358C19.7099 16.3571 19.7099 16.3562 19.7099 16.3554C19.7099 16.3545 19.7099 16.3536 19.7099 16.3528C19.7099 16.3519 19.7099 16.351 19.7099 16.3501C19.7099 16.3493 19.7099 16.3484 19.7099 16.3475C19.7099 16.3467 19.7099 16.3458 19.7099 16.3449C19.7099 16.3441 19.7099 16.3432 19.7099 16.3423C19.7099 16.3414 19.7099 16.3406 19.7099 16.3397C19.7099 16.3388 19.7099 16.338 19.7099 16.3371C19.7099 16.3362 19.7099 16.3354 19.7099 16.3345C19.7099 16.3336 19.7099 16.3327 19.7099 16.3319C19.7099 16.331 19.7099 16.3301 19.7099 16.3293C19.7099 16.3284 19.7099 16.3275 19.7099 16.3266C19.7099 16.3258 19.7099 16.3249 19.7099 16.324C19.7099 16.3232 19.7099 16.3223 19.7099 16.3214C19.7099 16.3205 19.7099 16.3197 19.7099 16.3188C19.7099 16.3179 19.7099 16.3171 19.7099 16.3162C19.7099 16.3153 19.7099 16.3145 19.7099 16.3136C19.7099 16.3127 19.7099 16.3118 19.7099 16.311C19.7099 16.3101 19.7099 16.3092 19.7099 16.3084C19.7099 16.3075 19.7099 16.3066 19.7099 16.3057C19.7099 16.3049 19.7099 16.304 19.7099 16.3031C19.7099 16.3023 19.7099 16.3014 19.7099 16.3005C19.7099 16.2996 19.7099 16.2988 19.7099 16.2979C19.7099 16.297 19.7099 16.2961 19.7099 16.2953C19.7099 16.2944 19.7099 16.2935 19.7099 16.2927C19.7099 16.2918 19.7099 16.2909 19.7099 16.29C19.7099 16.2892 19.7099 16.2883 19.7099 16.2874C19.7099 16.2866 19.7099 16.2857 19.7099 16.2848C19.7099 16.2839 19.7099 16.2831 19.7099 16.2822C19.7099 16.2813 19.7099 16.2804 19.7099 16.2796C19.7099 16.2787 19.7099 16.2778 19.7099 16.277C19.7099 16.2761 19.7099 16.2752 19.7099 16.2743C19.7099 16.2735 19.7099 16.2726 19.7099 16.2717C19.7099 16.2708 19.7099 16.27 19.7099 16.2691C19.7099 16.2682 19.7099 16.2673 19.7099 16.2665C19.7099 16.2656 19.7099 16.2647 19.7099 16.2638C19.7099 16.263 19.7099 16.2621 19.7099 16.2612C19.7099 16.2604 19.7099 16.2595 19.7099 16.2586C19.7099 16.2577 19.7099 16.2569 19.7099 16.256C19.7099 16.2551 19.7099 16.2542 19.7099 16.2534C19.7099 16.2525 19.7099 16.2516 19.7099 16.2507C19.7099 16.2499 19.7099 16.249 19.7099 16.2481C19.7099 16.2472 19.7099 16.2464 19.7099 16.2455C19.7099 16.2446 19.7099 16.2437 19.7099 16.2428C19.7099 16.242 19.7099 16.2411 19.7099 16.2402C19.7099 16.2393 19.7099 16.2385 19.7099 16.2376C19.7099 16.2367 19.7099 16.2358 19.7099 16.235C19.7099 16.2341 19.7099 16.2332 19.7099 16.2323C19.7099 16.2315 19.7099 16.2306 19.7099 16.2297C19.7099 16.2288 19.7099 16.2279 19.7099 16.2271C19.7099 16.2262 19.7099 16.2253 19.7099 16.2244C19.7099 16.2236 19.7099 16.2227 19.7099 16.2218C19.7099 16.2209 19.7099 16.22 19.7099 16.2192C19.7099 16.2183 19.7099 16.2174 19.7099 16.2165C19.7099 16.2157 19.7099 16.2148 19.7099 16.2139C19.7099 16.213 19.7099 16.2121 19.7099 16.2113C19.7099 16.2104 19.7099 16.2095 19.7099 16.2086C19.7099 16.2077 19.7099 16.2069 19.7099 16.206C19.7099 16.2051 19.7099 16.2042 19.7099 16.2033C19.7099 16.2025 19.7099 16.2016 19.7099 16.2007C19.7099 16.1998 19.7099 16.1989 19.7099 16.1981C19.7099 16.1972 19.7099 16.1963 19.7099 16.1954C19.7099 16.1945 19.7099 16.1937 19.7099 16.1928H19.2099C19.2099 16.1937 19.2099 16.1945 19.2099 16.1954C19.2099 16.1963 19.2099 16.1972 19.2099 16.1981C19.2099 16.1989 19.2099 16.1998 19.2099 16.2007C19.2099 16.2016 19.2099 16.2025 19.2099 16.2033C19.2099 16.2042 19.2099 16.2051 19.2099 16.206C19.2099 16.2069 19.2099 16.2077 19.2099 16.2086C19.2099 16.2095 19.2099 16.2104 19.2099 16.2113C19.2099 16.2121 19.2099 16.213 19.2099 16.2139C19.2099 16.2148 19.2099 16.2157 19.2099 16.2165C19.2099 16.2174 19.2099 16.2183 19.2099 16.2192C19.2099 16.22 19.2099 16.2209 19.2099 16.2218C19.2099 16.2227 19.2099 16.2236 19.2099 16.2244C19.2099 16.2253 19.2099 16.2262 19.2099 16.2271C19.2099 16.2279 19.2099 16.2288 19.2099 16.2297C19.2099 16.2306 19.2099 16.2315 19.2099 16.2323C19.2099 16.2332 19.2099 16.2341 19.2099 16.235C19.2099 16.2358 19.2099 16.2367 19.2099 16.2376C19.2099 16.2385 19.2099 16.2393 19.2099 16.2402C19.2099 16.2411 19.2099 16.242 19.2099 16.2428C19.2099 16.2437 19.2099 16.2446 19.2099 16.2455C19.2099 16.2464 19.2099 16.2472 19.2099 16.2481C19.2099 16.249 19.2099 16.2499 19.2099 16.2507C19.2099 16.2516 19.2099 16.2525 19.2099 16.2534C19.2099 16.2542 19.2099 16.2551 19.2099 16.256C19.2099 16.2569 19.2099 16.2577 19.2099 16.2586C19.2099 16.2595 19.2099 16.2604 19.2099 16.2612C19.2099 16.2621 19.2099 16.263 19.2099 16.2638C19.2099 16.2647 19.2099 16.2656 19.2099 16.2665C19.2099 16.2673 19.2099 16.2682 19.2099 16.2691C19.2099 16.27 19.2099 16.2708 19.2099 16.2717C19.2099 16.2726 19.2099 16.2735 19.2099 16.2743C19.2099 16.2752 19.2099 16.2761 19.2099 16.277C19.2099 16.2778 19.2099 16.2787 19.2099 16.2796C19.2099 16.2804 19.2099 16.2813 19.2099 16.2822C19.2099 16.2831 19.2099 16.2839 19.2099 16.2848C19.2099 16.2857 19.2099 16.2866 19.2099 16.2874C19.2099 16.2883 19.2099 16.2892 19.2099 16.29C19.2099 16.2909 19.2099 16.2918 19.2099 16.2927C19.2099 16.2935 19.2099 16.2944 19.2099 16.2953C19.2099 16.2961 19.2099 16.297 19.2099 16.2979C19.2099 16.2988 19.2099 16.2996 19.2099 16.3005C19.2099 16.3014 19.2099 16.3023 19.2099 16.3031C19.2099 16.304 19.2099 16.3049 19.2099 16.3057C19.2099 16.3066 19.2099 16.3075 19.2099 16.3084C19.2099 16.3092 19.2099 16.3101 19.2099 16.311C19.2099 16.3118 19.2099 16.3127 19.2099 16.3136C19.2099 16.3145 19.2099 16.3153 19.2099 16.3162C19.2099 16.3171 19.2099 16.3179 19.2099 16.3188C19.2099 16.3197 19.2099 16.3205 19.2099 16.3214C19.2099 16.3223 19.2099 16.3232 19.2099 16.324C19.2099 16.3249 19.2099 16.3258 19.2099 16.3266C19.2099 16.3275 19.2099 16.3284 19.2099 16.3293C19.2099 16.3301 19.2099 16.331 19.2099 16.3319C19.2099 16.3327 19.2099 16.3336 19.2099 16.3345C19.2099 16.3354 19.2099 16.3362 19.2099 16.3371C19.2099 16.338 19.2099 16.3388 19.2099 16.3397C19.2099 16.3406 19.2099 16.3414 19.2099 16.3423C19.2099 16.3432 19.2099 16.3441 19.2099 16.3449C19.2099 16.3458 19.2099 16.3467 19.2099 16.3475C19.2099 16.3484 19.2099 16.3493 19.2099 16.3501C19.2099 16.351 19.2099 16.3519 19.2099 16.3528C19.2099 16.3536 19.2099 16.3545 19.2099 16.3554C19.2099 16.3562 19.2099 16.3571 19.2099 16.358C19.2099 16.3588 19.2099 16.3597 19.2099 16.3606C19.2099 16.3615 19.2099 16.3623 19.2099 16.3632C19.2099 16.3641 19.2099 16.3649 19.2099 16.3658C19.2099 16.3667 19.2099 16.3675 19.2099 16.3684C19.2099 16.3693 19.2099 16.3702 19.2099 16.371C19.2099 16.3719 19.2099 16.3728 19.2099 16.3736C19.2099 16.3745 19.2099 16.3754 19.2099 16.3762C19.2099 16.3771 19.2099 16.378 19.2099 16.3789C19.2099 16.3797 19.2099 16.3806 19.2099 16.3815C19.2099 16.3823 19.2099 16.3832 19.2099 16.3841C19.2099 16.3849 19.2099 16.3858 19.2099 16.3867C19.2099 16.3876 19.2099 16.3884 19.2099 16.3893C19.2099 16.3902 19.2099 16.391 19.2099 16.3919C19.2099 16.3928 19.2099 16.3936 19.2099 16.3945C19.2099 16.3954 19.2099 16.3963 19.2099 16.3971C19.2099 16.398 19.2099 16.3989 19.2099 16.3997C19.2099 16.4006 19.2099 16.4015 19.2099 16.4024C19.2099 16.4032 19.2099 16.4041 19.2099 16.405C19.2099 16.4058 19.2099 16.4067 19.2099 16.4076C19.2099 16.4084 19.2099 16.4093 19.2099 16.4102C19.2099 16.4111 19.2099 16.4119 19.2099 16.4128C19.2099 16.4137 19.2099 16.4145 19.2099 16.4154C19.2099 16.4163 19.2099 16.4171 19.2099 16.418C19.2099 16.4189 19.2099 16.4198 19.2099 16.4206C19.2099 16.4215 19.2099 16.4224 19.2099 16.4232C19.2099 16.4241 19.2099 16.425 19.2099 16.4259C19.2099 16.4267 19.2099 16.4276 19.2099 16.4285C19.2099 16.4293 19.2099 16.4302 19.2099 16.4311C19.2099 16.432 19.2099 16.4328 19.2099 16.4337C19.2099 16.4346 19.2099 16.4354 19.2099 16.4363C19.2099 16.4372 19.2099 16.4381 19.2099 16.4389C19.2099 16.4398 19.2099 16.4407 19.2099 16.4415C19.2099 16.4424 19.2099 16.4433 19.2099 16.4442C19.2099 16.445 19.2099 16.4459 19.2099 16.4468C19.2099 16.4476 19.2099 16.4485 19.2099 16.4494C19.2099 16.4503 19.2099 16.4511 19.2099 16.452C19.2099 16.4529 19.2099 16.4538 19.2099 16.4546C19.2099 16.4555 19.2099 16.4564 19.2099 16.4572C19.2099 16.4581 19.2099 16.459 19.2099 16.4599C19.2099 16.4607 19.2099 16.4616 19.2099 16.4625C19.2099 16.4634 19.2099 16.4642 19.2099 16.4651C19.2099 16.466 19.2099 16.4668 19.2099 16.4677C19.2099 16.4686 19.2099 16.4695 19.2099 16.4703C19.2099 16.4712 19.2099 16.4721 19.2099 16.473C19.2099 16.4738 19.2099 16.4747 19.2099 16.4756C19.2099 16.4765 19.2099 16.4773 19.2099 16.4782C19.2099 16.4791 19.2099 16.48 19.2099 16.4808C19.2099 16.4817 19.2099 16.4826 19.2099 16.4835C19.2099 16.4843 19.2099 16.4852 19.2099 16.4861C19.2099 16.487 19.2099 16.4878 19.2099 16.4887C19.2099 16.4896 19.2099 16.4905 19.2099 16.4913C19.2099 16.4922 19.2099 16.4931 19.2099 16.494C19.2099 16.4948 19.2099 16.4957 19.2099 16.4966C19.2099 16.4975 19.2099 16.4983 19.2099 16.4992C19.2099 16.5001 19.2099 16.501 19.2099 16.5018C19.2099 16.5027 19.2099 16.5036 19.2099 16.5045C19.2099 16.5053 19.2099 16.5062 19.2099 16.5071C19.2099 16.508 19.2099 16.5088 19.2099 16.5097C19.2099 16.5106 19.2099 16.5115 19.2099 16.5124C19.2099 16.5132 19.2099 16.5141 19.2099 16.515C19.2099 16.5159 19.2099 16.5167 19.2099 16.5176C19.2099 16.5185 19.2099 16.5194 19.2099 16.5203C19.2099 16.5211 19.2099 16.522 19.2099 16.5229C19.2099 16.5238 19.2099 16.5246 19.2099 16.5255C19.2099 16.5264 19.2099 16.5273 19.2099 16.5282C19.2099 16.529 19.2099 16.5299 19.2099 16.5308C19.2099 16.5317 19.2099 16.5326 19.2099 16.5334C19.2099 16.5343 19.2099 16.5352 19.2099 16.5361C19.2099 16.537 19.2099 16.5378 19.2099 16.5387C19.2099 16.5396 19.2099 16.5405 19.2099 16.5414C19.2099 16.5422 19.2099 16.5431 19.2099 16.544C19.2099 16.5449 19.2099 16.5458 19.2099 16.5466C19.2099 16.5475 19.2099 16.5484 19.2099 16.5493C19.2099 16.5502 19.2099 16.551 19.2099 16.5519C19.2099 16.5528 19.2099 16.5537 19.2099 16.5546C19.2099 16.5555 19.2099 16.5563 19.2099 16.5572C19.2099 16.5581 19.2099 16.559 19.2099 16.5599C19.2099 16.5608 19.2099 16.5616 19.2099 16.5625C19.2099 16.5634 19.2099 16.5643 19.2099 16.5652C19.2099 16.5661 19.2099 16.5669 19.2099 16.5678C19.2099 16.5687 19.2099 16.5696 19.2099 16.5705C19.2099 16.5714 19.2099 16.5722 19.2099 16.5731C19.2099 16.574 19.2099 16.5749 19.2099 16.5758C19.2099 16.5767 19.2099 16.5775 19.2099 16.5784C19.2099 16.5793 19.2099 16.5802 19.2099 16.5811C19.2099 16.582 19.2099 16.5829 19.2099 16.5838C19.2099 16.5846 19.2099 16.5855 19.2099 16.5864C19.2099 16.5873 19.2099 16.5882 19.2099 16.5891C19.2099 16.59 19.2099 16.5908 19.2099 16.5917C19.2099 16.5926 19.2099 16.5935 19.2099 16.5944C19.2099 16.5953 19.2099 16.5962 19.2099 16.5971C19.2099 16.5979 19.2099 16.5988 19.2099 16.5997C19.2099 16.6006 19.2099 16.6015 19.2099 16.6024C19.2099 16.6033 19.2099 16.6042 19.2099 16.6051C19.2099 16.606 19.2099 16.6068 19.2099 16.6077C19.2099 16.6086 19.2099 16.6095 19.2099 16.6104C19.2099 16.6113 19.2099 16.6122 19.2099 16.6131C19.2099 16.614 19.2099 16.6149 19.2099 16.6157C19.2099 16.6166 19.2099 16.6175 19.2099 16.6184C19.2099 16.6193 19.2099 16.6202 19.2099 16.6211C19.2099 16.622 19.2099 16.6229 19.2099 16.6238C19.2099 16.6247 19.2099 16.6256 19.2099 16.6265C19.2099 16.6273 19.2099 16.6282 19.2099 16.6291C19.2099 16.63 19.2099 16.6309 19.2099 16.6318C19.2099 16.6327 19.2099 16.6336 19.2099 16.6345C19.2099 16.6354 19.2099 16.6363 19.2099 16.6372C19.2099 16.6381 19.2099 16.639 19.2099 16.6399C19.2099 16.6408 19.2099 16.6417 19.2099 16.6426C19.2099 16.6435 19.2099 16.6444 19.2099 16.6453C19.2099 16.6461 19.2099 16.647 19.2099 16.6479C19.2099 16.6488 19.2099 16.6497 19.2099 16.6506C19.2099 16.6515 19.2099 16.6524 19.2099 16.6533C19.2099 16.6542 19.2099 16.6551 19.2099 16.656C19.2099 16.6569 19.2099 16.6578 19.2099 16.6587C19.2099 16.6596 19.2099 16.6605 19.2099 16.6614C19.2099 16.6623 19.2099 16.6632 19.2099 16.6641C19.2099 16.665 19.2099 16.6659 19.2099 16.6668C19.2099 16.6677 19.2099 16.6686 19.2099 16.6695C19.2099 16.6704 19.2099 16.6713 19.2099 16.6722C19.2099 16.6731 19.2099 16.674 19.2099 16.6749C19.2099 16.6758 19.2099 16.6767 19.2099 16.6777C19.2099 16.6786 19.2099 16.6795 19.2099 16.6804C19.2099 16.6813 19.2099 16.6822 19.2099 16.6831C19.2099 16.684 19.2099 16.6849 19.2099 16.6858C19.2099 16.6867 19.2099 16.6876 19.2099 16.6885C19.2099 16.6894 19.2099 16.6903 19.2099 16.6912C19.2099 16.6921 19.2099 16.693 19.2099 16.6939C19.2099 16.6948 19.2099 16.6958 19.2099 16.6967C19.2099 16.6976 19.2099 16.6985 19.2099 16.6994C19.2099 16.7003 19.2099 16.7012 19.2099 16.7021C19.2099 16.703 19.2099 16.7039 19.2099 16.7048C19.2099 16.7057 19.2099 16.7067 19.2099 16.7076C19.2099 16.7085 19.2099 16.7094 19.2099 16.7103C19.2099 16.7112 19.2099 16.7121 19.2099 16.713C19.2099 16.7139 19.2099 16.7149 19.2099 16.7158C19.2099 16.7167 19.2099 16.7176 19.2099 16.7185C19.2099 16.7194 19.2099 16.7203 19.2099 16.7212C19.2099 16.7222 19.2099 16.7231 19.2099 16.724C19.2099 16.7249 19.2099 16.7258 19.2099 16.7267C19.2099 16.7276 19.2099 16.7286 19.2099 16.7295C19.2099 16.7304 19.2099 16.7313 19.2099 16.7322C19.2099 16.7331 19.2099 16.734 19.2099 16.735C19.2099 16.7359 19.2099 16.7368 19.2099 16.7377C19.2099 16.7386 19.2099 16.7395 19.2099 16.7405C19.2099 16.7414 19.2099 16.7423 19.2099 16.7432C19.2099 16.7441 19.2099 16.7451 19.2099 16.746C19.2099 16.7469 19.2099 16.7478 19.2099 16.7487C19.2099 16.7497 19.2099 16.7506 19.2099 16.7515C19.2099 16.7524 19.2099 16.7533 19.2099 16.7543C19.2099 16.7552 19.2099 16.7561 19.2099 16.757C19.2099 16.7579 19.2099 16.7589 19.2099 16.7598C19.2099 16.7607 19.2099 16.7616 19.2099 16.7626C19.2099 16.7635 19.2099 16.7644 19.2099 16.7653C19.2099 16.7663 19.2099 16.7672 19.2099 16.7681C19.2099 16.769 19.2099 16.77 19.2099 16.7709C19.2099 16.7718 19.2099 16.7727 19.2099 16.7737C19.2099 16.7746 19.2099 16.7755 19.2099 16.7764C19.2099 16.7774 19.2099 16.7783 19.2099 16.7792C19.2099 16.7802 19.2099 16.7811 19.2099 16.782C19.2099 16.7829 19.2099 16.7839 19.2099 16.7848C19.2099 16.7857 19.2099 16.7867 19.2099 16.7876C19.2099 16.7885 19.2099 16.7894 19.2099 16.7904C19.2099 16.7913 19.2099 16.7922 19.2099 16.7932C19.2099 16.7941 19.2099 16.795 19.2099 16.796C19.2099 16.7969 19.2099 16.7978 19.2099 16.7988C19.2099 16.7997 19.2099 16.8006 19.2099 16.8016C19.2099 16.8025 19.2099 16.8034 19.2099 16.8044C19.2099 16.8053 19.2099 16.8062 19.2099 16.8072C19.2099 16.8081 19.2099 16.8091 19.2099 16.81C19.2099 16.8109 19.2099 16.8119 19.2099 16.8128C19.2099 16.8137 19.2099 16.8147 19.2099 16.8156C19.2099 16.8166 19.2099 16.8175 19.2099 16.8184C19.2099 16.8194 19.2099 16.8203 19.2099 16.8212C19.2099 16.8222 19.2099 16.8231 19.2099 16.8241C19.2099 16.825 19.2099 16.826 19.2099 16.8269C19.2099 16.8278 19.2099 16.8288 19.2099 16.8297C19.2099 16.8307 19.2099 16.8316 19.2099 16.8325C19.2099 16.8335 19.2099 16.8344 19.2099 16.8354C19.2099 16.8363 19.2099 16.8373 19.2099 16.8382C19.2099 16.8392 19.2099 16.8401 19.2099 16.841C19.2099 16.842 19.2099 16.8429 19.2099 16.8439C19.2099 16.8448 19.2099 16.8458 19.2099 16.8467C19.2099 16.8477 19.2099 16.8486 19.2099 16.8496C19.2099 16.8505 19.2099 16.8515 19.2099 16.8524C19.2099 16.8534 19.2099 16.8543 19.2099 16.8553C19.2099 16.8562 19.2099 16.8572 19.2099 16.8581C19.2099 16.8591 19.2099 16.86 19.2099 16.861C19.2099 16.8619 19.2099 16.8629 19.2099 16.8638C19.2099 16.8648 19.2099 16.8657 19.2099 16.8667C19.2099 16.8676 19.2099 16.8686 19.2099 16.8696C19.2099 16.8705 19.2099 16.8715 19.2099 16.8724C19.2099 16.8734 19.2099 16.8743 19.2099 16.8753C19.2099 16.8762 19.2099 16.8772 19.2099 16.8782C19.2099 16.8791 19.2099 16.8801 19.2099 16.881C19.2099 16.882 19.2099 16.883 19.2099 16.8839C19.2099 16.8849 19.2099 16.8858 19.2099 16.8868C19.2099 16.8878 19.2099 16.8887 19.2099 16.8897C19.2099 16.8906 19.2099 16.8916 19.2099 16.8926C19.2099 16.8935 19.2099 16.8945 19.2099 16.8954C19.2099 16.8964 19.2099 16.8974 19.2099 16.8983C19.2099 16.8993 19.2099 16.9003 19.2099 16.9012C19.2099 16.9022 19.2099 16.9032 19.2099 16.9041C19.2099 16.9051 19.2099 16.9061 19.2099 16.907C19.2099 16.908 19.2099 16.909 19.2099 16.9099C19.2099 16.9109 19.2099 16.9119 19.2099 16.9128C19.2099 16.9138 19.2099 16.9148 19.2099 16.9157C19.2099 16.9167 19.2099 16.9177 19.2099 16.9187C19.2099 16.9196 19.2099 16.9206 19.2099 16.9216C19.2099 16.9225 19.2099 16.9235 19.2099 16.9245C19.2099 16.9255 19.2099 16.9264 19.2099 16.9274C19.2099 16.9284 19.2099 16.9294 19.2099 16.9303C19.2099 16.9313 19.2099 16.9323 19.2099 16.9333C19.2099 16.9342 19.2099 16.9352 19.2099 16.9362C19.2099 16.9372 19.2099 16.9381 19.2099 16.9391C19.2099 16.9401 19.2099 16.9411 19.2099 16.9421C19.2099 16.943 19.2099 16.944 19.2099 16.945C19.2099 16.946 19.2099 16.947 19.2099 16.9479C19.2099 16.9489 19.2099 16.9499 19.2099 16.9509C19.2099 16.9519 19.2099 16.9529 19.2099 16.9538C19.2099 16.9548 19.2099 16.9558 19.2099 16.9568C19.2099 16.9578 19.2099 16.9588 19.2099 16.9597C19.2099 16.9607 19.2099 16.9617 19.2099 16.9627C19.2099 16.9637 19.2099 16.9647 19.2099 16.9657C19.2099 16.9667 19.2099 16.9676 19.2099 16.9686C19.2099 16.9696 19.2099 16.9706 19.2099 16.9716C19.2099 16.9726 19.2099 16.9736 19.2099 16.9746C19.2099 16.9756 19.2099 16.9766 19.2099 16.9775C19.2099 16.9785 19.2099 16.9795 19.2099 16.9805C19.2099 16.9815 19.2099 16.9825 19.2099 16.9835C19.2099 16.9845 19.2099 16.9855 19.2099 16.9865C19.2099 16.9875 19.2099 16.9885 19.2099 16.9895C19.2099 16.9905 19.2099 16.9915 19.2099 16.9925C19.2099 16.9935 19.2099 16.9945 19.2099 16.9955C19.2099 16.9965 19.2099 16.9975 19.2099 16.9985C19.2099 16.9995 19.2099 17.0005 19.2099 17.0015C19.2099 17.0025 19.2099 17.0035 19.2099 17.0045C19.2099 17.0055 19.2099 17.0065 19.2099 17.0075C19.2099 17.0085 19.2099 17.0095 19.2099 17.0105C19.2099 17.0115 19.2099 17.0125 19.2099 17.0135C19.2099 17.0145 19.2099 17.0155 19.2099 17.0165C19.2099 17.0175 19.2099 17.0185 19.2099 17.0195C19.2099 17.0205 19.2099 17.0216 19.2099 17.0226C19.2099 17.0236 19.2099 17.0246 19.2099 17.0256C19.2099 17.0266 19.2099 17.0276 19.2099 17.0286C19.2099 17.0296 19.2099 17.0307 19.2099 17.0317C19.2099 17.0327 19.2099 17.0337 19.2099 17.0347C19.2099 17.0357 19.2099 17.0367 19.2099 17.0377C19.2099 17.0388 19.2099 17.0398 19.2099 17.0408C19.2099 17.0418 19.2099 17.0428 19.2099 17.0438C19.2099 17.0449 19.2099 17.0459 19.2099 17.0469C19.2099 17.0479 19.2099 17.0489 19.2099 17.05C19.2099 17.051 19.2099 17.052 19.2099 17.053C19.2099 17.054 19.2099 17.0551 19.2099 17.0561C19.2099 17.0571 19.2099 17.0581 19.2099 17.0592C19.2099 17.0602 19.2099 17.0612 19.2099 17.0622C19.2099 17.0633 19.2099 17.0643 19.2099 17.0653C19.2099 17.0663 19.2099 17.0674 19.2099 17.0684C19.2099 17.0694 19.2099 17.0704 19.2099 17.0715C19.2099 17.0725 19.2099 17.0735 19.2099 17.0746C19.2099 17.0756 19.2099 17.0766 19.2099 17.0776C19.2099 17.0787 19.2099 17.0797 19.2099 17.0807C19.2099 17.0818 19.2099 17.0828 19.2099 17.0838C19.2099 17.0849 19.2099 17.0859 19.2099 17.0869C19.2099 17.088 19.2099 17.089 19.2099 17.09C19.2099 17.0911 19.2099 17.0921 19.2099 17.0932C19.2099 17.0942 19.2099 17.0952 19.2099 17.0963C19.2099 17.0973 19.2099 17.0984 19.2099 17.0994C19.2099 17.1004 19.2099 17.1015 19.2099 17.1025C19.2099 17.1036 19.2099 17.1046 19.2099 17.1056C19.2099 17.1067 19.2099 17.1077 19.2099 17.1088C19.2099 17.1098 19.2099 17.1109 19.2099 17.1119C19.2099 17.1129 19.2099 17.114 19.2099 17.115C19.2099 17.1161 19.2099 17.1171 19.2099 17.1182C19.2099 17.1192 19.2099 17.1203 19.2099 17.1213C19.2099 17.1224 19.2099 17.1234 19.2099 17.1245C19.2099 17.1255 19.2099 17.1266 19.2099 17.1276C19.2099 17.1287 19.2099 17.1297 19.2099 17.1308C19.2099 17.1318 19.2099 17.1329 19.2099 17.1339C19.2099 17.135 19.2099 17.1361 19.2099 17.1371C19.2099 17.1382 19.2099 17.1392 19.2099 17.1403C19.2099 17.1413 19.2099 17.1424 19.2099 17.1435C19.2099 17.1445 19.2099 17.1456 19.2099 17.1466C19.2099 17.1477 19.2099 17.1488 19.2099 17.1498C19.2099 17.1509 19.2099 17.1519 19.2099 17.153C19.2099 17.1541 19.2099 17.1551 19.2099 17.1562C19.2099 17.1573 19.2099 17.1583 19.2099 17.1594C19.2099 17.1605 19.2099 17.1615 19.2099 17.1626C19.2099 17.1637 19.2099 17.1647 19.2099 17.1658C19.2099 17.1669 19.2099 17.1679 19.2099 17.169C19.2099 17.1701 19.2099 17.1711 19.2099 17.1722C19.2099 17.1733 19.2099 17.1744 19.2099 17.1754C19.2099 17.1765 19.2099 17.1776 19.2099 17.1786C19.2099 17.1797 19.2099 17.1808 19.2099 17.1819C19.2099 17.1829 19.2099 17.184 19.2099 17.1851C19.2099 17.1862 19.2099 17.1873 19.2099 17.1883C19.2099 17.1894 19.2099 17.1905 19.2099 17.1916C19.2099 17.1926 19.2099 17.1937 19.2099 17.1948C19.2099 17.1959 19.2099 17.197 19.2099 17.1981C19.2099 17.1991 19.2099 17.2002 19.2099 17.2013C19.2099 17.2024 19.2099 17.2035 19.2099 17.2046C19.2099 17.2056 19.2099 17.2067 19.2099 17.2078C19.2099 17.2089 19.2099 17.21 19.2099 17.2111C19.2099 17.2122 19.2099 17.2133 19.2099 17.2144C19.2099 17.2154 19.2099 17.2165 19.2099 17.2176C19.2099 17.2187 19.2099 17.2198 19.2099 17.2209C19.2099 17.222 19.2099 17.2231 19.2099 17.2242C19.2099 17.2253 19.2099 17.2264 19.2099 17.2275C19.2099 17.2286 19.2099 17.2297 19.2099 17.2308C19.2099 17.2319 19.2099 17.233 19.2099 17.234C19.2099 17.2351 19.2099 17.2362 19.2099 17.2373C19.2099 17.2384 19.2099 17.2395 19.2099 17.2407C19.2099 17.2418 19.2099 17.2429 19.2099 17.244C19.2099 17.2451 19.2099 17.2462 19.2099 17.2473C19.2099 17.2484 19.2099 17.2495 19.2099 17.2506C19.2099 17.2517 19.2099 17.2528 19.2099 17.2539C19.2099 17.255 19.2099 17.2561 19.2099 17.2572C19.2099 17.2583 19.2099 17.2595 19.2099 17.2606C19.2099 17.2617 19.2099 17.2628 19.2099 17.2639C19.2099 17.265 19.2099 17.2661 19.2099 17.2672C19.2099 17.2684 19.2099 17.2695 19.2099 17.2706C19.2099 17.2717 19.2099 17.2728 19.2099 17.2739C19.2099 17.2751 19.2099 17.2762 19.2099 17.2773C19.2099 17.2784 19.2099 17.2795 19.2099 17.2807C19.2099 17.2818 19.2099 17.2829 19.2099 17.284C19.2099 17.2851 19.2099 17.2863 19.2099 17.2874C19.2099 17.2885 19.2099 17.2896 19.2099 17.2908C19.2099 17.2919 19.2099 17.293 19.2099 17.2941C19.2099 17.2953 19.2099 17.2964 19.2099 17.2975C19.2099 17.2986 19.2099 17.2998 19.2099 17.3009C19.2099 17.302 19.2099 17.3032 19.2099 17.3043C19.2099 17.3054 19.2099 17.3066 19.2099 17.3077C19.2099 17.3088 19.2099 17.31 19.2099 17.3111C19.2099 17.3122 19.2099 17.3134 19.2099 17.3145C19.2099 17.3156 19.2099 17.3168 19.2099 17.3179C19.2099 17.3191 19.2099 17.3202 19.2099 17.3213C19.2099 17.3225 19.2099 17.3236 19.2099 17.3248C19.2099 17.3259 19.2099 17.327 19.2099 17.3282C19.2099 17.3293 19.2099 17.3305 19.2099 17.3316C19.2099 17.3328 19.2099 17.3339 19.2099 17.335C19.2099 17.3362 19.2099 17.3373 19.2099 17.3385C19.2099 17.3396 19.2099 17.3408 19.2099 17.3419C19.2099 17.3431 19.2099 17.3442 19.2099 17.3454C19.2099 17.3465 19.2099 17.3477 19.2099 17.3488C19.2099 17.35 19.2099 17.3512 19.2099 17.3523C19.2099 17.3535 19.2099 17.3546 19.2099 17.3558C19.2099 17.3569 19.2099 17.3581 19.2099 17.3592C19.2099 17.3604 19.2099 17.3616 19.2099 17.3627C19.2099 17.3639 19.2099 17.365 19.2099 17.3662C19.2099 17.3674 19.2099 17.3685 19.2099 17.3697C19.2099 17.3709 19.2099 17.372 19.2099 17.3732C19.2099 17.3743 19.2099 17.3755 19.2099 17.3767C19.2099 17.3778 19.2099 17.379 19.2099 17.3802C19.2099 17.3813 19.2099 17.3825 19.2099 17.3837C19.2099 17.3849 19.2099 17.386 19.2099 17.3872C19.2099 17.3884 19.2099 17.3895 19.2099 17.3907C19.2099 17.3919 19.2099 17.3931 19.2099 17.3942C19.2099 17.3954 19.2099 17.3966 19.2099 17.3978C19.2099 17.3989 19.2099 17.4001 19.2099 17.4013C19.2099 17.4025 19.2099 17.4037 19.2099 17.4048C19.2099 17.406 19.2099 17.4072 19.2099 17.4084C19.2099 17.4096 19.2099 17.4107 19.2099 17.4119C19.2099 17.4131 19.2099 17.4143 19.2099 17.4155C19.2099 17.4167 19.2099 17.4179 19.2099 17.419C19.2099 17.4202 19.2099 17.4214 19.2099 17.4226C19.2099 17.4238 19.2099 17.425 19.2099 17.4262C19.2099 17.4274 19.2099 17.4286 19.2099 17.4298C19.2099 17.4309 19.2099 17.4321 19.2099 17.4333C19.2099 17.4345 19.2099 17.4357 19.2099 17.4369C19.2099 17.4381 19.2099 17.4393 19.2099 17.4405C19.2099 17.4417 19.2099 17.4429 19.2099 17.4441C19.2099 17.4453 19.2099 17.4465 19.2099 17.4477C19.2099 17.4489 19.2099 17.4501 19.2099 17.4513C19.2099 17.4525 19.2099 17.4537 19.2099 17.4549C19.2099 17.4561 19.2099 17.4573 19.2099 17.4586C19.2099 17.4598 19.2099 17.461 19.2099 17.4622C19.2099 17.4634 19.2099 17.4646 19.2099 17.4658C19.2099 17.467 19.2099 17.4682 19.2099 17.4694C19.2099 17.4707 19.2099 17.4719 19.2099 17.4731C19.2099 17.4743 19.2099 17.4755 19.2099 17.4767C19.2099 17.4779 19.2099 17.4792 19.2099 17.4804C19.2099 17.4816 19.2099 17.4828 19.2099 17.484C19.2099 17.4853 19.2099 17.4865 19.2099 17.4877C19.2099 17.4889 19.2099 17.4902 19.2099 17.4914C19.2099 17.4926 19.2099 17.4938 19.2099 17.495C19.2099 17.4963 19.2099 17.4975 19.2099 17.4987C19.2099 17.5 19.2099 17.5012 19.2099 17.5024C19.2099 17.5036 19.2099 17.5049 19.2099 17.5061C19.2099 17.5073 19.2099 17.5086 19.2099 17.5098C19.2099 17.511 19.2099 17.5123 19.2099 17.5135C19.2099 17.5147 19.2099 17.516 19.2099 17.5172C19.2099 17.5185 19.2099 17.5197 19.2099 17.5209C19.2099 17.5222 19.2099 17.5234 19.2099 17.5246C19.2099 17.5259 19.2099 17.5271 19.2099 17.5284C19.2099 17.5296 19.2099 17.5309 19.2099 17.5321C19.2099 17.5333 19.2099 17.5346 19.2099 17.5358C19.2099 17.5371 19.2099 17.5383 19.2099 17.5396C19.2099 17.5408 19.2099 17.5421 19.2099 17.5433C19.2099 17.5446 19.2099 17.5458 19.2099 17.5471C19.2099 17.5483 19.2099 17.5496 19.2099 17.5508C19.2099 17.5521 19.2099 17.5534 19.2099 17.5546C19.2099 17.5559 19.2099 17.5571 19.2099 17.5584C19.2099 17.5596 19.2099 17.5609 19.2099 17.5622C19.2099 17.5634 19.2099 17.5647 19.2099 17.5659C19.2099 17.5672 19.2099 17.5685 19.2099 17.5697C19.2099 17.571 19.2099 17.5723 19.2099 17.5735C19.2099 17.5748 19.2099 17.5761 19.2099 17.5773C19.2099 17.5786 19.2099 17.5799 19.2099 17.5811C19.2099 17.5824 19.2099 17.5837 19.2099 17.585C19.2099 17.5862 19.2099 17.5875 19.2099 17.5888C19.2099 17.5901 19.2099 17.5913 19.2099 17.5926C19.2099 17.5939 19.2099 17.5952 19.2099 17.5964C19.2099 17.5977 19.2099 17.599 19.2099 17.6003C19.2099 17.6016 19.2099 17.6028 19.2099 17.6041C19.2099 17.6054 19.2099 17.6067 19.2099 17.608C19.2099 17.6093 19.2099 17.6105 19.2099 17.6118C19.2099 17.6131 19.2099 17.6144 19.2099 17.6157C19.2099 17.617 19.2099 17.6183 19.2099 17.6196C19.2099 17.6208 19.2099 17.6221 19.2099 17.6234C19.2099 17.6247 19.2099 17.626 19.2099 17.6273C19.2099 17.6286 19.2099 17.6299 19.2099 17.6312C19.2099 17.6325 19.2099 17.6338 19.2099 17.6351C19.2099 17.6364 19.2099 17.6377 19.2099 17.639C19.2099 17.6403 19.2099 17.6416 19.2099 17.6429C19.2099 17.6442 19.2099 17.6455 19.2099 17.6468C19.2099 17.6481 19.2099 17.6494 19.2099 17.6507C19.2099 17.652 19.2099 17.6533 19.2099 17.6546C19.2099 17.656 19.2099 17.6573 19.2099 17.6586C19.2099 17.6599 19.2099 17.6612 19.2099 17.6625C19.2099 17.6638 19.2099 17.6651 19.2099 17.6665C19.2099 17.6678 19.2099 17.6691 19.2099 17.6704C19.2099 17.6717 19.2099 17.673 19.2099 17.6744C19.2099 17.6757 19.2099 17.677 19.2099 17.6783C19.2099 17.6796 19.2099 17.681 19.2099 17.6823C19.2099 17.6836 19.2099 17.6849 19.2099 17.6863C19.2099 17.6876 19.2099 17.6889 19.2099 17.6902C19.2099 17.6916 19.2099 17.6929 19.2099 17.6942C19.2099 17.6956 19.2099 17.6969 19.2099 17.6982C19.2099 17.6996 19.2099 17.7009 19.2099 17.7022C19.2099 17.7036 19.2099 17.7049 19.2099 17.7062C19.2099 17.7076 19.2099 17.7089 19.2099 17.7102C19.2099 17.7116 19.2099 17.7129 19.2099 17.7143C19.2099 17.7156 19.2099 17.7169 19.2099 17.7183C19.2099 17.7196 19.2099 17.721 19.2099 17.7223C19.2099 17.7237 19.2099 17.725 19.2099 17.7264C19.2099 17.7277 19.2099 17.7291 19.2099 17.7304C19.2099 17.7317 19.2099 17.7331 19.2099 17.7345C19.2099 17.7358 19.2099 17.7372 19.2099 17.7385C19.2099 17.7399 19.2099 17.7412 19.2099 17.7426C19.2099 17.7439 19.2099 17.7453 19.2099 17.7466H19.7099ZM19.4385 16.4419C19.9114 16.4825 20.3842 16.3978 20.7949 16.1401L20.5292 15.7166C20.227 15.9062 19.8672 15.9769 19.4813 15.9437L19.4385 16.4419ZM20.7949 16.1401C21.6236 15.6203 21.9935 14.5689 21.9935 13.1413H21.4935C21.4935 14.512 21.1358 15.3361 20.5292 15.7166L20.7949 16.1401ZM21.9935 13.1413C21.9935 11.7164 21.6244 10.6686 20.7954 10.1563L20.5326 10.5816C21.1363 10.9547 21.4935 11.7724 21.4935 13.1413H21.9935ZM4.49713 14.7973C4.33753 14.8251 4.18519 14.8169 4.07752 14.7494L3.81179 15.1729C4.07513 15.3381 4.37816 15.3255 4.58287 15.2899L4.49713 14.7973ZM4.0775 14.7493C3.97526 14.6852 3.86351 14.536 3.7787 14.2536C3.69549 13.9765 3.64817 13.603 3.64817 13.1413H3.14817C3.14817 13.632 3.1979 14.0579 3.29982 14.3974C3.40015 14.7315 3.56164 15.016 3.81181 15.1729L4.0775 14.7493ZM3.64817 13.1413C3.64817 12.6839 3.69444 12.3143 3.77576 12.0406C3.85876 11.7611 3.96775 11.6156 4.06545 11.5542L3.79934 11.1309C3.55256 11.286 3.39444 11.5683 3.29645 11.8982C3.19677 12.2338 3.14817 12.6553 3.14817 13.1413H3.64817ZM4.06546 11.5542C4.16951 11.4888 4.32449 11.4829 4.49159 11.5159L4.58841 11.0254C4.38221 10.9847 4.06783 10.9621 3.79933 11.1309L4.06546 11.5542ZM4.29 11.2706V15.0436H4.79V11.2706H4.29ZM6.57366 10.2867V16.0339H7.07366V10.2867H6.57366ZM6.82366 15.7839H5.68183V16.2839H6.82366V15.7839ZM5.93183 16.0339V10.2867H5.43183V16.0339H5.93183ZM5.68183 10.5367H6.82366V10.0367H5.68183V10.5367ZM13.1418 20.3512H11.9999V20.8512H13.1418V20.3512ZM11.9999 20.3512C11.8232 20.3512 11.679 20.207 11.679 20.0303H11.179C11.179 20.4832 11.5471 20.8512 11.9999 20.8512V20.3512ZM11.679 20.0303C11.679 19.8536 11.8232 19.7094 11.9999 19.7094V19.2094C11.5471 19.2094 11.179 19.5774 11.179 20.0303H11.679ZM11.9999 19.7094H13.1418V19.2094H11.9999V19.7094ZM13.1418 19.7094C13.3185 19.7094 13.4627 19.8536 13.4627 20.0303H13.9627C13.9627 19.5774 13.5946 19.2094 13.1418 19.2094V19.7094ZM13.4627 20.0303C13.4627 20.207 13.3185 20.3512 13.1418 20.3512V20.8512C13.5946 20.8512 13.9627 20.4832 13.9627 20.0303H13.4627ZM18.318 15.7839H17.1762V16.2839H18.318V15.7839ZM17.4262 16.0339V10.2867H16.9262V16.0339H17.4262ZM17.1762 10.5367H18.318V10.0367H17.1762V10.5367ZM18.068 10.2867V16.0339H18.568V10.2867H18.068ZM19.9248 14.7479C19.8192 14.8153 19.6658 14.824 19.5026 14.7957L19.4172 15.2884C19.6233 15.3241 19.9304 15.3375 20.1938 15.1693L19.9248 14.7479ZM19.7099 15.0421V11.2707H19.2099V15.0421H19.7099ZM19.5083 11.5159C19.6754 11.4829 19.8303 11.4888 19.9344 11.5543L20.2005 11.1309C19.932 10.9621 19.6177 10.9847 19.4115 11.0254L19.5083 11.5159ZM19.9344 11.5543C20.0321 11.6157 20.1411 11.7611 20.2241 12.0406C20.3054 12.3143 20.3517 12.6839 20.3517 13.1413H20.8517C20.8517 12.6553 20.8031 12.2338 20.7034 11.8982C20.6054 11.5683 20.4473 11.2861 20.2005 11.1309L19.9344 11.5543ZM20.3517 13.1413C20.3517 13.6011 20.3047 13.9735 20.2221 14.2504C20.1379 14.5326 20.0267 14.6828 19.9248 14.7479L20.1938 15.1693C20.4416 15.0111 20.6017 14.7269 20.7012 14.3934C20.8023 14.0546 20.8517 13.6301 20.8517 13.1413H20.3517Z" fill="white"/>
</svg>
