<svg width="24" height="24" viewBox="0 0 24 24" fill="none" xmlns="http://www.w3.org/2000/svg">
<path d="M20.8325 8.57143L12.6256 2.17734C12.3202 1.94089 11.8571 1.94089 11.5517 2.17734L3.33498 8.57143C3.12808 8.73892 3 8.99507 3 9.26108V19.3005C3 20.0197 3.27586 20.6995 3.78818 21.2118C4.30049 21.7241 4.9803 22 5.69951 22H18.4778C19.1872 22 19.8867 21.7143 20.3793 21.2118C20.8916 20.6995 21.1675 20.0296 21.1675 19.3005V9.26108C21.1773 8.99507 21.0493 8.72906 20.8325 8.57143ZM13.9557 12.867V20.2562H10.2217V12.867H13.9557ZM14.8227 11.1232H9.34483C8.86207 11.1232 8.47783 11.5172 8.47783 11.9901V20.2463H5.69951C5.4532 20.2463 5.2069 20.1478 5.02956 19.9704C4.85222 19.7833 4.74384 19.5468 4.74384 19.2906V9.68473L12.0936 3.97044L19.4335 9.68473V19.3005C19.4335 19.5567 19.335 19.7931 19.1576 19.9803C18.9803 20.1576 18.734 20.2562 18.4877 20.2562H15.7094V12C15.6995 11.5172 15.3054 11.1232 14.8227 11.1232Z" fill="#1E253A"/>
</svg>
