<svg width="32" height="32" viewBox="0 0 32 32" fill="none" xmlns="http://www.w3.org/2000/svg">
<path fill-rule="evenodd" clip-rule="evenodd" d="M4.68695 5.33398C4.13814 5.33398 3.65769 5.53932 3.26489 5.93212C2.87208 6.32493 2.66675 6.80538 2.66675 7.35419V25.94C2.66675 26.4889 2.87208 26.9693 3.26489 27.3621C3.65769 27.7549 4.13814 27.9602 4.68695 27.9602H27.3132C27.862 27.9602 28.3425 27.7549 28.7353 27.3621C29.1281 26.9693 29.3334 26.4889 29.3334 25.94V7.35419C29.3334 6.99714 29.2433 6.65928 29.0663 6.34691C28.8871 6.03076 28.6366 5.7803 28.3205 5.60115C28.0081 5.42414 27.6703 5.33398 27.3132 5.33398H4.68695ZM5.09099 17.965V7.75823H26.9092V21.1583L22.845 16.9861L22.8342 16.9764C22.6207 16.7867 22.3672 16.6733 22.0831 16.6486C21.7744 16.6218 21.4923 16.7204 21.2525 16.9122L18.468 19.3285L12.0811 12.99C11.8618 12.7308 11.5714 12.5816 11.2309 12.5572C10.8784 12.5321 10.5628 12.6506 10.3127 12.8995L5.09099 17.965ZM21.6566 10.1825C21.1078 10.1825 20.6274 10.3878 20.2346 10.7806C19.8401 11.1751 19.6364 11.6603 19.6364 12.2153C19.6364 12.7705 19.8405 13.2537 20.2384 13.6411C20.632 14.0244 21.1113 14.2229 21.6566 14.2229C22.0137 14.2229 22.3516 14.1327 22.6639 13.9557C22.9767 13.7785 23.2267 13.5348 23.4067 13.2277C23.5887 12.9172 23.6768 12.5723 23.6768 12.2027C23.6768 11.6539 23.4715 11.1734 23.0787 10.7806C22.6859 10.3878 22.2055 10.1825 21.6566 10.1825ZM5.09099 25.536V21.3637L11.1729 15.4711L17.5691 21.8432C17.7805 22.0963 18.0687 22.2283 18.4026 22.215C18.6998 22.2031 18.9736 22.1007 19.2175 21.9234L19.2351 21.9106L21.916 19.4818L26.9092 24.6414V25.536H5.09099Z" fill="white"/>
</svg>
