<svg width="38" height="42" viewBox="0 0 38 42" fill="none" xmlns="http://www.w3.org/2000/svg">
<path d="M29.7862 0.00480983C30.1457 0.055094 30.4095 0.381499 30.4095 0.758377V4.57627C30.4095 4.77723 30.5773 4.95296 30.769 4.95296H31.4163C31.6081 4.95296 31.7758 4.77705 31.7758 4.57627L31.7759 0.78345C31.7759 0.40676 32.0396 0.0551344 32.3992 0.0298824C32.8067 -0.0204018 33.1664 0.331238 33.1664 0.758198V4.62619C33.1664 4.82715 33.3342 5.00288 33.5259 5.00288L34.1492 5.00323C34.341 5.00323 34.5087 4.82732 34.5087 4.62654V0.758369C34.5087 0.381679 34.7724 0.0300534 35.132 0.0048014C35.5395 -0.0454828 35.8992 0.306157 35.8992 0.733117V6.1836C35.8992 7.21346 35.4198 8.19304 34.6048 8.79572C34.0774 9.19764 33.7657 9.82558 33.7898 10.5036L34.1014 23.1628C34.1254 24.1173 30.7933 24.1173 30.8173 23.1628L31.129 10.5036C31.1529 9.8254 30.8414 9.17239 30.314 8.79572C29.499 8.19286 29.0196 7.23848 29.0196 6.1836L29.0193 0.733117C29.0193 0.306143 29.3788 -0.0454783 29.7863 0.0048014L29.7862 0.00480983Z" fill="#FFC339"/>
<path d="M24.4518 0C26.3456 0 27.8799 1.60652 27.8799 3.58947V5.87378C27.8799 6.903 27.4005 7.88198 26.5854 8.48428C26.058 8.88595 25.7463 9.5135 25.7704 10.1911L26.0821 23.1186C26.106 24.0725 22.7737 24.0725 22.7978 23.1186L23.1095 10.1911C23.1334 9.51333 22.8219 8.86072 22.2944 8.48428C21.4794 7.8818 21 6.92802 21 5.87378V3.58947C21.0237 1.60652 22.558 0 24.4518 0Z" fill="#FFC339"/>
<rect x="4" y="12.0508" width="34" height="26.0854" rx="2.73374" fill="url(#paint0_linear_1560_9045)"/>
<circle cx="7.63636" cy="34.0036" r="7.63636" fill="#FFC339"/>
<path d="M10.9093 34.5492H8.182V37.2765C8.182 37.4211 8.12453 37.5599 8.02224 37.6622C7.91994 37.7644 7.7812 37.8219 7.63654 37.8219C7.49188 37.8219 7.35314 37.7644 7.25085 37.6622C7.14855 37.5599 7.09109 37.4211 7.09109 37.2765V34.5492H4.36381C4.21915 34.5492 4.08041 34.4917 3.97812 34.3894C3.87583 34.2871 3.81836 34.1484 3.81836 34.0037C3.81836 33.8591 3.87583 33.7203 3.97812 33.618C4.08041 33.5157 4.21915 33.4583 4.36381 33.4583H7.09109V30.731C7.09109 30.5863 7.14855 30.4476 7.25085 30.3453C7.35314 30.243 7.49188 30.1855 7.63654 30.1855C7.7812 30.1855 7.91994 30.243 8.02224 30.3453C8.12453 30.4476 8.182 30.5863 8.182 30.731V33.4583H10.9093C11.0539 33.4583 11.1927 33.5157 11.295 33.618C11.3973 33.7203 11.4547 33.8591 11.4547 34.0037C11.4547 34.1484 11.3973 34.2871 11.295 34.3894C11.1927 34.4917 11.0539 34.5492 10.9093 34.5492Z" fill="white"/>
<rect x="4" y="16.6406" width="34" height="3" fill="white"/>
<defs>
<linearGradient id="paint0_linear_1560_9045" x1="9.09198" y1="15.4972" x2="44.9925" y2="39.5694" gradientUnits="userSpaceOnUse">
<stop stop-color="#FF4D4D"/>
<stop offset="0.843" stop-color="#DA2F47"/>
</linearGradient>
</defs>
</svg>
