<svg width="80" height="80" viewBox="0 0 80 80" fill="none" xmlns="http://www.w3.org/2000/svg">
    <path fill-rule="evenodd" clip-rule="evenodd" d="M14.9061 69.1264H64.7144C66.0772 69.1264 67.1817 68.0222 67.1817 66.6596V32.7575V32.474C67.1817 31.2172 66.606 30.0301 65.6193 29.2518L42.3533 10.8962C40.8618 9.71999 38.7586 9.71999 37.2671 10.8962L14.0011 29.2518C13.8778 29.3491 13.7609 29.4528 13.6507 29.5622C12.8795 30.328 12.4387 31.3743 12.4387 32.474V32.7586V66.6596C12.4387 68.0222 13.5432 69.1264 14.9061 69.1264Z" fill="#FF5454"/>
    <path fill-rule="evenodd" clip-rule="evenodd" d="M18.5019 29.8808H61.8916C63.1563 29.8808 64.1823 30.9066 64.1823 32.171V32.7738C64.1823 32.7694 64.1823 32.7649 64.1823 32.7605V58.3155C64.1823 59.5799 63.1563 60.6057 61.8916 60.6057H18.5019C17.236 60.6057 16.2111 59.5799 16.2111 58.3155V32.1757C16.2111 32.1672 16.2112 32.1587 16.2113 32.1503C16.2224 30.8954 17.243 29.8808 18.5019 29.8808Z" fill="white"/>
    <g opacity="0.3">
        <path opacity="0.3" d="M59.778 52.3819H20.8433C20.6078 52.3819 20.417 52.1911 20.417 51.9556V49.9292C20.417 49.6938 20.6078 49.503 20.8433 49.503H59.778C60.0135 49.503 60.2043 49.6938 60.2043 49.9292V51.9556C60.2043 52.1911 60.0135 52.3819 59.778 52.3819Z" fill="#848484"/>
        <path opacity="0.3" d="M33.4855 35.7889H21.1041C20.7246 35.7889 20.4172 35.4815 20.4172 35.1022V33.5957C20.4172 33.2163 20.7246 32.9089 21.1041 32.9089H33.4855C33.865 32.9089 34.1724 33.2163 34.1724 33.5957V35.1022C34.1724 35.4815 33.865 35.7889 33.4855 35.7889Z" fill="#848484"/>
        <path opacity="0.3" d="M59.5173 57.5869H47.1358C46.7564 57.5869 46.4489 57.2795 46.4489 56.9001V55.3937C46.4489 55.0143 46.7564 54.7069 47.1358 54.7069H59.5173C59.8967 54.7069 60.2041 55.0143 60.2041 55.3937V56.9001C60.2041 57.2795 59.8967 57.5869 59.5173 57.5869Z" fill="#848484"/>
        <path opacity="0.3" d="M59.778 41.32H20.8433C20.6078 41.32 20.417 41.1292 20.417 40.8937V38.8673C20.417 38.6319 20.6078 38.4411 20.8433 38.4411H59.778C60.0135 38.4411 60.2043 38.6319 60.2043 38.8673V40.8937C60.2043 41.1292 60.0135 41.32 59.778 41.32Z" fill="#848484"/>
        <path opacity="0.3" d="M59.778 46.851H20.8433C20.6078 46.851 20.417 46.6602 20.417 46.4248V44.3983C20.417 44.1629 20.6078 43.9721 20.8433 43.9721H59.778C60.0135 43.9721 60.2043 44.1629 60.2043 44.3983V46.4248C60.2043 46.6602 60.0135 46.851 59.778 46.851Z" fill="#848484"/>
    </g>
    <path opacity="0.2" d="M67.1818 32.1559V65.8652C67.1818 67.2267 66.0773 68.332 64.7155 68.332H14.905C13.5432 68.3309 12.4388 67.2267 12.4388 65.8652V32.1559C12.4388 32.108 12.4409 32.0622 12.4431 32.0153C12.4998 33.5272 13.2892 34.9225 14.567 35.7499L37.6847 48.9288C38.9789 49.7649 40.6449 49.7649 41.9391 48.9288L65.0568 35.7499C66.3324 34.9225 67.1207 33.5272 67.1785 32.0153C67.1796 32.0622 67.1818 32.108 67.1818 32.1559Z" fill="white"/>
    <path fill-rule="evenodd" clip-rule="evenodd" d="M67.1805 32.8801C67.1815 32.9036 67.1823 32.927 67.1828 32.9506V33.2918C67.1828 33.271 67.1824 33.2504 67.1818 33.2298V66.6598C67.1818 68.0213 66.0773 69.1267 64.7155 69.1267H14.905C13.5432 69.1267 12.4388 68.0224 12.4388 66.6609V33.2918V32.9506C12.4388 32.9037 12.4409 32.8589 12.443 32.8131L12.4431 32.81C12.4998 34.3219 13.2892 35.7172 14.567 36.5446L37.6847 49.7235C38.338 50.1455 39.086 50.3545 39.833 50.3505C40.5657 50.3463 41.2974 50.1373 41.938 49.7235L65.0557 36.5446C66.3313 35.7172 67.1207 34.3219 67.1774 32.81L67.1779 32.8219C67.1779 32.8222 67.178 32.8225 67.178 32.8228C67.1782 32.8185 67.1783 32.8143 67.1785 32.81C67.1789 32.8265 67.1794 32.8427 67.1799 32.8589C67.1801 32.866 67.1803 32.873 67.1805 32.8801Z" fill="url(#paint0_linear_353_8456)"/>
    <path fill-rule="evenodd" clip-rule="evenodd" d="M41.9369 47.2947L65.0546 62.2689C65.2204 62.3763 65.3781 62.4932 65.5269 62.6188C66.569 63.4977 67.1818 64.7981 67.1818 66.1811V66.6357V66.6597C67.1818 68.0223 66.0773 69.1265 64.7144 69.1265H14.9061C13.5432 69.1265 12.4388 68.0223 12.4388 66.6597V66.6357V66.1812C12.4388 66.1812 12.4388 66.1812 12.4388 66.1811C12.4388 65.9306 12.4589 65.6828 12.4981 65.4398C12.706 64.1492 13.4503 62.9917 14.5659 62.2689L37.6836 47.2947C38.9767 46.4564 40.6427 46.4564 41.9369 47.2947Z" fill="#D2393E"/>
    <circle cx="64.3843" cy="14.8983" r="8.29825" fill="#FFC339"/>
    <path fill-rule="evenodd" clip-rule="evenodd" d="M65.5698 14.8984C65.5698 15.5548 65.0408 16.0838 64.3843 16.0838C63.7278 16.0838 63.1988 15.5548 63.1988 14.8984C63.1988 14.2419 63.7278 13.7129 64.3843 13.7129C65.0408 13.7129 65.5698 14.2419 65.5698 14.8984ZM61.4207 14.8984C61.4207 15.5549 60.8917 16.0839 60.2352 16.0839C59.5787 16.0839 59.0498 15.5549 59.0498 14.8984C59.0498 14.2419 59.5787 13.713 60.2352 13.713C60.8917 13.713 61.4207 14.2419 61.4207 14.8984ZM68.5335 16.0838C69.19 16.0838 69.719 15.5548 69.719 14.8984C69.719 14.2419 69.19 13.7129 68.5335 13.7129C67.877 13.7129 67.348 14.2419 67.348 14.8984C67.348 15.5548 67.877 16.0838 68.5335 16.0838Z" fill="white"/>
    <defs>
        <linearGradient id="paint0_linear_353_8456" x1="39.8108" y1="69.0954" x2="51.2467" y2="42.8033" gradientUnits="userSpaceOnUse">
            <stop stop-color="#DA2F47"/>
            <stop offset="1" stop-color="#FF4D4D"/>
        </linearGradient>
    </defs>
</svg>
