<svg width="228" height="114" viewBox="0 0 228 114" fill="none" xmlns="http://www.w3.org/2000/svg">
<mask id="path-1-inside-1_391_3977" fill="white">
<path d="M63.6562 92.3455C63.6562 80.4618 73.2899 70.8281 85.1736 70.8281H142.553C154.437 70.8281 164.07 80.4618 164.07 92.3455C164.07 104.229 154.437 113.863 142.553 113.863H85.1736C73.2899 113.863 63.6562 104.229 63.6562 92.3455Z"/>
</mask>
<path d="M85.1736 72.9498H142.553V68.7064H85.1736V72.9498ZM142.553 111.741H85.1736V115.984H142.553V111.741ZM85.1736 111.741C74.4617 111.741 65.778 103.057 65.778 92.3455H61.5345C61.5345 105.401 72.1181 115.984 85.1736 115.984V111.741ZM161.949 92.3455C161.949 103.057 153.265 111.741 142.553 111.741V115.984C155.609 115.984 166.192 105.401 166.192 92.3455H161.949ZM142.553 72.9498C153.265 72.9498 161.949 81.6335 161.949 92.3455H166.192C166.192 79.29 155.609 68.7064 142.553 68.7064V72.9498ZM85.1736 68.7064C72.1181 68.7064 61.5345 79.29 61.5345 92.3455H65.778C65.778 81.6335 74.4617 72.9498 85.1736 72.9498V68.7064Z" fill="white" mask="url(#path-1-inside-1_391_3977)"/>
<path fill-rule="evenodd" clip-rule="evenodd" d="M120.31 81.5879H136.916C138.874 81.5879 140.461 83.1751 140.461 85.1329C140.461 86.1375 140.035 87.0949 139.288 87.7672L127.946 97.982H140.461V103.105H123.85C121.895 103.105 120.31 101.52 120.31 99.5649C120.31 98.5577 120.739 97.5982 121.489 96.9266L132.905 86.7111H120.31V81.5879Z" fill="white"/>
<path fill-rule="evenodd" clip-rule="evenodd" d="M116.723 88.7834C115.964 89.2038 115.091 89.4432 114.161 89.4432C113.232 89.4432 112.359 89.2038 111.6 88.7832L111.6 103.106H116.723L116.723 88.7834Z" fill="white"/>
<circle cx="114.162" cy="84.1495" r="2.56159" fill="white"/>
<path fill-rule="evenodd" clip-rule="evenodd" d="M92.9865 86.7111V89.785H98.7927V89.7837C98.9892 89.7837 99.1838 89.744 99.3653 89.6668C99.5469 89.5897 99.7118 89.4765 99.8508 89.3339C99.9898 89.1913 100.1 89.022 100.175 88.8357C100.25 88.6494 100.289 88.4497 100.289 88.248C100.289 88.0464 100.25 87.8466 100.175 87.6603C100.1 87.474 99.9898 87.3047 99.8508 87.1621C99.7118 87.0195 99.5469 86.9064 99.3653 86.8292C99.1838 86.752 98.9892 86.7123 98.7927 86.7123V86.7111H92.9865ZM104.823 90.709C105.292 90.9934 105.726 91.3382 106.114 91.7357C106.716 92.3541 107.194 93.0883 107.52 93.8964C107.847 94.7044 108.014 95.5705 108.014 96.4451C108.014 97.3197 107.847 98.1858 107.52 98.9938C107.194 99.8019 106.716 100.536 106.114 101.155C105.511 101.773 104.796 102.264 104.008 102.598C103.221 102.933 102.377 103.105 101.525 103.105H92.9865H87.8633V81.5879H92.9865H98.7927C99.6449 81.5879 100.489 81.7602 101.276 82.0949C102.063 82.4296 102.779 82.9202 103.381 83.5386C103.984 84.157 104.462 84.8912 104.788 85.6993C105.114 86.5073 105.282 87.3734 105.282 88.248C105.282 89.0911 105.126 89.9262 104.823 90.709ZM98.7927 94.9081H92.9865V97.982H101.525V97.9808C101.722 97.9808 101.916 97.9411 102.098 97.8639C102.279 97.7867 102.444 97.6736 102.583 97.531C102.722 97.3884 102.832 97.2191 102.908 97.0328C102.983 96.8465 103.021 96.6468 103.021 96.4451C103.021 96.2434 102.983 96.0437 102.908 95.8574C102.832 95.6711 102.722 95.5018 102.583 95.3592C102.444 95.2166 102.279 95.1035 102.098 95.0263C101.916 94.9491 101.722 94.9094 101.525 94.9094V94.9081H98.7927Z" fill="white"/>
<path fill-rule="evenodd" clip-rule="evenodd" d="M17.0805 9.34345C19.5583 11.8218 22.9177 13.2159 26.4219 13.2198C29.9281 13.219 33.2906 11.8263 35.7709 9.34765C38.2513 6.86897 39.6467 3.50695 39.6506 0H52.8586V56.187H39.6387V22.8733C35.6269 25.2069 31.0687 26.4361 26.4278 26.4361C21.7869 26.4361 17.2287 25.2069 13.2169 22.8733V56.187H0V0H13.205C13.2089 3.5049 14.6027 6.86511 17.0805 9.34345ZM101.53 34.9239C102.17 33.2744 102.473 31.5131 102.419 29.7445V0H115.648V29.7445C115.648 36.7567 112.863 43.4818 107.906 48.4401C102.949 53.3985 96.2252 56.1841 89.2145 56.1841C82.2038 56.1841 75.4803 53.3985 70.523 48.4401C65.5657 43.4818 62.7808 36.7567 62.7808 29.7445V0H75.9976V29.7445C75.9446 31.5131 76.2471 33.2744 76.8872 34.9239C77.5272 36.5734 78.4918 38.0776 79.7238 39.3474C80.9558 40.6171 82.4301 41.6266 84.0593 42.316C85.6886 43.0053 87.4396 43.3605 89.2086 43.3605C90.9776 43.3605 92.7286 43.0053 94.3578 42.316C95.987 41.6266 97.4613 40.6171 98.6933 39.3474C99.9253 38.0776 100.89 36.5734 101.53 34.9239ZM138.782 29.7445V0H125.577V29.7445C125.575 33.2163 126.257 36.6544 127.584 39.8625C128.911 43.0706 130.857 45.9857 133.311 48.4413C135.765 50.8969 138.678 52.8449 141.885 54.1739C145.091 55.503 148.528 56.187 151.999 56.187H165.216V42.9673H151.999C148.495 42.9626 145.135 41.5678 142.658 39.089C140.18 36.6102 138.786 33.2497 138.782 29.7445ZM191.463 2.00742C194.67 0.680181 198.107 -0.00194627 201.578 4.17093e-06C205.049 3.82032e-06 208.486 0.683966 211.692 2.01282C214.899 3.34168 217.812 5.2894 220.266 7.74469C222.719 10.2 224.665 13.1148 225.992 16.3225C227.32 19.5302 228.002 22.968 228 26.4396V56.187H214.795C214.743 52.7149 213.328 49.4025 210.855 46.9655C208.381 44.5285 205.049 43.1624 201.577 43.1624C198.105 43.1624 194.773 44.5285 192.299 46.9655C189.826 49.4025 188.411 52.7149 188.359 56.187H175.142V26.4277C175.142 22.9559 175.826 19.5181 177.154 16.3108C178.483 13.1035 180.431 10.1895 182.886 7.73524C185.341 5.28101 188.255 3.33467 191.463 2.00742ZM188.359 33.3078C192.373 30.9734 196.935 29.7439 201.578 29.7445C206.222 29.7452 210.782 30.9757 214.795 33.3108V26.4396C214.743 22.9674 213.328 19.655 210.855 17.218C208.381 14.781 205.049 13.415 201.577 13.415C198.105 13.415 194.773 14.781 192.299 17.218C189.826 19.655 188.411 22.9674 188.359 26.4396V33.3078Z" fill="white"/>
</svg>
