<svg width="24" height="24" viewBox="0 0 24 24" fill="none" xmlns="http://www.w3.org/2000/svg">
<path fill-rule="evenodd" clip-rule="evenodd" d="M2.96446 3.34961C2.70867 3.34961 2.46335 3.45122 2.28248 3.63209C2.10161 3.81296 2 4.05828 2 4.31407C2 4.56986 2.10161 4.81517 2.28248 4.99604C2.46335 5.17691 2.70867 5.27852 2.96446 5.27852H21.0355C21.2913 5.27852 21.5366 5.17691 21.7175 4.99604C21.8984 4.81517 22 4.56986 22 4.31407C22 4.05828 21.8984 3.81296 21.7175 3.63209C21.5366 3.45122 21.2913 3.34961 21.0355 3.34961H2.96446ZM2.96446 10.9951C2.70867 10.9951 2.46335 11.0967 2.28248 11.2776C2.10161 11.4584 2 11.7037 2 11.9595C2 12.2153 2.10161 12.4606 2.28248 12.6415C2.46335 12.8224 2.70867 12.924 2.96446 12.924H21.0355C21.2913 12.924 21.5366 12.8224 21.7175 12.6415C21.8984 12.4606 22 12.2153 22 11.9595C22 11.7037 21.8984 11.4584 21.7175 11.2776C21.5366 11.0967 21.2913 10.9951 21.0355 10.9951H2.96446ZM2.96446 18.6405C2.70867 18.6405 2.46335 18.7421 2.28248 18.923C2.10161 19.1039 2 19.3492 2 19.605C2 19.8608 2.10161 20.1061 2.28248 20.287C2.46335 20.4678 2.70867 20.5694 2.96446 20.5694H21.0355C21.2913 20.5694 21.5366 20.4678 21.7175 20.287C21.8984 20.1061 22 19.8608 22 19.605C22 19.3492 21.8984 19.1039 21.7175 18.923C21.5366 18.7421 21.2913 18.6405 21.0355 18.6405H2.96446Z" fill="#1E253A"/>
</svg>
