<svg width="40" height="43" viewBox="0 0 40 43" fill="none" xmlns="http://www.w3.org/2000/svg">
<path d="M3.81824 9.04344L21.5771 35.3887L33.6794 27.2307L15.9205 0.88548L3.81824 9.04344Z" fill="#BEBEBE"/>
<path d="M7.72301 6.43718L20.3372 35.5977L33.7327 29.8031L21.1185 0.642579L7.72301 6.43718Z" fill="#CECECE"/>
<path d="M13.9229 3.85257L20.5632 34.9238L34.8365 31.8734L28.1962 0.802186L13.9229 3.85257Z" fill="white"/>
<path d="M26.0422 2.53338L18.8537 4.06924L18.851 4.06977L15.3113 4.82578L15.3836 5.16504L16.6272 10.9839L16.6272 10.9844L16.6417 11.0508L17.5725 15.4095L17.6916 15.9673L17.6916 15.9677L18.6903 20.641L21.3149 32.9267L21.3154 32.929L21.3175 32.9371L21.3617 33.1457L21.3623 33.152L21.3638 33.157L21.4304 33.4697L23.991 32.9228L26.985 32.2832L33.4524 30.9013L32.0179 24.1872L31.9539 23.8883L31.7158 22.775L31.6628 22.5273L31.5931 22.2006L31.5292 21.9021L31.4076 21.3327L31.1107 19.9438L31.0269 19.5494L30.91 19.0028L30.808 18.5258L30.2122 15.7373L30.2122 15.7368L30.0911 15.1705L29.9959 14.7244L29.1713 10.8639L28.4304 7.39505L28.1595 6.12735L27.3328 2.2578L26.0422 2.53338ZM27.2219 4.23645L28.5628 10.5126L28.5628 10.514L28.723 11.2634L28.723 11.2638L29.5621 15.1899L29.6401 15.5543L30.2317 18.3239L30.4189 19.2003L30.5395 19.7631L30.6258 20.1656L30.9055 21.4759L31.021 22.018L31.0921 22.3474L31.1587 22.6602L31.2118 22.911L31.4493 24.0203L31.5169 24.3349L32.5423 29.1401C32.703 29.8908 32.2244 30.6293 31.4737 30.7899L27.4009 31.6598L23.1925 32.5593C22.4418 32.7199 21.7028 32.2414 21.5422 31.4906L19.1198 20.1503L17.9853 14.8408L17.662 13.3294L17.662 13.3281L17.2559 11.4267L17.2424 11.3648L17.2424 11.3643L16.2218 6.58698C16.0612 5.83623 16.5397 5.09775 17.2904 4.93712L25.5716 3.16782C25.8045 3.11837 26.0364 3.12991 26.2499 3.19162C26.7251 3.33038 27.1107 3.71861 27.2219 4.23645Z" fill="#E1E1E1"/>
<path opacity="0.3" d="M27.9211 17.1771C28.3069 19.1607 27.012 21.0815 25.0284 21.4673C23.0448 21.8532 21.124 20.5583 20.7382 18.5747C20.3523 16.5911 21.6472 14.6703 23.6308 14.2845C25.614 13.8986 27.5348 15.1935 27.9211 17.1771Z" fill="#C9C9C9"/>
<path opacity="0.3" d="M27.2908 24.8223C27.4333 25.5546 26.9554 26.2637 26.2231 26.4062C25.4908 26.5487 24.7816 26.0707 24.6391 25.3384C24.4966 24.6061 24.9746 23.897 25.7069 23.7545C26.4392 23.612 27.1483 24.09 27.2908 24.8223Z" fill="#C9C9C9"/>
<path opacity="0.3" d="M24.2034 10.375C24.3459 11.1073 23.868 11.8164 23.1357 11.9589C22.4034 12.1014 21.6942 11.6234 21.5517 10.8911C21.4092 10.1589 21.8872 9.44972 22.6195 9.30722C23.3518 9.16428 24.0614 9.6427 24.2034 10.375Z" fill="#C9C9C9"/>
<rect x="3.96436" y="13.0508" width="34.1117" height="26.0854" rx="2.73374" fill="url(#paint0_linear_1559_7109)"/>
<rect x="29.9866" y="22.2012" width="9.14967" height="6.53548" rx="2.73374" fill="url(#paint1_linear_1559_7109)"/>
<circle cx="33.2543" cy="25.4685" r="1.96064" fill="url(#paint2_linear_1559_7109)"/>
<circle cx="7.63636" cy="35.0036" r="7.63636" fill="#FFC339"/>
<path d="M10.9093 35.5492H8.182V38.2765C8.182 38.4211 8.12453 38.5599 8.02224 38.6622C7.91994 38.7644 7.7812 38.8219 7.63654 38.8219C7.49188 38.8219 7.35314 38.7644 7.25085 38.6622C7.14855 38.5599 7.09109 38.4211 7.09109 38.2765V35.5492H4.36381C4.21915 35.5492 4.08041 35.4917 3.97812 35.3894C3.87583 35.2871 3.81836 35.1484 3.81836 35.0037C3.81836 34.8591 3.87583 34.7203 3.97812 34.618C4.08041 34.5157 4.21915 34.4583 4.36381 34.4583H7.09109V31.731C7.09109 31.5863 7.14855 31.4476 7.25085 31.3453C7.35314 31.243 7.49188 31.1855 7.63654 31.1855C7.7812 31.1855 7.91994 31.243 8.02224 31.3453C8.12453 31.4476 8.182 31.5863 8.182 31.731V34.4583H10.9093C11.0539 34.4583 11.1927 34.5157 11.295 34.618C11.3973 34.7203 11.4547 34.8591 11.4547 35.0037C11.4547 35.1484 11.3973 35.2871 11.295 35.3894C11.1927 35.4917 11.0539 35.5492 10.9093 35.5492Z" fill="white"/>
<defs>
<linearGradient id="paint0_linear_1559_7109" x1="9.07307" y1="16.4972" x2="45.0182" y2="40.6785" gradientUnits="userSpaceOnUse">
<stop stop-color="#FF4D4D"/>
<stop offset="0.843" stop-color="#DA2F47"/>
</linearGradient>
<linearGradient id="paint1_linear_1559_7109" x1="41.1806" y1="27.0191" x2="51.2512" y2="33.8727" gradientUnits="userSpaceOnUse">
<stop offset="0.0227121" stop-color="#FF4D4D"/>
<stop offset="1" stop-color="#DA2F47"/>
</linearGradient>
<linearGradient id="paint2_linear_1559_7109" x1="31.2937" y1="24.6842" x2="34.8229" y2="27.037" gradientUnits="userSpaceOnUse">
<stop stop-color="#FFE362"/>
<stop offset="1" stop-color="#FD9F2A"/>
</linearGradient>
</defs>
</svg>
