<svg width="123" height="118" viewBox="0 0 123 118" fill="none" xmlns="http://www.w3.org/2000/svg">
<circle cx="60.8875" cy="55.9143" r="55.9143" fill="#FFEDF5"/>
<path fill-rule="evenodd" clip-rule="evenodd" d="M51.631 33.1263C50.9499 27.6178 55.9356 23.2988 61.221 23.2988C66.504 23.2988 71.4753 27.6178 70.7943 33.1263L66.9525 64.1146C66.5832 67.0955 64.1035 69.3521 61.2186 69.3521C58.3361 69.3521 55.8373 67.0955 55.4679 64.1146L51.631 33.1263ZM53.5423 80.8532C53.5423 76.6373 57.0052 73.1936 61.221 73.1936C65.4345 73.1936 68.8782 76.6373 68.8782 80.8532C68.8782 85.0691 65.4369 88.5319 61.221 88.5319C57.0052 88.5319 53.5423 85.0691 53.5423 80.8532Z" fill="url(#paint0_linear_1514_3288)"/>
<circle cx="60.8875" cy="55.9143" r="55.9143" fill="#FFEDEC"/>
<circle cx="15.0377" cy="55.9127" r="14.5377" fill="white"/>
<circle cx="15.0377" cy="51.553" r="5.0882" fill="#D2DAE2"/>
<mask id="mask0_1514_3288" style="mask-type:alpha" maskUnits="userSpaceOnUse" x="0" y="41" width="30" height="30">
<circle cx="15.0377" cy="55.9127" r="14.5377" fill="#FFEDEC"/>
</mask>
<g mask="url(#mask0_1514_3288)">
<circle cx="15.0379" cy="66.8167" r="9.44952" fill="#D2DAE2"/>
</g>
<circle cx="106.737" cy="55.9127" r="14.5377" fill="white"/>
<circle cx="106.737" cy="51.553" r="5.0882" fill="#D2DAE2"/>
<mask id="mask1_1514_3288" style="mask-type:alpha" maskUnits="userSpaceOnUse" x="92" y="41" width="30" height="30">
<circle cx="106.737" cy="55.9127" r="14.5377" fill="#FFEDEC"/>
</mask>
<g mask="url(#mask1_1514_3288)">
<circle cx="106.737" cy="66.8167" r="9.44952" fill="#D2DAE2"/>
</g>
<circle cx="60.8216" cy="55.8477" r="26.8389" transform="rotate(-45 60.8216 55.8477)" fill="url(#paint1_linear_1514_3288)"/>
<circle cx="60.8216" cy="55.8477" r="22.3657" transform="rotate(-45 60.8216 55.8477)" fill="#FFEDEC"/>
<rect x="74.2644" y="75.6172" width="8.94629" height="8.94629" transform="rotate(-45 74.2644 75.6172)" fill="#B61D3B"/>
<path d="M79.7995 84.3142C79.3628 83.8775 79.3628 83.1694 79.7995 82.7327L87.707 74.8252C88.1437 74.3885 88.8518 74.3885 89.2885 74.8252L103.522 89.0587C106.142 91.679 106.142 95.9273 103.522 98.5477C100.902 101.168 96.6533 101.168 94.033 98.5477L79.7995 84.3142Z" fill="#B61D3B"/>
<circle cx="60.8876" cy="55.9127" r="14.5377" fill="white"/>
<g clip-path="url(#clip0_1514_3288)">
<path d="M60.6162 61.2912C60.0845 61.2912 59.6302 61.4601 59.2541 61.797C58.8784 62.1336 58.6894 62.5412 58.6894 63.0218C58.6894 63.5633 58.8795 63.9882 59.2592 64.2974C59.6399 64.6066 60.0833 64.7626 60.5902 64.7626C61.1055 64.7626 61.555 64.6089 61.9397 64.3039C62.3241 63.9975 62.5162 63.5706 62.5162 63.0215C62.5162 62.5409 62.3325 62.1333 61.9649 61.7967C61.5972 61.4603 61.1482 61.2912 60.6154 61.2912M66.0477 49.3778C65.5585 48.6353 64.8593 48.0415 63.9683 47.6112C63.0823 47.1849 62.0504 46.9688 60.9003 46.9688C59.662 46.9688 58.56 47.2276 57.6262 47.7384C56.6913 48.25 55.9689 48.9065 55.4791 49.6893C54.987 50.476 54.7368 51.2672 54.7368 52.0416C54.7368 52.4545 54.909 52.84 55.2468 53.1867C55.5862 53.5356 56.0083 53.712 56.5015 53.712C57.343 53.712 57.9164 53.2183 58.2083 52.2499C58.4741 51.4489 58.8021 50.838 59.1812 50.4332C59.5379 50.0519 60.1166 49.8584 60.9003 49.8584C61.5763 49.8584 62.1097 50.048 62.533 50.4385C62.9498 50.8238 63.1528 51.2828 63.1528 51.842C63.1528 52.1243 63.0868 52.3779 62.9545 52.6178C62.8139 52.8694 62.6386 53.1006 62.4337 53.3064C62.217 53.5233 61.8595 53.849 61.3708 54.2773C60.8016 54.7763 60.3422 55.2133 60.0079 55.5762C59.6584 55.9533 59.3752 56.3967 59.1636 56.8935C58.9522 57.3937 58.8448 57.9906 58.8448 58.6685C58.8448 59.247 59.0062 59.6949 59.3249 59.9999C59.6402 60.3018 60.033 60.4556 60.4929 60.4556C61.3722 60.4556 61.9246 59.975 62.089 59.0759C62.1723 58.7021 62.2355 58.441 62.2774 58.2925C62.3154 58.1575 62.3705 58.0188 62.4413 57.8804C62.51 57.7457 62.6188 57.593 62.7656 57.4261C62.9185 57.2497 63.1251 57.0428 63.3784 56.8116C64.3258 55.9645 64.9943 55.3517 65.365 54.9888C65.7475 54.615 66.081 54.1652 66.3564 53.653C66.6399 53.1288 66.7836 52.5113 66.7836 51.8193C66.7841 50.944 66.5356 50.1218 66.0463 49.3767" fill="#EB382A"/>
</g>
<defs>
<linearGradient id="paint0_linear_1514_3288" x1="61.2127" y1="23.2988" x2="61.4397" y2="88.2304" gradientUnits="userSpaceOnUse">
<stop stop-color="#FF84B7"/>
<stop offset="1" stop-color="#ED2E7E"/>
</linearGradient>
<linearGradient id="paint1_linear_1514_3288" x1="60.8216" y1="29.0088" x2="60.8216" y2="102.816" gradientUnits="userSpaceOnUse">
<stop offset="0.399" stop-color="#EB382A"/>
<stop offset="1" stop-color="#84034C"/>
</linearGradient>
<clipPath id="clip0_1514_3288">
<rect width="17.8926" height="17.8926" fill="white" transform="translate(51.9412 46.9688)"/>
</clipPath>
</defs>
</svg>
