<svg width="24" height="24" viewBox="0 0 24 24" fill="none" xmlns="http://www.w3.org/2000/svg">
<g clip-path="url(#clip0_1537_11652)">
<path d="M6.72852 1.81821L6.75889 1.86227C7.52185 1.33628 8.43522 1.05351 9.37204 1.05351C10.3088 1.05351 11.2222 1.33626 11.9851 1.86221C12.4565 2.18849 13.0211 2.36417 13.6001 2.36502C14.1791 2.36588 14.7442 2.19187 15.2166 1.86699L15.2168 1.8669L15.4284 1.72047C16.7958 0.774468 18.6906 1.7239 18.6906 3.34458V12.4899V12.5434H18.7441H22.6743C22.9012 12.5434 23.1184 12.6308 23.2784 12.7857C23.4382 12.9406 23.5277 13.1502 23.5277 13.3685V19.8114C23.5277 20.651 23.1834 21.4566 22.57 22.0508C21.9565 22.6451 21.124 22.9793 20.2557 22.9793H4.53486C3.34579 22.9793 2.20576 22.5217 1.36546 21.7077C0.525227 20.8938 0.0535143 19.7902 0.0535143 18.6399V3.34458C0.0535143 1.72276 1.9482 0.774453 3.31567 1.72047L3.5273 1.8669L3.52742 1.86699C3.99988 2.19187 4.56495 2.36588 5.14398 2.36502C5.72302 2.36417 6.28753 2.18849 6.75897 1.86221L6.72852 1.81821ZM6.72852 1.81821C6.26611 2.13823 5.71221 2.31067 5.1439 2.31151C4.5756 2.31235 4.02116 2.14155 3.55774 1.82289H15.1863C14.7229 2.14155 14.1685 2.31235 13.6002 2.31151C13.0319 2.31067 12.478 2.13823 12.0156 1.81821C11.2436 1.28599 10.3196 1 9.37204 1C8.4245 1 7.5005 1.28599 6.72852 1.81821ZM7.7527 3.20326L7.75256 3.20335C6.99163 3.73024 6.07974 4.0141 5.14404 4.01514C4.20834 4.01617 3.29578 3.73434 2.5336 3.20914L2.32206 3.06277L2.322 3.06273C2.26886 3.02608 2.2065 3.00439 2.14174 2.99986C2.07699 2.99534 2.01213 3.00814 1.95423 3.03697C1.89631 3.0658 1.84745 3.10962 1.81319 3.16385C1.77891 3.21808 1.7606 3.28056 1.76043 3.34443V3.34458V18.6399C1.76043 19.3537 2.05316 20.0379 2.57365 20.5421C3.09407 21.0462 3.79957 21.3292 4.53486 21.3292H17.2929H17.3817L17.3402 21.2506C17.112 20.8188 16.9836 20.3295 16.9836 19.8114V3.34458V3.34443C16.9835 3.28056 16.9652 3.21808 16.9309 3.16385C16.8966 3.10962 16.8478 3.0658 16.7898 3.03697C16.7319 3.00814 16.6671 2.99534 16.6023 2.99986C16.5376 3.00439 16.4752 3.02608 16.4221 3.06273L16.422 3.06277L16.2105 3.20914C15.4483 3.73434 14.5357 4.01617 13.6 4.01514C12.6643 4.0141 11.7524 3.73024 10.9915 3.20335L10.9914 3.20326C10.518 2.87777 9.95214 2.70304 9.37204 2.70304C8.79193 2.70304 8.22603 2.87777 7.7527 3.20326ZM7.78302 3.24735C8.24733 2.92807 8.80264 2.75655 9.37204 2.75655C9.94143 2.75655 10.4967 2.92807 10.961 3.24735H7.78302ZM18.7441 14.1936H18.6906V14.2471V19.8114C18.6906 20.2145 18.8559 20.6007 19.1496 20.8852C19.4432 21.1696 19.8411 21.3292 20.2557 21.3292C20.6702 21.3292 21.0682 21.1696 21.3618 20.8852C21.6555 20.6007 21.8208 20.2145 21.8208 19.8114V14.2471V14.1936H21.7673H18.7441Z" fill="#696F7E" stroke="white" stroke-width="0.107029"/>
<path d="M4.2876 9.39258H12.8626M4.2876 12.5401H10.7188M4.2876 15.6877H12.8626" stroke="#696F7E" stroke-width="1.07029"/>
</g>
<defs>
<clipPath id="clip0_1537_11652">
<rect width="24" height="24" rx="4" fill="white"/>
</clipPath>
</defs>
</svg>
