<svg width="24" height="24" viewBox="0 0 24 24" fill="none" xmlns="http://www.w3.org/2000/svg">
<path d="M22 21.8716C21.9802 19.2247 20.9432 16.7259 19.0667 14.8593C18.0099 13.8025 16.7753 13.0222 15.3926 12.5185C16.9037 11.4222 17.8025 9.67407 17.8025 7.80741C17.8025 4.60741 15.1951 2 11.9951 2C8.79506 2 6.18765 4.60741 6.18765 7.80741C6.18765 9.67407 7.08642 11.4222 8.59753 12.5185C7.21481 13.0123 5.98025 13.8025 4.92346 14.8593C3.04691 16.7358 2.00988 19.2247 2 21.8716V22H3.68889V21.8815C3.71852 17.3284 7.44198 13.6247 12.0049 13.6247C16.5679 13.6247 20.2815 17.3284 20.321 21.8815V22H22.0099L22 21.8716ZM12.0049 3.68889C14.2765 3.68889 16.1235 5.5358 16.1235 7.80741C16.1235 10.079 14.2765 11.9259 12.0049 11.9259C9.73333 11.9259 7.87654 10.079 7.87654 7.80741C7.87654 5.5358 9.73333 3.68889 12.0049 3.68889Z" fill="white"/>
</svg>
