<svg width="80" height="80" viewBox="0 0 80 80" fill="none" xmlns="http://www.w3.org/2000/svg">
    <path fill-rule="evenodd" clip-rule="evenodd" d="M58 31.5234V14.4492C58 11.4461 55.5515 9 52.5455 9H23.4545C20.4485 9 18 11.4461 18 14.4492V65.5508C18 68.5539 20.4485 71 23.4545 71H52.5455C55.5515 71 58 68.5539 58 65.5508V45.5703V31.5234ZM39.7565 19.5494H36.1304C35.1272 19.5494 34.3174 18.7091 34.3174 17.6681C34.3174 16.6272 35.1272 15.7869 36.1304 15.7869H39.7565C40.7597 15.7869 41.5696 16.6272 41.5696 17.6681C41.5696 18.7091 40.7597 19.5494 39.7565 19.5494ZM36.1304 61.1885H39.7565C40.7597 61.1885 41.5695 62.0288 41.5695 63.0698C41.5695 64.1107 40.7597 64.951 39.7565 64.951H36.1304C35.1272 64.951 34.3174 64.1107 34.3174 63.0698C34.3174 62.0288 35.1272 61.1885 36.1304 61.1885ZM25 24C25 23.4477 25.4477 23 26 23H50C50.5523 23 51 23.4477 51 24V56C51 56.5523 50.5523 57 50 57H26C25.4477 57 25 56.5523 25 56V24Z" fill="url(#paint0_linear_185_901)"/>
    <path d="M36.3425 19.5497H40.011C41.026 19.5497 41.8453 18.7094 41.8453 17.6684C41.8453 16.6274 41.026 15.7871 40.011 15.7871H36.3425C35.3276 15.7871 34.5083 16.6274 34.5083 17.6684C34.5083 18.7094 35.3276 19.5497 36.3425 19.5497Z" fill="white"/>
    <path d="M40.011 61.1895H36.3425C35.3276 61.1895 34.5083 62.0298 34.5083 63.0707C34.5083 64.1117 35.3276 64.952 36.3425 64.952H40.011C41.026 64.952 41.8453 64.1117 41.8453 63.0707C41.8453 62.0298 41.026 61.1895 40.011 61.1895Z" fill="white"/>
    <rect x="43" y="36" width="18" height="6" fill="white"/>
    <path d="M55.7267 26H48.8187C41.1968 26 35.0026 32.2873 35.0026 40.0238C35.0026 43.1792 36.0273 46.1709 37.904 48.6251L35.5092 51.0559C35.0141 51.5584 34.8644 52.3063 35.1292 52.9608C35.394 53.6152 36.0273 54.0476 36.7296 54.0476H55.7267C63.3486 54.0476 69.5429 47.7603 69.5429 40.0238C69.5429 32.2873 63.3486 26 55.7267 26ZM45.3647 41.7768C44.4091 41.7768 43.6377 40.9938 43.6377 40.0238C43.6377 39.0538 44.4091 38.2708 45.3647 38.2708C46.3203 38.2708 47.0917 39.0538 47.0917 40.0238C47.0917 40.9938 46.3203 41.7768 45.3647 41.7768ZM52.2727 41.7768C51.3171 41.7768 50.5457 40.9938 50.5457 40.0238C50.5457 39.0538 51.3171 38.2708 52.2727 38.2708C53.2283 38.2708 53.9997 39.0538 53.9997 40.0238C53.9997 40.9938 53.2283 41.7768 52.2727 41.7768ZM59.1808 41.7768C58.2252 41.7768 57.4538 40.9938 57.4538 40.0238C57.4538 39.0538 58.2252 38.2708 59.1808 38.2708C60.1364 38.2708 60.9078 39.0538 60.9078 40.0238C60.9078 40.9938 60.1364 41.7768 59.1808 41.7768Z" fill="#FFC339"/>
    <defs>
        <linearGradient id="paint0_linear_185_901" x1="45.0303" y1="70.9467" x2="70.6703" y2="36.8487" gradientUnits="userSpaceOnUse">
            <stop stop-color="#DA2F47"/>
            <stop offset="1" stop-color="#FF4D4D"/>
        </linearGradient>
    </defs>
</svg>
