<svg width="40" height="62" viewBox="0 0 40 62" fill="none" xmlns="http://www.w3.org/2000/svg">
<path fill-rule="evenodd" clip-rule="evenodd" d="M40 22.5234V5.44922C40 2.44609 37.5515 0 34.5455 0H5.45455C2.44848 0 0 2.44609 0 5.44922V56.5508C0 59.5539 2.44848 62 5.45455 62H34.5455C37.5515 62 40 59.5539 40 56.5508V36.5703V22.5234ZM21.7565 10.5494H18.1304C17.1272 10.5494 16.3174 9.70912 16.3174 8.66814C16.3174 7.62717 17.1272 6.78687 18.1304 6.78687H21.7565C22.7597 6.78687 23.5696 7.62717 23.5696 8.66814C23.5696 9.70912 22.7597 10.5494 21.7565 10.5494ZM18.1304 52.1885H21.7565C22.7597 52.1885 23.5695 53.0288 23.5695 54.0698C23.5695 55.1107 22.7597 55.951 21.7565 55.951H18.1304C17.1272 55.951 16.3174 55.1107 16.3174 54.0698C16.3174 53.0288 17.1272 52.1885 18.1304 52.1885ZM7 15C7 14.4477 7.44772 14 8 14H32C32.5523 14 33 14.4477 33 15V47C33 47.5523 32.5523 48 32 48H8C7.44772 48 7 47.5523 7 47V15Z" fill="url(#paint0_linear_1029_1955)"/>
<defs>
<linearGradient id="paint0_linear_1029_1955" x1="27.0303" y1="61.9467" x2="52.6703" y2="27.8487" gradientUnits="userSpaceOnUse">
<stop stop-color="#DA2F47"/>
<stop offset="1" stop-color="#FF4D4D"/>
</linearGradient>
</defs>
</svg>
