<svg width="80" height="80" viewBox="0 0 80 80" fill="none" xmlns="http://www.w3.org/2000/svg">
<g clip-path="url(#clip0_150_987)">
<ellipse cx="37" cy="37.0889" rx="32" ry="32.0889" fill="#F2F4F6"/>
<mask id="mask0_150_987" style="mask-type:alpha" maskUnits="userSpaceOnUse" x="5" y="5" width="64" height="65">
<ellipse cx="37" cy="37.0889" rx="32" ry="32.0889" fill="#C4C4C4"/>
</mask>
<g mask="url(#mask0_150_987)">
<path fill-rule="evenodd" clip-rule="evenodd" d="M21.6333 28.9773C21.6333 20.6398 28.4299 13.8242 36.7444 13.8242C45.0588 13.8242 51.8555 20.6398 51.8555 28.9773C51.8555 37.3148 45.0588 44.1304 36.7444 44.1304C28.4299 44.1304 21.6333 37.3148 21.6333 28.9773ZM61.8381 54.141C62.4422 55.016 62.9791 55.9582 63.3818 56.9679C63.5831 57.3716 63.5161 57.8429 63.1806 58.2467C62.6437 59.189 62.0395 60.064 61.3684 60.939C60.4286 62.2178 59.3547 63.362 58.2808 64.4389C57.3411 65.3812 56.2672 66.3236 55.1933 67.1312C49.8908 71.1022 43.5144 73.1887 36.9366 73.1887C30.3588 73.1887 23.9823 71.1023 18.6799 67.1312C17.6059 66.2562 16.532 65.3812 15.5923 64.4389C14.4513 63.362 13.4444 62.2179 12.5048 60.939C11.9007 60.1314 11.2296 59.189 10.6925 58.2467C10.4912 57.8429 10.4242 57.3717 10.6255 56.9679C11.0281 56.0256 11.5651 55.016 12.1692 54.141C15.1896 49.5641 20.0222 46.5353 25.3918 45.7949C26.063 45.6603 26.8013 45.8622 27.3383 46.266C30.1574 48.3526 33.5133 49.4294 37.0037 49.4294C40.494 49.4294 43.8499 48.3526 46.669 46.266C47.206 45.8622 47.9443 45.7277 48.6155 45.7949C53.9851 46.5353 58.7505 49.5641 61.8381 54.141Z" fill="url(#paint0_linear_150_987)"/>
</g>
<ellipse cx="59.0941" cy="12.9993" rx="5.33334" ry="5.33333" fill="white"/>
<path d="M59.0938 5C54.6937 5 51.0938 8.6 51.0938 13C51.0938 17.4 54.6937 21 59.0938 21C63.4937 21 67.0938 17.4 67.0938 13C67.0938 8.6 63.4937 5 59.0938 5ZM62.4538 11.64L58.6137 15.48C58.2937 15.8 57.8138 15.8 57.4938 15.48L55.7338 13.72C55.4138 13.4 55.4138 12.92 55.7338 12.6C56.0538 12.28 56.5337 12.28 56.8537 12.6L58.0538 13.8L61.3338 10.52C61.6538 10.2 62.1338 10.2 62.4538 10.52C62.7738 10.84 62.7738 11.32 62.4538 11.64Z" fill="#FFC339"/>
</g>
<defs>
<linearGradient id="paint0_linear_150_987" x1="36.9995" y1="73.1377" x2="61.384" y2="39.9395" gradientUnits="userSpaceOnUse">
<stop stop-color="#DA2F47"/>
<stop offset="1" stop-color="#FF4D4D"/>
</linearGradient>
<clipPath id="clip0_150_987">
<rect width="64" height="64" fill="white" transform="translate(5 5)"/>
</clipPath>
</defs>
</svg>
