<svg width="32" height="32" viewBox="0 0 32 32" fill="none" xmlns="http://www.w3.org/2000/svg">
<path d="M21.7799 17.334V21.778H26.2226V26.2207H30.6666V30.6673H26.2226V26.2233H21.7799V30.6673H17.3333V26.2233H21.7773V21.7793H17.3333V17.334H21.7799ZM11.3333 17.334C12.2173 17.334 13.0652 17.6852 13.6903 18.3103C14.3154 18.9354 14.6666 19.7833 14.6666 20.6673V27.334C14.6666 28.218 14.3154 29.0659 13.6903 29.691C13.0652 30.3161 12.2173 30.6673 11.3333 30.6673H4.66658C3.78253 30.6673 2.93468 30.3161 2.30956 29.691C1.68444 29.0659 1.33325 28.218 1.33325 27.334V20.6673C1.33325 19.7833 1.68444 18.9354 2.30956 18.3103C2.93468 17.6852 3.78253 17.334 4.66658 17.334H11.3333ZM11.3333 20.0007H4.66658C4.48977 20.0007 4.3202 20.0709 4.19518 20.1959C4.07016 20.3209 3.99992 20.4905 3.99992 20.6673V27.334C3.99992 27.5108 4.07016 27.6804 4.19518 27.8054C4.3202 27.9304 4.48977 28.0006 4.66658 28.0006H11.3333C11.5101 28.0006 11.6796 27.9304 11.8047 27.8054C11.9297 27.6804 11.9999 27.5108 11.9999 27.334V20.6673C11.9999 20.4905 11.9297 20.3209 11.8047 20.1959C11.6796 20.0709 11.5101 20.0007 11.3333 20.0007ZM10.3333 21.6673V26.334H5.66658V21.6673H10.3333ZM30.6666 17.334V21.778H26.2226V17.334H30.6666ZM11.3333 1.33398C12.2173 1.33398 13.0652 1.68517 13.6903 2.3103C14.3154 2.93542 14.6666 3.78326 14.6666 4.66732V11.334C14.6666 12.218 14.3154 13.0659 13.6903 13.691C13.0652 14.3161 12.2173 14.6673 11.3333 14.6673H4.66658C3.78253 14.6673 2.93468 14.3161 2.30956 13.691C1.68444 13.0659 1.33325 12.218 1.33325 11.334V4.66732C1.33325 3.78326 1.68444 2.93542 2.30956 2.3103C2.93468 1.68517 3.78253 1.33398 4.66658 1.33398H11.3333ZM27.3333 1.33398C28.2173 1.33398 29.0652 1.68517 29.6903 2.3103C30.3154 2.93542 30.6666 3.78326 30.6666 4.66732V11.334C30.6666 12.218 30.3154 13.0659 29.6903 13.691C29.0652 14.3161 28.2173 14.6673 27.3333 14.6673H20.6666C19.7825 14.6673 18.9347 14.3161 18.3096 13.691C17.6844 13.0659 17.3333 12.218 17.3333 11.334V4.66732C17.3333 3.78326 17.6844 2.93542 18.3096 2.3103C18.9347 1.68517 19.7825 1.33398 20.6666 1.33398H27.3333ZM11.3333 4.00065H4.66658C4.48977 4.00065 4.3202 4.07089 4.19518 4.19591C4.07016 4.32094 3.99992 4.49051 3.99992 4.66732V11.334C3.99992 11.5108 4.07016 11.6804 4.19518 11.8054C4.3202 11.9304 4.48977 12.0007 4.66658 12.0007H11.3333C11.5101 12.0007 11.6796 11.9304 11.8047 11.8054C11.9297 11.6804 11.9999 11.5108 11.9999 11.334V4.66732C11.9999 4.49051 11.9297 4.32094 11.8047 4.19591C11.6796 4.07089 11.5101 4.00065 11.3333 4.00065ZM27.3333 4.00065H20.6666C20.4898 4.00065 20.3202 4.07089 20.1952 4.19591C20.0702 4.32094 19.9999 4.49051 19.9999 4.66732V11.334C19.9999 11.5108 20.0702 11.6804 20.1952 11.8054C20.3202 11.9304 20.4898 12.0007 20.6666 12.0007H27.3333C27.5101 12.0007 27.6796 11.9304 27.8047 11.8054C27.9297 11.6804 27.9999 11.5108 27.9999 11.334V4.66732C27.9999 4.49051 27.9297 4.32094 27.8047 4.19591C27.6796 4.07089 27.5101 4.00065 27.3333 4.00065ZM26.3333 5.66732V10.334H21.6666V5.66732H26.3333ZM10.3293 5.66998V10.33H5.67058V5.66998H10.3293Z" fill="white"/>
</svg>
