<svg width="104" height="100" viewBox="0 0 104 100" fill="none" xmlns="http://www.w3.org/2000/svg">
<path d="M99.4818 17.3632L91.5782 15.5164V9.36533C91.5782 6.47398 89.4379 4.02669 86.569 3.6331L60.2324 0L33.8958 3.6331C31.0269 4.02669 28.8865 6.47903 28.8865 9.36533V15.5164L20.978 17.3632C18.357 17.9788 16.5 20.31 16.5 22.9996V42.366C16.5 60.8494 27.8746 77.4355 45.1439 84.1416L60.2324 90L75.3209 84.1416C92.5902 77.4355 103.965 60.8494 103.965 42.366V22.9996C103.965 20.31 102.108 17.9788 99.4818 17.3632Z" fill="url(#paint0_linear_747_401)"/>
<path d="M79.7456 30.3801C78.5168 28.8039 76.2827 28.5506 74.7188 29.7609C74.7188 29.7609 55.2262 46.2827 54.6397 46.7893L46.96 39.9779C45.3682 38.5706 42.9665 38.4299 41.2351 39.8091C39.2802 41.3571 38.9172 44.1717 40.4531 46.1701L50.3111 58.9203C50.367 58.9766 50.4228 59.061 50.4508 59.0892C52.3777 61.369 55.7847 61.6505 58.0747 59.7084L79.4942 35.1649L79.5501 35.1086C80.723 33.7858 80.8347 31.7874 79.7456 30.3801Z" fill="white"/>
<circle cx="23" cy="77.5" r="22.5" fill="#F8F8F8"/>
<path d="M29.9211 73.5789V70.7344C29.9211 67.5725 27.3486 65 24.1868 65H22.0562C18.8944 65 16.3218 67.5725 16.3218 70.7344V73.5789C14.7126 73.8735 13.5 75.2788 13.5 76.9674V86.5435C13.5 88.4474 15.0413 90 16.9565 90H29.2978C31.2017 90 32.7543 88.4587 32.7543 86.5435V76.9674C32.743 75.2788 31.5304 73.8735 29.9211 73.5789ZM22.0562 67.1079H24.1868C26.1813 67.1079 27.8132 68.7285 27.8132 70.7344V73.5222H18.4297V70.7344C18.4297 68.7398 20.0503 67.1079 22.0562 67.1079Z" fill="#683ECF"/>
<path d="M29.9211 73.5789V70.7344C29.9211 67.5725 27.3486 65 24.1868 65H22.0562C18.8944 65 16.3218 67.5725 16.3218 70.7344V73.5789C14.7126 73.8735 13.5 75.2788 13.5 76.9674V86.5435C13.5 88.4474 15.0413 90 16.9565 90H29.2978C31.2017 90 32.7543 88.4587 32.7543 86.5435V76.9674C32.743 75.2788 31.5304 73.8735 29.9211 73.5789ZM22.0562 67.1079H24.1868C26.1813 67.1079 27.8132 68.7285 27.8132 70.7344V73.5222H18.4297V70.7344C18.4297 68.7398 20.0503 67.1079 22.0562 67.1079Z" fill="url(#paint1_radial_747_401)"/>
<path d="M24.1868 65C27.3486 65 29.9211 67.5725 29.9211 70.7344V73.5789C31.519 73.8735 32.7316 75.2788 32.7316 76.9674V86.5435C32.7316 88.4474 31.1904 90 29.2752 90H16.9565C15.0413 90 13.5 88.4474 13.5 86.5435V76.9674C13.5 75.2788 14.7126 73.8735 16.3105 73.5789V70.7344C16.3105 67.5725 18.883 65 22.0449 65H24.1868ZM18.4297 73.5222H27.8132V70.7344C27.8132 68.7398 26.1927 67.1079 24.1868 67.1079H22.0562C20.0616 67.1079 18.4297 68.7285 18.4297 70.7344V73.5222Z" fill="url(#paint2_linear_747_401)"/>
<path d="M24.7312 80.8651C24.7312 79.9812 24.0172 79.2559 23.1219 79.2559C22.238 79.2559 21.5127 79.9698 21.5127 80.8651C21.5127 81.3411 21.7167 81.7604 22.034 82.055L21.854 83.4025C21.7513 84.1711 22.3492 84.8542 23.1247 84.8542C23.9022 84.8542 24.5007 84.1677 24.3947 83.3974L24.2099 82.055C24.5272 81.7604 24.7312 81.3411 24.7312 80.8651Z" fill="white"/>
<defs>
<linearGradient id="paint0_linear_747_401" x1="60.2324" y1="0" x2="60.2324" y2="111.5" gradientUnits="userSpaceOnUse">
<stop stop-color="#B4DD80"/>
<stop offset="1" stop-color="#549611"/>
</linearGradient>
<radialGradient id="paint1_radial_747_401" cx="0" cy="0" r="1" gradientUnits="userSpaceOnUse" gradientTransform="translate(33.0899 90.0028) scale(45.6062)">
<stop stop-color="#FF8270"/>
<stop offset="0.2653" stop-color="#AE6179" stop-opacity="0.7446"/>
<stop offset="0.5305" stop-color="#644482" stop-opacity="0.4893"/>
<stop offset="0.7487" stop-color="#2E2E88" stop-opacity="0.2792"/>
<stop offset="0.9113" stop-color="#0D218C" stop-opacity="0.1227"/>
<stop offset="1" stop-color="#001C8D" stop-opacity="0.037293"/>
</radialGradient>
<linearGradient id="paint2_linear_747_401" x1="23.1158" y1="65" x2="23.1158" y2="101.5" gradientUnits="userSpaceOnUse">
<stop stop-color="#B4DD80"/>
<stop offset="1" stop-color="#549611"/>
</linearGradient>
</defs>
</svg>
