<svg width="80" height="80" viewBox="0 0 80 80" fill="none" xmlns="http://www.w3.org/2000/svg">
    <g clip-path="url(#clip0_561_861)">
        <path d="M62.9167 49.2448H17.0834C11.3396 49.2448 6.66669 53.9177 6.66669 59.6615C6.66669 65.4052 11.3396 70.0781 17.0834 70.0781H62.9167C68.6604 70.0781 73.3334 65.4052 73.3334 59.6615C73.3334 53.9177 68.6604 49.2448 62.9167 49.2448ZM20.4688 62.9167C18.671 62.9167 17.2136 61.4593 17.2136 59.6615C17.2136 57.8637 18.671 56.4063 20.4688 56.4063C22.2666 56.4063 23.724 57.8637 23.724 59.6615C23.724 61.4593 22.2666 62.9167 20.4688 62.9167ZM33.4896 62.9167C31.6918 62.9167 30.2344 61.4593 30.2344 59.6615C30.2344 57.8637 31.6918 56.4063 33.4896 56.4063C35.2874 56.4063 36.7448 57.8637 36.7448 59.6615C36.7448 61.4593 35.2874 62.9167 33.4896 62.9167ZM46.5104 62.9167C44.7127 62.9167 43.2552 61.4593 43.2552 59.6615C43.2552 57.8637 44.7127 56.4063 46.5104 56.4063C48.3082 56.4063 49.7656 57.8637 49.7656 59.6615C49.7656 61.4593 48.3082 62.9167 46.5104 62.9167ZM59.5313 62.9167C57.7335 62.9167 56.2761 61.4593 56.2761 59.6615C56.2761 57.8637 57.7335 56.4063 59.5313 56.4063C61.3291 56.4063 62.7865 57.8637 62.7865 59.6615C62.7865 61.4593 61.3291 62.9167 59.5313 62.9167Z" fill="#FFC339"/>
        <path d="M52.3698 23.2031H49.7657V19.6875C49.7657 14.3027 45.3848 9.92188 40 9.92188C34.6153 9.92188 30.2344 14.3027 30.2344 19.6875V23.2031H27.6302C26.5516 23.2031 25.6771 24.0776 25.6771 25.1563V40.651C25.6771 41.7297 26.5516 42.6042 27.6302 42.6042H52.3698C53.4485 42.6042 54.323 41.7297 54.323 40.651V25.1563C54.323 24.0776 53.4485 23.2031 52.3698 23.2031ZM41.9532 33.5063V34.2708C41.9532 35.3495 41.0787 36.224 40 36.224C38.9214 36.224 38.0469 35.3495 38.0469 34.2708V33.5063C37.2888 33.2379 36.7448 32.5167 36.7448 31.6667C36.7448 30.588 37.6193 29.7135 38.698 29.7135H41.3021C42.3808 29.7135 43.2553 30.588 43.2553 31.6667C43.2553 32.5167 42.7112 33.2379 41.9532 33.5063ZM45.8594 23.2031H34.1407V19.6875C34.1407 16.4566 36.7692 13.8281 40 13.8281C43.2309 13.8281 45.8594 16.4566 45.8594 19.6875V23.2031Z" fill="url(#paint0_linear_561_861)"/>
    </g>
    <defs>
        <linearGradient id="paint0_linear_561_861" x1="40" y1="39.2398" x2="54.0623" y2="20.4411" gradientUnits="userSpaceOnUse">
            <stop stop-color="#DA2F47"/>
            <stop offset="1" stop-color="#FF4D4D"/>
        </linearGradient>
        <clipPath id="clip0_561_861">
            <rect width="66.6667" height="66.6667" fill="white" transform="translate(6.66669 6.66669)"/>
        </clipPath>
    </defs>
</svg>
