<svg width="15" height="18" viewBox="0 0 15 18" fill="none" xmlns="http://www.w3.org/2000/svg">
<path d="M1.38022 16.2378H13.2124C13.4397 16.2379 13.6582 16.3258 13.8222 16.4833C13.9862 16.6407 14.083 16.8555 14.0924 17.0826C14.1017 17.3097 14.0229 17.5317 13.8725 17.7021C13.722 17.8725 13.5115 17.9782 13.2849 17.997L13.2124 18H1.38022C1.15293 17.9998 0.934518 17.9117 0.770624 17.7542C0.606729 17.5967 0.510032 17.382 0.500738 17.1549C0.491443 16.9278 0.570269 16.7059 0.720746 16.5355C0.871223 16.3652 1.08171 16.2596 1.30822 16.2408L1.38022 16.2378ZM7.09843 0.003021L7.17043 0C7.39156 8.25965e-06 7.60461 0.083163 7.76727 0.232958C7.92994 0.382752 8.03034 0.588235 8.04853 0.808615L8.05155 0.881119V11.6222L10.4648 9.20946C10.6301 9.04421 10.8542 8.95137 11.0879 8.95137C11.3216 8.95137 11.5457 9.04421 11.711 9.20946C11.8762 9.37471 11.9691 9.59883 11.9691 9.83253C11.9691 10.0662 11.8762 10.2904 11.711 10.4556L7.79477 14.3718C7.71295 14.4536 7.61581 14.5185 7.5089 14.5628C7.40199 14.6071 7.28741 14.6299 7.17169 14.6299C7.05597 14.6299 6.94139 14.6071 6.83448 14.5628C6.72757 14.5185 6.63044 14.4536 6.54862 14.3718L2.63242 10.4556C2.46717 10.2904 2.37433 10.0662 2.37433 9.83253C2.37433 9.59883 2.46717 9.37471 2.63242 9.20946C2.79767 9.04421 3.0218 8.95137 3.2555 8.95137C3.4892 8.95137 3.71332 9.04421 3.87857 9.20946L6.28932 11.6202V0.881119C6.28933 0.659908 6.37256 0.446798 6.52246 0.284119C6.67236 0.12144 6.87796 0.0210971 7.09843 0.003021Z" fill="#A11421"/>
</svg>
