<svg width="24" height="24" viewBox="0 0 24 24" fill="none" xmlns="http://www.w3.org/2000/svg">
<g clip-path="url(#clip0_1538_11734)">
<path d="M18.195 23H14.965V20.8H18.195C18.6233 20.8 19.0341 20.6209 19.3369 20.3021C19.6398 19.9833 19.81 19.5509 19.81 19.1V15.7H21.9V19.1C21.8988 20.134 21.5081 21.1253 20.8135 21.8564C20.119 22.5875 19.1772 22.9988 18.195 23ZM21.9 9.3H19.81V5.9C19.81 5.44913 19.6398 5.01673 19.3369 4.69792C19.0341 4.37911 18.6233 4.2 18.195 4.2H14.965V2H18.195C19.1772 2.00119 20.119 2.41247 20.8135 3.1436C21.5081 3.87473 21.8988 4.86602 21.9 5.9V9.3ZM8.88495 23H5.65495C4.67267 22.9988 3.73095 22.5875 3.03637 21.8564C2.34179 21.1253 1.95108 20.134 1.94995 19.1V15.7H4.03995V19.1C4.03995 19.5509 4.2101 19.9833 4.51297 20.3021C4.81585 20.6209 5.22663 20.8 5.65495 20.8H8.88495V23ZM4.03995 9.3H1.94995V5.9C1.95108 4.86602 2.34179 3.87473 3.03637 3.1436C3.73095 2.41247 4.67267 2.00119 5.65495 2H8.88495V4.2H5.65495C5.22663 4.2 4.81585 4.37911 4.51297 4.69792C4.2101 5.01673 4.03995 5.44913 4.03995 5.9V9.3Z" fill="#696F7E"/>
<path d="M-0.149902 12.5L24.0001 12.5" stroke="#696F7E" stroke-width="2.1"/>
</g>
<defs>
<clipPath id="clip0_1538_11734">
<rect width="24" height="24" rx="4" fill="white"/>
</clipPath>
</defs>
</svg>
