<svg width="26" height="26" viewBox="0 0 26 26" fill="none" xmlns="http://www.w3.org/2000/svg">
<g clip-path="url(#clip0_1349_306)">
<path fill-rule="evenodd" clip-rule="evenodd" d="M4.3833 10.2009C4.6118 10.2009 4.83093 10.1101 4.9925 9.94856C5.15407 9.78699 5.24484 9.56786 5.24484 9.33936V5.03167H9.55254C9.78103 5.03167 10.0002 4.9409 10.1617 4.77933C10.3233 4.61776 10.4141 4.39863 10.4141 4.17013C10.4141 3.94164 10.3233 3.7225 10.1617 3.56093C10.0002 3.39936 9.78103 3.30859 9.55254 3.30859H4.3833C4.15481 3.30859 3.93567 3.39936 3.7741 3.56093C3.61253 3.7225 3.52177 3.94164 3.52177 4.17013V9.33936C3.52177 9.56786 3.61253 9.78699 3.7741 9.94856C3.93567 10.1101 4.15481 10.2009 4.3833 10.2009ZM16.4451 5.03167H20.7527V9.33936C20.7527 9.56786 20.8435 9.78699 21.0051 9.94856C21.1667 10.1101 21.3858 10.2009 21.6143 10.2009C21.8428 10.2009 22.0619 10.1101 22.2235 9.94856C22.3851 9.78699 22.4758 9.56786 22.4758 9.33936V4.17013C22.4758 3.94164 22.3851 3.7225 22.2235 3.56093C22.0619 3.39936 21.8428 3.30859 21.6143 3.30859H16.4451C16.2166 3.30859 15.9974 3.39936 15.8359 3.56093C15.6743 3.7225 15.5835 3.94164 15.5835 4.17013C15.5835 4.39863 15.6743 4.61776 15.8359 4.77933C15.9974 4.9409 16.2166 5.03167 16.4451 5.03167ZM5.24484 20.5394H9.55254C9.78103 20.5394 10.0002 20.6302 10.1617 20.7918C10.3233 20.9534 10.4141 21.1725 10.4141 21.401C10.4141 21.6295 10.3233 21.8486 10.1617 22.0102C10.0002 22.1718 9.78103 22.2625 9.55254 22.2625H4.3833C4.15481 22.2625 3.93567 22.1718 3.7741 22.0102C3.61253 21.8486 3.52177 21.6295 3.52177 21.401V16.2317C3.52177 16.0033 3.61253 15.7841 3.7741 15.6225C3.93567 15.461 4.15481 15.3702 4.3833 15.3702C4.6118 15.3702 4.83093 15.461 4.9925 15.6225C5.15407 15.7841 5.24484 16.0033 5.24484 16.2317V20.5394ZM21.6143 15.3702C21.3858 15.3702 21.1667 15.461 21.0051 15.6225C20.8435 15.7841 20.7527 16.0033 20.7527 16.2317V20.5394H16.4451C16.2166 20.5394 15.9974 20.6302 15.8359 20.7918C15.6743 20.9534 15.5835 21.1725 15.5835 21.401C15.5835 21.6295 15.6743 21.8486 15.8359 22.0102C15.9974 22.1718 16.2166 22.2625 16.4451 22.2625H21.6143C21.8428 22.2625 22.0619 22.1718 22.2235 22.0102C22.3851 21.8486 22.4758 21.6295 22.4758 21.401V16.2317C22.4758 16.0033 22.3851 15.7841 22.2235 15.6225C22.0619 15.461 21.8428 15.3702 21.6143 15.3702ZM0.937466 11.924H25.0605C25.289 11.924 25.5082 12.0147 25.6697 12.1763C25.8313 12.3379 25.9221 12.557 25.9221 12.7855C25.9221 13.014 25.8313 13.2331 25.6697 13.3947C25.5082 13.5563 25.289 13.6471 25.0605 13.6471H0.937466C0.708972 13.6471 0.489836 13.5563 0.328266 13.3947C0.166697 13.2331 0.0759277 13.014 0.0759277 12.7855C0.0759277 12.557 0.166697 12.3379 0.328266 12.1763C0.489836 12.0147 0.708972 11.924 0.937466 11.924Z" fill="white"/>
</g>
<defs>
<clipPath id="clip0_1349_306">
<rect width="25.8462" height="25.8462" fill="white" transform="translate(0.0759277 0.078125)"/>
</clipPath>
</defs>
</svg>
