<svg width="24" height="24" viewBox="0 0 24 24" fill="none" xmlns="http://www.w3.org/2000/svg">
<path fill-rule="evenodd" clip-rule="evenodd" d="M19.4055 12.562L21.0157 13.8177C21.4916 14.2025 21.6233 14.8608 21.3296 15.3975L19.4764 18.6076C19.1929 19.1342 18.5347 19.3671 17.9574 19.1443L16.0536 18.3747C15.7397 18.5873 15.4258 18.7696 15.1017 18.9316L14.8081 20.9468C14.7372 21.5443 14.2106 22 13.5828 22H9.89668C9.27896 22 8.75238 21.5342 8.67136 20.9266L8.38782 18.9215C8.06377 18.7595 7.73972 18.5772 7.43592 18.3646L5.54224 19.1241C4.93465 19.3367 4.29668 19.1038 4.00301 18.5671L2.1701 15.3975C1.87643 14.8506 1.99794 14.1823 2.47389 13.8076L4.08402 12.5519C4.08305 12.5324 4.08207 12.513 4.0811 12.4939C4.07204 12.3143 4.06376 12.1505 4.06376 11.9949C4.06376 11.8228 4.06377 11.6405 4.08402 11.438L2.47389 10.1823C1.98782 9.79747 1.85617 9.10886 2.1701 8.58228L4.01314 5.40253C4.29668 4.87595 4.95491 4.64304 5.53212 4.86582L7.43592 5.62532C7.74984 5.41266 8.06377 5.23038 8.38782 5.06835L8.68149 3.05316C8.75238 2.4557 9.27896 2 9.90681 2H13.5929C14.2207 2 14.7473 2.46582 14.8182 3.07342L15.1017 5.07848C15.4258 5.24051 15.7498 5.42278 16.0536 5.63544L17.9473 4.87595C18.5346 4.65316 19.1929 4.8962 19.4866 5.42279L21.3195 8.60253C21.6131 9.14937 21.4916 9.81772 21.0157 10.1924L19.4055 11.4481C19.4065 11.4675 19.4075 11.4868 19.4084 11.5059C19.4175 11.6855 19.4258 11.8494 19.4258 12.0051V12.0052C19.4258 12.1874 19.4258 12.3697 19.4055 12.562ZM5.66377 12.8152C5.69415 13.0785 5.58275 13.3519 5.37009 13.5241L3.66883 14.8608L5.20807 17.5342L7.26377 16.7544C7.49668 16.6633 7.82073 16.7038 8.02326 16.8658C8.4587 17.2 8.9144 17.4633 9.40048 17.6658C9.65364 17.7671 9.83591 18 9.87642 18.2734L10.1802 20.4L13.2688 20.4405L13.6233 18.2734C13.6638 18 13.846 17.7671 14.0992 17.6658C14.565 17.4734 15.0207 17.2101 15.4865 16.8557C15.7093 16.6937 15.9929 16.6532 16.246 16.7544L18.241 17.5544L19.841 14.8608L18.1195 13.5139C17.9068 13.3519 17.7954 13.0785 17.8258 12.8051C17.8562 12.5722 17.8865 12.2987 17.8865 11.9949C17.8865 11.6911 17.8562 11.3975 17.8258 11.1848C17.7954 10.9215 17.9068 10.6481 18.1195 10.476L19.841 9.12911L18.3017 6.4557L16.2359 7.23544C15.9828 7.33671 15.6992 7.2962 15.4764 7.12405C15.041 6.78987 14.5752 6.51646 14.0992 6.32405C13.846 6.22278 13.6638 5.98987 13.6233 5.71646L13.3195 3.58987L10.2309 3.54937L9.87642 5.71646C9.83591 5.98987 9.65364 6.22278 9.40048 6.32405C8.93465 6.51646 8.47896 6.77975 8.01313 7.13418C7.79035 7.2962 7.5068 7.33671 7.25364 7.23544L5.2587 6.43544L3.67896 9.09873L5.38022 10.4861C5.58275 10.6481 5.69415 10.9215 5.66377 11.1949C5.62326 11.519 5.60301 11.7722 5.60301 12.0051C5.60301 12.2481 5.62326 12.5013 5.66377 12.8152ZM16.1245 12.0152C16.1245 14.4354 14.16 16.4 11.7397 16.4C9.31946 16.4 7.3549 14.4354 7.3549 12.0152C7.3549 9.59493 9.31946 7.63038 11.7397 7.63038C14.16 7.63038 16.1245 9.59493 16.1245 12.0152ZM14.565 12.0051C14.565 10.4456 13.2992 9.17974 11.7397 9.17974C10.1802 9.17974 8.91439 10.4456 8.91439 12.0051C8.91439 13.5646 10.1802 14.8304 11.7397 14.8304C13.2992 14.8304 14.565 13.5646 14.565 12.0051Z" fill="#1D1D1B"/>
</svg>
