<svg width="80" height="80" viewBox="0 0 80 80" fill="none" xmlns="http://www.w3.org/2000/svg">
<path d="M64.6331 24.8038L59.7154 23.6546V19.8273C59.7154 18.0283 58.3836 16.5055 56.5985 16.2606L40.2113 14L23.8241 16.2606C22.0389 16.5055 20.7072 18.0314 20.7072 19.8273V23.6546L15.7863 24.8038C14.1554 25.1868 13 26.6374 13 28.3108V40.3611C13 51.8619 20.0775 62.1821 30.8229 66.3548L40.2113 70L49.5997 66.3548C60.345 62.1821 67.4225 51.8619 67.4225 40.3611V28.3108C67.4225 26.6374 66.2671 25.1868 64.6331 24.8038Z" fill="url(#paint0_linear_150_453)"/>
<path d="M46.1269 38.4052C46.1269 34.7614 42.7541 31.906 38.9375 32.6943C36.6298 33.1673 34.8014 35.0417 34.3931 37.3366C33.967 39.7015 34.9789 41.8387 36.7008 43.1001V46.446C36.7008 48.3555 38.2807 49.9146 40.2156 49.9146C42.1505 49.9146 43.7304 48.3555 43.7304 46.446V43.1001C45.1683 42.0139 46.1269 40.3322 46.1269 38.4052Z" fill="white"/>
<ellipse cx="57.0999" cy="59.7562" rx="6.21126" ry="6.21126" fill="white"/>
<path d="M57.1001 50.4395C51.9758 50.4395 47.7832 54.6321 47.7832 59.7563C47.7832 64.8806 51.9758 69.0732 57.1001 69.0732C62.2244 69.0732 66.417 64.8806 66.417 59.7563C66.417 54.6321 62.2244 50.4395 57.1001 50.4395ZM61.0132 58.1725L56.5411 62.6446C56.1684 63.0173 55.6094 63.0173 55.2367 62.6446L53.187 60.5949C52.8143 60.2222 52.8143 59.6632 53.187 59.2905C53.5597 58.9178 54.1187 58.9178 54.4914 59.2905L55.8889 60.688L59.7088 56.8681C60.0815 56.4954 60.6405 56.4954 61.0132 56.8681C61.3859 57.2408 61.3859 57.7998 61.0132 58.1725Z" fill="#FFC339"/>
<defs>
<linearGradient id="paint0_linear_150_453" x1="40.3295" y1="83.0485" x2="72.2613" y2="35.5433" gradientUnits="userSpaceOnUse">
<stop stop-color="#DA2F47"/>
<stop offset="1" stop-color="#FF4D4D"/>
</linearGradient>
</defs>
</svg>
