<svg width="80" height="80" viewBox="0 0 80 80" fill="none" xmlns="http://www.w3.org/2000/svg">
<path d="M67.8222 20.308L62.2197 18.9989V14.6387C62.2197 12.5891 60.7025 10.8543 58.6689 10.5753L40 8L21.3311 10.5753C19.2975 10.8543 17.7803 12.5927 17.7803 14.6387V18.9989L12.1742 20.308C10.3163 20.7444 9 22.3969 9 24.3034V38.0314C9 51.1335 17.0629 62.8907 29.3044 67.6443L40 71.7971L50.6956 67.6443C62.9371 62.8907 71 51.1335 71 38.0314V24.3034C71 22.3969 69.6837 20.7444 67.8222 20.308Z" fill="url(#paint0_linear_150_823)"/>
<path d="M53.5032 30.9057C52.694 29.8713 51.2228 29.7051 50.1929 30.4993C50.1929 30.4993 37.3563 41.3418 36.9701 41.6742L31.9127 37.2043C30.8644 36.2807 29.2828 36.1884 28.1426 37.0934C26.8553 38.1093 26.6162 39.9564 27.6277 41.2679L34.1195 49.6352C34.1563 49.6721 34.1931 49.7276 34.2115 49.746C35.4804 51.2422 37.7241 51.4269 39.2321 50.1524L53.3377 34.0457L53.3744 34.0088C54.1469 33.1407 54.2204 31.8292 53.5032 30.9057Z" fill="white"/>
<circle cx="60.2982" cy="63.2982" r="8.29825" fill="#FFC339"/>
<path fill-rule="evenodd" clip-rule="evenodd" d="M61.4839 63.2987C61.4839 63.9552 60.9549 64.4842 60.2984 64.4842C59.6419 64.4842 59.1129 63.9552 59.1129 63.2987C59.1129 62.6423 59.6419 62.1133 60.2984 62.1133C60.9549 62.1133 61.4839 62.6423 61.4839 63.2987ZM57.3348 63.2988C57.3348 63.9553 56.8058 64.4843 56.1493 64.4843C55.4928 64.4843 54.9639 63.9553 54.9639 63.2988C54.9639 62.6423 55.4928 62.1133 56.1493 62.1133C56.8058 62.1133 57.3348 62.6423 57.3348 63.2988ZM64.4476 64.4842C65.1041 64.4842 65.6331 63.9552 65.6331 63.2987C65.6331 62.6423 65.1041 62.1133 64.4476 62.1133C63.7911 62.1133 63.2621 62.6423 63.2621 63.2987C63.2621 63.9552 63.7911 64.4842 64.4476 64.4842Z" fill="white"/>
<defs>
<linearGradient id="paint0_linear_150_823" x1="40.1346" y1="86.6624" x2="76.5125" y2="32.5428" gradientUnits="userSpaceOnUse">
<stop stop-color="#DA2F47"/>
<stop offset="1" stop-color="#FF4D4D"/>
</linearGradient>
</defs>
</svg>
