<svg width="20" height="20" viewBox="0 0 20 20" fill="none" xmlns="http://www.w3.org/2000/svg">
<path d="M10.0001 1.66602C5.41675 1.66602 1.66675 5.41602 1.66675 9.99935C1.66675 14.5827 5.41675 18.3327 10.0001 18.3327C14.5834 18.3327 18.3334 14.5827 18.3334 9.99935C18.3334 5.41602 14.5834 1.66602 10.0001 1.66602ZM13.5001 8.58268L9.50008 12.5827C9.16675 12.916 8.66675 12.916 8.33341 12.5827L6.50008 10.7493C6.16675 10.416 6.16675 9.91602 6.50008 9.58268C6.83342 9.24935 7.33341 9.24935 7.66675 9.58268L8.91675 10.8327L12.3334 7.41602C12.6667 7.08268 13.1667 7.08268 13.5001 7.41602C13.8334 7.74935 13.8334 8.24935 13.5001 8.58268Z" fill="#A11421"/>
</svg>
