<svg width="24" height="24" viewBox="0 0 24 24" fill="none" xmlns="http://www.w3.org/2000/svg">
<path d="M19.3914 1L22.0001 3.25L19.3914 5.5" stroke="#696F7E" stroke-width="1.60543" stroke-linecap="round" stroke-linejoin="round"/>
<path d="M21.1304 3H6.34782C5.19577 3.00297 4.09188 3.39901 3.27725 4.10163C2.46262 4.80425 2.00344 5.75635 2 6.75V7.5" stroke="#696F7E" stroke-width="1.60543" stroke-linecap="round" stroke-linejoin="round"/>
<path d="M4.6087 22.9551L2 20.7051L4.6087 18.4551" stroke="#696F7E" stroke-width="1.60543" stroke-linecap="round" stroke-linejoin="round"/>
<path d="M2.57959 20.7031H17.6521C18.8041 20.7002 19.908 20.3041 20.7226 19.6015C21.5373 18.8989 21.9965 17.9468 21.9999 16.9531V16.2031" stroke="#696F7E" stroke-width="1.60543" stroke-linecap="round" stroke-linejoin="round"/>
<path d="M18 12C18 8.6875 15.3125 6 12 6C8.6875 6 6 8.6875 6 12C6 15.3125 8.6875 18 12 18C15.3125 18 18 15.3125 18 12Z" stroke="#696F7E" stroke-width="1.60543" stroke-miterlimit="10"/>
<path d="M12.217 16C12.021 16 11.8621 15.8411 11.8621 15.6451V15.0723H10.2985C10.062 15.0723 9.87036 14.8806 9.87036 14.6442V9.39714C9.87036 9.1607 10.062 8.96902 10.2985 8.96902H11.8621V8.35493C11.8621 8.15891 12.021 8 12.217 8C12.413 8 12.5719 8.15891 12.5719 8.35493V8.9722C13.2634 9.00185 13.7654 9.17024 14.0778 9.47736C14.3925 9.78449 14.5499 10.135 14.5499 10.529C14.5499 11.1093 14.2409 11.5414 13.6229 11.8253C14.4546 12.0519 14.8704 12.5443 14.8704 13.3026C14.8704 14.4422 14.1042 15.032 12.5719 15.0723V15.6451C12.5719 15.8411 12.413 16 12.217 16ZM11.8621 11.533V9.69023H11.0132C10.8654 9.69023 10.7456 9.81003 10.7456 9.9578V11.2654C10.7456 11.4132 10.8654 11.533 11.0132 11.533H11.8621ZM12.5719 9.70294V11.5266C13.314 11.4864 13.685 11.1867 13.685 10.6275C13.685 10.3267 13.5988 10.1033 13.4265 9.95711C13.2542 9.81096 12.9694 9.72624 12.5719 9.70294ZM11.8621 14.3511V12.2542H11.0132C10.8654 12.2542 10.7456 12.374 10.7456 12.5217V14.0835C10.7456 14.2313 10.8654 14.3511 11.0132 14.3511H11.8621ZM12.5719 12.2573V14.3511C13.4977 14.332 13.9606 13.9825 13.9606 13.3026C13.9606 12.6333 13.4977 12.2849 12.5719 12.2573Z" fill="#696F7E"/>
</svg>
