<svg width="8" height="17" viewBox="0 0 8 17" fill="none" xmlns="http://www.w3.org/2000/svg">
<path d="M4.47761 4.75627L7.8209 1.79523C8.0597 1.58743 8.0597 1.27575 7.8209 1.06795C7.58209 0.86016 7.22388 0.860161 6.98507 1.06795L4 3.61341L1.01493 1.06795C0.776119 0.860161 0.41791 0.860161 0.179104 1.06795C0.0597012 1.17185 -1.58951e-07 1.27575 -1.52138e-07 1.43159C-1.45326e-07 1.58743 0.0597012 1.69133 0.179104 1.79523L3.52239 4.75627C3.8209 4.96406 4.1791 4.96406 4.47761 4.75627C4.41791 4.75627 4.41791 4.75627 4.47761 4.75627Z" fill="#E38000"/>
<path d="M4.47761 10.7563L7.8209 7.79523C8.0597 7.58743 8.0597 7.27575 7.8209 7.06795C7.58209 6.86016 7.22388 6.86016 6.98507 7.06795L4 9.61341L1.01493 7.06795C0.776119 6.86016 0.41791 6.86016 0.179104 7.06795C0.0597012 7.17185 -1.58951e-07 7.27575 -1.52138e-07 7.43159C-1.45326e-07 7.58743 0.0597012 7.69133 0.179104 7.79523L3.52239 10.7563C3.8209 10.9641 4.1791 10.9641 4.47761 10.7563C4.41791 10.7563 4.41791 10.7563 4.47761 10.7563Z" fill="#EB382A"/>
<path d="M4.47761 16.7563L7.8209 13.7952C8.0597 13.5874 8.0597 13.2757 7.8209 13.068C7.58209 12.8602 7.22388 12.8602 6.98507 13.068L4 15.6134L1.01493 13.068C0.776119 12.8602 0.41791 12.8602 0.179104 13.068C0.0597012 13.1718 -1.58951e-07 13.2757 -1.52138e-07 13.4316C-1.45326e-07 13.5874 0.0597012 13.6913 0.179104 13.7952L3.52239 16.7563C3.8209 16.9641 4.1791 16.9641 4.47761 16.7563C4.41791 16.7563 4.41791 16.7563 4.47761 16.7563Z" fill="#84034C"/>
</svg>
