<svg width="352" height="586" viewBox="0 0 352 586" fill="none" xmlns="http://www.w3.org/2000/svg">
<g filter="url(#filter0_d_1655_8216)">
<rect x="16" y="10.9121" width="320" height="553" rx="16" fill="white"/>
</g>
<mask id="mask0_1655_8216" style="mask-type:alpha" maskUnits="userSpaceOnUse" x="16" y="10" width="320" height="554">
<rect x="16" y="10.9121" width="320" height="553" rx="16" fill="white"/>
</mask>
<g mask="url(#mask0_1655_8216)">
<path d="M-42.3007 231.1L-20.6538 251.818C-15.3506 256.893 -15.3349 265.143 -20.6253 270.207C-25.9157 275.27 -34.5332 275.258 -39.8392 270.179L-61.4862 249.462L-71.0789 258.643L-49.432 279.36C-38.8055 289.53 -21.6048 289.555 -11.007 279.412C-0.411985 269.272 -0.437453 252.81 -11.0639 242.639L-32.7108 221.922L-42.3007 231.1Z" fill="url(#paint0_linear_1655_8216)" fill-opacity="0.03"/>
<path d="M25.1749 226.373C19.8396 231.479 11.1804 231.507 5.87433 226.429L-15.7726 205.711L-25.452 214.975L-3.80505 235.692C6.82137 245.862 24.0997 245.813 34.7904 235.581L44.4698 226.317L34.8486 217.109L25.1721 226.37L25.1749 226.373Z" fill="url(#paint1_linear_1655_8216)" fill-opacity="0.03"/>
<path d="M30.0233 161.881C19.4291 172.021 19.4552 188.482 30.0816 198.652L51.7286 219.37L61.3206 210.19C56.0174 205.114 56.0015 196.864 61.2914 191.802C66.5814 186.739 75.1986 186.751 80.5046 191.829L90.0967 182.649L68.4497 161.932C57.8204 151.764 40.6175 151.742 30.0233 161.881ZM51.6703 182.599C48.174 185.945 45.8451 189.978 44.6599 194.25L39.6737 189.478C34.3705 184.402 34.3545 176.152 39.6445 171.09C44.9345 166.027 53.5516 166.039 58.8577 171.117L63.8439 175.89C59.3832 177.021 55.1665 179.253 51.6703 182.599Z" fill="url(#paint2_linear_1655_8216)" fill-opacity="0.03"/>
<path d="M-87.9298 274.77C-82.6237 279.848 -82.6106 288.095 -87.9006 293.158C-93.1877 298.218 -101.808 298.209 -107.114 293.13L-116.706 302.311L-75.8194 341.441L-66.2273 332.261L-90.4531 309.076C-85.9923 307.944 -81.7785 305.71 -78.2822 302.364C-74.786 299.017 -72.4542 294.982 -71.269 290.715L-47.0433 313.901L-37.4513 304.721L-78.3377 265.59L-87.9298 274.77Z" fill="url(#paint3_linear_1655_8216)" fill-opacity="0.03"/>
<path d="M155.613 41.6841L177.26 62.4016C182.564 67.4772 182.579 75.7273 177.289 80.7905C171.998 85.8538 163.381 85.8416 158.075 80.7633L136.428 60.0458L126.835 69.2267L148.482 89.9442C159.109 100.114 176.309 100.139 186.907 89.9959C197.502 79.8558 197.477 63.3936 186.85 53.2235L165.203 32.506L155.613 41.6841Z" fill="url(#paint4_linear_1655_8216)" fill-opacity="0.03"/>
<path d="M223.089 36.9568C217.754 42.063 209.094 42.0908 203.788 37.0125L182.141 16.295L172.462 25.5588L194.109 46.2763C204.735 56.4465 222.014 56.3966 232.704 46.1649L242.384 36.9011L232.763 27.693L223.086 36.9541L223.089 36.9568Z" fill="url(#paint5_linear_1655_8216)" fill-opacity="0.03"/>
<path d="M227.937 -27.5346C217.343 -17.3953 217.369 -0.933712 227.996 9.23645L249.643 29.954L259.235 20.7738C253.931 15.6983 253.916 7.44837 259.206 2.38553C264.496 -2.67733 273.113 -2.66482 278.419 2.41343L288.011 -6.76675L266.364 -27.4843C255.735 -37.6517 238.532 -37.6739 227.937 -27.5346ZM249.584 -6.81709C246.088 -3.47091 243.759 0.561903 242.574 4.83384L237.588 0.0617145C232.285 -5.0138 232.269 -13.2637 237.559 -18.3265C242.849 -23.3894 251.466 -23.3768 256.772 -18.2986L261.758 -13.5265C257.297 -12.3949 253.081 -10.1633 249.584 -6.81709Z" fill="url(#paint6_linear_1655_8216)" fill-opacity="0.03"/>
<path d="M109.984 85.354C115.29 90.4323 115.303 98.6794 110.014 103.742C104.726 108.802 96.1064 108.793 90.8003 103.714L81.2083 112.895L122.095 152.025L131.687 142.845L107.461 119.66C111.922 118.528 116.136 116.294 119.632 112.948C123.128 109.601 125.46 105.566 126.645 101.299L150.871 124.485L160.463 115.305L119.576 76.1738L109.984 85.354Z" fill="url(#paint7_linear_1655_8216)" fill-opacity="0.03"/>
<path d="M98.7276 366.075L120.375 386.792C125.678 391.868 125.693 400.118 120.403 405.181C115.113 410.244 106.495 410.232 101.189 405.154L79.5422 384.436L69.9494 393.617L91.5964 414.335C102.223 424.505 119.424 424.529 130.021 414.387C140.616 404.246 140.591 387.784 129.964 377.614L108.318 356.897L98.7276 366.075Z" fill="url(#paint8_linear_1655_8216)" fill-opacity="0.03"/>
<path d="M166.203 361.347C160.868 366.454 152.209 366.481 146.903 361.403L125.256 340.686L115.576 349.949L137.223 370.667C147.85 380.837 165.128 380.787 175.819 370.556L185.498 361.292L175.877 352.084L166.2 361.345L166.203 361.347Z" fill="url(#paint9_linear_1655_8216)" fill-opacity="0.03"/>
<path d="M171.052 296.856C160.457 306.995 160.484 323.457 171.11 333.627L192.757 354.345L202.349 345.164C197.046 340.089 197.03 331.839 202.32 326.776C207.61 321.713 216.227 321.726 221.533 326.804L231.125 317.624L209.478 296.906C198.849 286.739 181.646 286.717 171.052 296.856ZM192.699 317.574C189.202 320.92 186.873 324.953 185.688 329.224L180.702 324.452C175.399 319.377 175.383 311.127 180.673 306.064C185.963 301.001 194.58 301.014 199.886 306.092L204.872 310.864C200.412 311.996 196.195 314.227 192.699 317.574Z" fill="url(#paint10_linear_1655_8216)" fill-opacity="0.03"/>
<path d="M53.0986 409.745C58.4046 414.823 58.4178 423.07 53.1278 428.133C47.8406 433.193 39.2206 433.183 33.9146 428.105L24.3225 437.285L65.209 476.416L74.801 467.236L50.5753 444.05C55.036 442.919 59.2498 440.684 62.7461 437.338C66.2424 433.992 68.5742 429.956 69.7593 425.69L93.985 448.876L103.577 439.695L62.6906 400.564L53.0986 409.745Z" fill="url(#paint11_linear_1655_8216)" fill-opacity="0.03"/>
<path d="M296.642 176.657L318.289 197.374C323.592 202.45 323.607 210.7 318.317 215.763C313.027 220.826 304.409 220.814 299.103 215.736L277.456 195.018L267.863 204.199L289.51 224.917C300.137 235.087 317.338 235.111 327.935 224.969C338.53 214.828 338.505 198.366 327.879 188.196L306.232 167.479L296.642 176.657Z" fill="url(#paint12_linear_1655_8216)" fill-opacity="0.03"/>
<path d="M364.117 171.929C358.782 177.036 350.123 177.063 344.817 171.985L323.17 151.268L313.49 160.531L335.137 181.249C345.764 191.419 363.042 191.369 373.733 181.138L383.412 171.874L373.791 162.666L364.114 171.927L364.117 171.929Z" fill="url(#paint13_linear_1655_8216)" fill-opacity="0.03"/>
<path d="M368.966 107.438C358.371 117.577 358.398 134.039 369.024 144.209L390.671 164.927L400.263 155.746C394.96 150.671 394.944 142.421 400.234 137.358C405.524 132.295 414.141 132.308 419.447 137.386L429.039 128.206L407.392 107.488C396.763 97.321 379.56 97.2987 368.966 107.438ZM390.613 128.156C387.116 131.502 384.787 135.535 383.602 139.806L378.616 135.034C373.313 129.959 373.297 121.709 378.587 116.646C383.877 111.583 392.494 111.596 397.8 116.674L402.786 121.446C398.326 122.578 394.109 124.809 390.613 128.156Z" fill="url(#paint14_linear_1655_8216)" fill-opacity="0.03"/>
<path d="M251.013 220.327C256.319 225.405 256.332 233.652 251.042 238.715C245.755 243.775 237.135 243.765 231.829 238.687L222.237 247.867L263.123 286.998L272.715 277.818L248.489 254.632C252.95 253.501 257.164 251.266 260.66 247.92C264.156 244.574 266.488 240.539 267.673 236.272L291.899 259.458L301.491 250.277L260.605 211.146L251.013 220.327Z" fill="url(#paint15_linear_1655_8216)" fill-opacity="0.03"/>
<path d="M137.549 193.946L159.196 214.663C164.499 219.739 164.515 227.989 159.224 233.052C153.934 238.115 145.316 238.103 140.01 233.025L118.363 212.308L108.771 221.488L130.418 242.206C141.044 252.376 158.245 252.4 168.843 242.258C179.438 232.118 179.412 215.655 168.786 205.485L147.139 184.768L137.549 193.946Z" fill="url(#paint16_linear_1655_8216)" fill-opacity="0.03"/>
<path d="M205.025 189.219C199.689 194.325 191.03 194.353 185.724 189.274L164.077 168.557L154.398 177.821L176.045 198.538C186.671 208.708 203.949 208.658 214.64 198.427L224.319 189.163L214.698 179.955L205.022 189.216L205.025 189.219Z" fill="url(#paint17_linear_1655_8216)" fill-opacity="0.03"/>
<path d="M209.873 124.727C199.279 134.866 199.305 151.328 209.931 161.498L231.578 182.216L241.17 173.035C235.867 167.96 235.851 159.71 241.141 154.647C246.431 149.584 255.048 149.597 260.354 154.675L269.946 145.495L248.299 124.777C237.67 114.61 220.467 114.588 209.873 124.727ZM231.52 145.445C228.024 148.791 225.695 152.824 224.51 157.096L219.523 152.323C214.22 147.248 214.204 138.998 219.494 133.935C224.784 128.872 233.401 128.885 238.707 133.963L243.694 138.735C239.233 139.867 235.016 142.098 231.52 145.445Z" fill="url(#paint18_linear_1655_8216)" fill-opacity="0.03"/>
<path d="M91.9198 237.616C97.2259 242.694 97.239 250.941 91.949 256.004C86.6619 261.064 78.0419 261.054 72.7358 255.976L63.1438 265.156L104.03 304.287L113.622 295.107L89.3966 271.921C93.8573 270.79 98.0711 268.555 101.567 265.209C105.064 261.863 107.395 257.828 108.581 253.561L132.806 276.747L142.398 267.566L101.512 228.436L91.9198 237.616Z" fill="url(#paint19_linear_1655_8216)" fill-opacity="0.03"/>
<path d="M-61.8557 384.79L-40.2087 405.507C-34.9055 410.583 -34.8899 418.833 -40.1802 423.896C-45.4706 428.959 -54.0881 428.947 -59.3941 423.869L-81.0411 403.151L-90.6338 412.332L-68.9869 433.05C-58.3605 443.22 -41.1597 443.244 -30.5619 433.101C-19.9669 422.961 -19.9924 406.499 -30.6188 396.329L-52.2658 375.611L-61.8557 384.79Z" fill="url(#paint20_linear_1655_8216)" fill-opacity="0.03"/>
<path d="M5.61999 380.062C0.284682 385.169 -8.37453 385.196 -13.6806 380.118L-35.3276 359.401L-45.0069 368.664L-23.36 389.382C-12.7336 399.552 4.54474 399.502 15.2355 389.27L24.9148 380.007L15.2937 370.799L5.61713 380.06L5.61999 380.062Z" fill="url(#paint21_linear_1655_8216)" fill-opacity="0.03"/>
<path d="M10.4684 315.571C-0.125823 325.71 -0.099715 342.172 10.5267 352.342L32.1737 373.059L41.7657 363.879C36.4625 358.804 36.4465 350.554 41.7365 345.491C47.0265 340.428 55.6437 340.441 60.9497 345.519L70.5417 336.339L48.8948 315.621C38.2655 305.454 21.0626 305.432 10.4684 315.571ZM32.1153 336.288C28.619 339.635 26.2901 343.667 25.105 347.939L20.1188 343.167C14.8156 338.092 14.7996 329.842 20.0896 324.779C25.3795 319.716 33.9967 319.729 39.3028 324.807L44.289 329.579C39.8282 330.711 35.6116 332.942 32.1153 336.288Z" fill="url(#paint22_linear_1655_8216)" fill-opacity="0.03"/>
<path d="M-107.485 428.459C-102.179 433.538 -102.166 441.785 -107.456 446.848C-112.743 451.908 -121.363 451.898 -126.669 446.82L-136.261 456L-95.3743 495.131L-85.7823 485.951L-110.008 462.765C-105.547 461.634 -101.333 459.399 -97.8372 456.053C-94.3409 452.707 -92.0091 448.671 -90.824 444.405L-66.5982 467.59L-57.0062 458.41L-97.8927 419.279L-107.485 428.459Z" fill="url(#paint23_linear_1655_8216)" fill-opacity="0.03"/>
<path d="M336.953 3.10405L358.6 23.8216C363.904 28.8971 363.919 37.1472 358.629 42.2105C353.339 47.2737 344.721 47.2615 339.415 42.1832L317.768 21.4657L308.175 30.6466L329.822 51.3641C340.449 61.5343 357.649 61.5586 368.247 51.4158C378.842 41.2757 378.817 24.8136 368.19 14.6434L346.543 -6.07411L336.953 3.10405Z" fill="url(#paint24_linear_1655_8216)" fill-opacity="0.03"/>
<path d="M404.429 -1.62327C399.094 3.48296 390.435 3.51071 385.129 -1.56753L363.482 -22.285L353.802 -13.0213L375.449 7.69624C386.076 17.8664 403.354 17.8165 414.045 7.58481L423.724 -1.67897L414.103 -10.8871L404.426 -1.626L404.429 -1.62327Z" fill="url(#paint25_linear_1655_8216)" fill-opacity="0.03"/>
<path d="M409.277 -66.1147C398.683 -55.9754 398.709 -39.5138 409.336 -29.3436L430.983 -8.62613L440.575 -17.8063C435.272 -22.8818 435.256 -31.1317 440.546 -36.1946C445.836 -41.2574 454.453 -41.2449 459.759 -36.1667L469.351 -45.3468L447.704 -66.0643C437.075 -76.2318 419.872 -76.254 409.277 -66.1147ZM430.924 -45.3972C427.428 -42.051 425.099 -38.0182 423.914 -33.7463L418.928 -38.5184C413.625 -43.5939 413.609 -51.8437 418.899 -56.9066C424.189 -61.9694 432.806 -61.9569 438.112 -56.8787L443.098 -52.1066C438.637 -50.975 434.421 -48.7433 430.924 -45.3972Z" fill="url(#paint26_linear_1655_8216)" fill-opacity="0.03"/>
<path d="M291.324 46.7739C296.63 51.8522 296.644 60.0993 291.354 65.1622C286.066 70.2223 277.446 70.2125 272.14 65.1343L262.548 74.3145L303.435 113.445L313.027 104.265L288.801 81.0796C293.262 79.9481 297.476 77.7137 300.972 74.3675C304.468 71.0213 306.8 66.9858 307.985 62.7193L332.211 85.9049L341.803 76.7247L300.916 37.5938L291.324 46.7739Z" fill="url(#paint27_linear_1655_8216)" fill-opacity="0.03"/>
<path d="M-3.69014 58.772L17.9568 79.4895C23.26 84.565 23.2757 92.8152 17.9853 97.8784C12.6949 102.942 4.07746 102.929 -1.22861 97.8512L-22.8756 77.1337L-32.4683 86.3146L-10.8213 107.032C-0.194927 117.202 17.0058 117.227 27.6036 107.084C38.1986 96.9437 38.1732 80.4815 27.5467 70.3114L5.89978 49.5939L-3.69014 58.772Z" fill="url(#paint28_linear_1655_8216)" fill-opacity="0.03"/>
<path d="M63.7855 54.0447C58.4502 59.1509 49.791 59.1787 44.4849 54.1004L22.838 33.3829L13.1586 42.6467L34.8056 63.3642C45.432 73.5344 62.7103 73.4845 73.401 63.2528L83.0804 53.989L73.4592 44.7809L63.7827 54.042L63.7855 54.0447Z" fill="url(#paint29_linear_1655_8216)" fill-opacity="0.03"/>
<path d="M68.6339 -10.4467C58.0397 -0.307373 58.0658 16.1542 68.6922 26.3243L90.3392 47.0418L99.9312 37.8617C94.628 32.7862 94.6121 24.5363 99.9021 19.4734C105.192 14.4106 113.809 14.4231 119.115 19.5013L128.707 10.3211L107.06 -10.3964C96.4311 -20.5638 79.2281 -20.586 68.6339 -10.4467ZM90.2809 10.2708C86.7846 13.617 84.4557 17.6498 83.2705 21.9217L78.2843 17.1496C72.9811 12.0741 72.9651 3.82423 78.2551 -1.23862C83.5451 -6.30147 92.1622 -6.28895 97.4683 -1.2107L102.455 3.56143C97.9938 4.69295 93.7772 6.92464 90.2809 10.2708Z" fill="url(#paint30_linear_1655_8216)" fill-opacity="0.03"/>
<path d="M-49.3192 102.442C-44.0131 107.52 -44 115.767 -49.29 120.83C-54.5771 125.89 -63.1971 125.88 -68.5032 120.802L-78.0952 129.982L-37.2088 169.113L-27.6167 159.933L-51.8425 136.748C-47.3817 135.616 -43.1679 133.382 -39.6716 130.035C-36.1753 126.689 -33.8436 122.654 -32.6584 118.387L-8.4327 141.573L1.15933 132.393L-39.7271 93.2617L-49.3192 102.442Z" fill="url(#paint31_linear_1655_8216)" fill-opacity="0.03"/>
<path d="M239.757 501.047L261.404 521.765C266.707 526.84 266.722 535.091 261.432 540.154C256.142 545.217 247.524 545.205 242.218 540.127L220.571 519.409L210.978 528.59L232.625 549.307C243.252 559.478 260.453 559.502 271.05 549.359C281.645 539.219 281.62 522.757 270.994 512.587L249.347 491.869L239.757 501.047Z" fill="url(#paint32_linear_1655_8216)" fill-opacity="0.03"/>
<path d="M307.232 496.32C301.897 501.426 293.238 501.454 287.932 496.376L266.285 475.658L256.605 484.922L278.252 505.64C288.879 515.81 306.157 515.76 316.848 505.528L326.527 496.264L316.906 487.056L307.229 496.317L307.232 496.32Z" fill="url(#paint33_linear_1655_8216)" fill-opacity="0.03"/>
<path d="M312.081 431.829C301.486 441.968 301.513 458.43 312.139 468.6L333.786 489.317L343.378 480.137C338.075 475.062 338.059 466.812 343.349 461.749C348.639 456.686 357.256 456.698 362.562 461.777L372.154 452.597L350.507 431.879C339.878 421.712 322.675 421.689 312.081 431.829ZM333.728 452.546C330.231 455.892 327.902 459.925 326.717 464.197L321.731 459.425C316.428 454.349 316.412 446.1 321.702 441.037C326.992 435.974 335.609 435.986 340.915 441.065L345.901 445.837C341.441 446.968 337.224 449.2 333.728 452.546Z" fill="url(#paint34_linear_1655_8216)" fill-opacity="0.03"/>
<path d="M194.128 544.717C199.434 549.796 199.447 558.043 194.157 563.106C188.87 568.166 180.25 568.156 174.944 563.078L165.352 572.258L206.238 611.389L215.83 602.209L191.604 579.023C196.065 577.891 200.279 575.657 203.775 572.311C207.271 568.965 209.603 564.929 210.788 560.663L235.014 583.848L244.606 574.668L203.72 535.537L194.128 544.717Z" fill="url(#paint35_linear_1655_8216)" fill-opacity="0.03"/>
<path d="M278.577 328.92L300.224 349.638C305.527 354.713 305.543 362.964 300.253 368.027C294.962 373.09 286.345 373.078 281.039 368L259.392 347.282L249.799 356.463L271.446 377.181C282.072 387.351 299.273 387.375 309.871 377.232C320.466 367.092 320.44 350.63 309.814 340.46L288.167 319.742L278.577 328.92Z" fill="url(#paint36_linear_1655_8216)" fill-opacity="0.03"/>
<path d="M346.053 324.193C340.718 329.299 332.058 329.327 326.752 324.249L305.105 303.531L295.426 312.795L317.073 333.513C327.699 343.683 344.978 343.633 355.668 333.401L365.348 324.137L355.727 314.929L346.05 324.19L346.053 324.193Z" fill="url(#paint37_linear_1655_8216)" fill-opacity="0.03"/>
<path d="M350.901 259.702C340.307 269.841 340.333 286.303 350.96 296.473L372.607 317.19L382.199 308.01C376.895 302.935 376.879 294.685 382.169 289.622C387.459 284.559 396.077 284.572 401.383 289.65L410.975 280.47L389.328 259.752C378.698 249.585 361.495 249.562 350.901 259.702ZM372.548 280.419C369.052 283.765 366.723 287.798 365.538 292.07L360.552 287.298C355.248 282.223 355.232 273.973 360.522 268.91C365.812 263.847 374.43 263.859 379.736 268.938L384.722 273.71C380.261 274.841 376.044 277.073 372.548 280.419Z" fill="url(#paint38_linear_1655_8216)" fill-opacity="0.03"/>
<path d="M232.948 372.59C238.254 377.669 238.267 385.916 232.977 390.979C227.69 396.039 219.07 396.029 213.764 390.951L204.172 400.131L245.059 439.262L254.651 430.082L230.425 406.896C234.886 405.765 239.099 403.53 242.596 400.184C246.092 396.838 248.424 392.802 249.609 388.536L273.835 411.721L283.427 402.541L242.54 363.41L232.948 372.59Z" fill="url(#paint39_linear_1655_8216)" fill-opacity="0.03"/>
<path d="M79.1736 519.762L100.821 540.48C106.124 545.555 106.139 553.805 100.849 558.869C95.5587 563.932 86.9412 563.92 81.6352 558.841L59.9882 538.124L50.3955 547.305L72.0424 568.022C82.6688 578.192 99.8696 578.217 110.467 568.074C121.062 557.934 121.037 541.472 110.41 531.302L88.7635 510.584L79.1736 519.762Z" fill="url(#paint40_linear_1655_8216)" fill-opacity="0.03"/>
<path d="M146.649 515.035C141.314 520.141 132.655 520.169 127.349 515.091L105.702 494.373L96.0224 503.637L117.669 524.354C128.296 534.525 145.574 534.475 156.265 524.243L165.944 514.979L156.323 505.771L146.646 515.032L146.649 515.035Z" fill="url(#paint41_linear_1655_8216)" fill-opacity="0.03"/>
<path d="M151.498 450.544C140.903 460.683 140.93 477.144 151.556 487.315L173.203 508.032L182.795 498.852C177.492 493.776 177.476 485.526 182.766 480.464C188.056 475.401 196.673 475.413 201.979 480.492L211.571 471.311L189.924 450.594C179.295 440.426 162.092 440.404 151.498 450.544ZM173.145 471.261C169.648 474.607 167.319 478.64 166.134 482.912L161.148 478.14C155.845 473.064 155.829 464.814 161.119 459.752C166.409 454.689 175.026 454.701 180.332 459.78L185.318 464.552C180.858 465.683 176.641 467.915 173.145 471.261Z" fill="url(#paint42_linear_1655_8216)" fill-opacity="0.03"/>
<path d="M33.5446 563.432C38.8507 568.51 38.8638 576.758 33.5738 581.82C28.2867 586.88 19.6667 586.871 14.3606 581.792L4.76855 590.973L45.655 630.104L55.247 620.923L31.0213 597.738C35.4821 596.606 39.6958 594.372 43.1921 591.026C46.6884 587.68 49.0202 583.644 50.2053 579.378L74.4311 602.563L84.0231 593.383L43.1366 554.252L33.5446 563.432Z" fill="url(#paint43_linear_1655_8216)" fill-opacity="0.03"/>
</g>
<defs>
<filter id="filter0_d_1655_8216" x="0" y="0.912109" width="352" height="585" filterUnits="userSpaceOnUse" color-interpolation-filters="sRGB">
<feFlood flood-opacity="0" result="BackgroundImageFix"/>
<feColorMatrix in="SourceAlpha" type="matrix" values="0 0 0 0 0 0 0 0 0 0 0 0 0 0 0 0 0 0 127 0" result="hardAlpha"/>
<feOffset dy="6"/>
<feGaussianBlur stdDeviation="8"/>
<feComposite in2="hardAlpha" operator="out"/>
<feColorMatrix type="matrix" values="0 0 0 0 0.113725 0 0 0 0 0.113725 0 0 0 0 0.105882 0 0 0 0.15 0"/>
<feBlend mode="normal" in2="BackgroundImageFix" result="effect1_dropShadow_1655_8216"/>
<feBlend mode="normal" in="SourceGraphic" in2="effect1_dropShadow_1655_8216" result="shape"/>
</filter>
<linearGradient id="paint0_linear_1655_8216" x1="42.2177" y1="142.781" x2="-84.1024" y2="395.717" gradientUnits="userSpaceOnUse">
<stop stop-color="#F95F00"/>
<stop offset="0.524251" stop-color="#FE0A02"/>
<stop offset="1" stop-color="#990130"/>
</linearGradient>
<linearGradient id="paint1_linear_1655_8216" x1="42.2177" y1="142.781" x2="-84.1024" y2="395.717" gradientUnits="userSpaceOnUse">
<stop stop-color="#F95F00"/>
<stop offset="0.524251" stop-color="#FE0A02"/>
<stop offset="1" stop-color="#990130"/>
</linearGradient>
<linearGradient id="paint2_linear_1655_8216" x1="42.2177" y1="142.781" x2="-84.1024" y2="395.717" gradientUnits="userSpaceOnUse">
<stop stop-color="#F95F00"/>
<stop offset="0.524251" stop-color="#FE0A02"/>
<stop offset="1" stop-color="#990130"/>
</linearGradient>
<linearGradient id="paint3_linear_1655_8216" x1="42.2177" y1="142.781" x2="-84.1024" y2="395.717" gradientUnits="userSpaceOnUse">
<stop stop-color="#F95F00"/>
<stop offset="0.524251" stop-color="#FE0A02"/>
<stop offset="1" stop-color="#990130"/>
</linearGradient>
<linearGradient id="paint4_linear_1655_8216" x1="240.132" y1="-46.6353" x2="113.812" y2="206.301" gradientUnits="userSpaceOnUse">
<stop stop-color="#F95F00"/>
<stop offset="0.524251" stop-color="#FE0A02"/>
<stop offset="1" stop-color="#990130"/>
</linearGradient>
<linearGradient id="paint5_linear_1655_8216" x1="240.132" y1="-46.6353" x2="113.812" y2="206.301" gradientUnits="userSpaceOnUse">
<stop stop-color="#F95F00"/>
<stop offset="0.524251" stop-color="#FE0A02"/>
<stop offset="1" stop-color="#990130"/>
</linearGradient>
<linearGradient id="paint6_linear_1655_8216" x1="240.132" y1="-46.6353" x2="113.812" y2="206.301" gradientUnits="userSpaceOnUse">
<stop stop-color="#F95F00"/>
<stop offset="0.524251" stop-color="#FE0A02"/>
<stop offset="1" stop-color="#990130"/>
</linearGradient>
<linearGradient id="paint7_linear_1655_8216" x1="240.132" y1="-46.6353" x2="113.812" y2="206.301" gradientUnits="userSpaceOnUse">
<stop stop-color="#F95F00"/>
<stop offset="0.524251" stop-color="#FE0A02"/>
<stop offset="1" stop-color="#990130"/>
</linearGradient>
<linearGradient id="paint8_linear_1655_8216" x1="183.246" y1="277.755" x2="56.926" y2="530.692" gradientUnits="userSpaceOnUse">
<stop stop-color="#F95F00"/>
<stop offset="0.524251" stop-color="#FE0A02"/>
<stop offset="1" stop-color="#990130"/>
</linearGradient>
<linearGradient id="paint9_linear_1655_8216" x1="183.246" y1="277.755" x2="56.926" y2="530.692" gradientUnits="userSpaceOnUse">
<stop stop-color="#F95F00"/>
<stop offset="0.524251" stop-color="#FE0A02"/>
<stop offset="1" stop-color="#990130"/>
</linearGradient>
<linearGradient id="paint10_linear_1655_8216" x1="183.246" y1="277.755" x2="56.926" y2="530.692" gradientUnits="userSpaceOnUse">
<stop stop-color="#F95F00"/>
<stop offset="0.524251" stop-color="#FE0A02"/>
<stop offset="1" stop-color="#990130"/>
</linearGradient>
<linearGradient id="paint11_linear_1655_8216" x1="183.246" y1="277.755" x2="56.926" y2="530.692" gradientUnits="userSpaceOnUse">
<stop stop-color="#F95F00"/>
<stop offset="0.524251" stop-color="#FE0A02"/>
<stop offset="1" stop-color="#990130"/>
</linearGradient>
<linearGradient id="paint12_linear_1655_8216" x1="381.16" y1="88.3374" x2="254.84" y2="341.274" gradientUnits="userSpaceOnUse">
<stop stop-color="#F95F00"/>
<stop offset="0.524251" stop-color="#FE0A02"/>
<stop offset="1" stop-color="#990130"/>
</linearGradient>
<linearGradient id="paint13_linear_1655_8216" x1="381.16" y1="88.3374" x2="254.84" y2="341.274" gradientUnits="userSpaceOnUse">
<stop stop-color="#F95F00"/>
<stop offset="0.524251" stop-color="#FE0A02"/>
<stop offset="1" stop-color="#990130"/>
</linearGradient>
<linearGradient id="paint14_linear_1655_8216" x1="381.16" y1="88.3374" x2="254.84" y2="341.274" gradientUnits="userSpaceOnUse">
<stop stop-color="#F95F00"/>
<stop offset="0.524251" stop-color="#FE0A02"/>
<stop offset="1" stop-color="#990130"/>
</linearGradient>
<linearGradient id="paint15_linear_1655_8216" x1="381.16" y1="88.3374" x2="254.84" y2="341.274" gradientUnits="userSpaceOnUse">
<stop stop-color="#F95F00"/>
<stop offset="0.524251" stop-color="#FE0A02"/>
<stop offset="1" stop-color="#990130"/>
</linearGradient>
<linearGradient id="paint16_linear_1655_8216" x1="222.067" y1="105.626" x2="95.7472" y2="358.563" gradientUnits="userSpaceOnUse">
<stop stop-color="#F95F00"/>
<stop offset="0.524251" stop-color="#FE0A02"/>
<stop offset="1" stop-color="#990130"/>
</linearGradient>
<linearGradient id="paint17_linear_1655_8216" x1="222.067" y1="105.626" x2="95.7472" y2="358.563" gradientUnits="userSpaceOnUse">
<stop stop-color="#F95F00"/>
<stop offset="0.524251" stop-color="#FE0A02"/>
<stop offset="1" stop-color="#990130"/>
</linearGradient>
<linearGradient id="paint18_linear_1655_8216" x1="222.067" y1="105.626" x2="95.7472" y2="358.563" gradientUnits="userSpaceOnUse">
<stop stop-color="#F95F00"/>
<stop offset="0.524251" stop-color="#FE0A02"/>
<stop offset="1" stop-color="#990130"/>
</linearGradient>
<linearGradient id="paint19_linear_1655_8216" x1="222.067" y1="105.626" x2="95.7472" y2="358.563" gradientUnits="userSpaceOnUse">
<stop stop-color="#F95F00"/>
<stop offset="0.524251" stop-color="#FE0A02"/>
<stop offset="1" stop-color="#990130"/>
</linearGradient>
<linearGradient id="paint20_linear_1655_8216" x1="22.6628" y1="296.47" x2="-103.657" y2="549.407" gradientUnits="userSpaceOnUse">
<stop stop-color="#F95F00"/>
<stop offset="0.524251" stop-color="#FE0A02"/>
<stop offset="1" stop-color="#990130"/>
</linearGradient>
<linearGradient id="paint21_linear_1655_8216" x1="22.6628" y1="296.47" x2="-103.657" y2="549.407" gradientUnits="userSpaceOnUse">
<stop stop-color="#F95F00"/>
<stop offset="0.524251" stop-color="#FE0A02"/>
<stop offset="1" stop-color="#990130"/>
</linearGradient>
<linearGradient id="paint22_linear_1655_8216" x1="22.6628" y1="296.47" x2="-103.657" y2="549.407" gradientUnits="userSpaceOnUse">
<stop stop-color="#F95F00"/>
<stop offset="0.524251" stop-color="#FE0A02"/>
<stop offset="1" stop-color="#990130"/>
</linearGradient>
<linearGradient id="paint23_linear_1655_8216" x1="22.6628" y1="296.47" x2="-103.657" y2="549.407" gradientUnits="userSpaceOnUse">
<stop stop-color="#F95F00"/>
<stop offset="0.524251" stop-color="#FE0A02"/>
<stop offset="1" stop-color="#990130"/>
</linearGradient>
<linearGradient id="paint24_linear_1655_8216" x1="421.472" y1="-85.2154" x2="295.152" y2="167.721" gradientUnits="userSpaceOnUse">
<stop stop-color="#F95F00"/>
<stop offset="0.524251" stop-color="#FE0A02"/>
<stop offset="1" stop-color="#990130"/>
</linearGradient>
<linearGradient id="paint25_linear_1655_8216" x1="421.472" y1="-85.2154" x2="295.152" y2="167.721" gradientUnits="userSpaceOnUse">
<stop stop-color="#F95F00"/>
<stop offset="0.524251" stop-color="#FE0A02"/>
<stop offset="1" stop-color="#990130"/>
</linearGradient>
<linearGradient id="paint26_linear_1655_8216" x1="421.472" y1="-85.2154" x2="295.152" y2="167.721" gradientUnits="userSpaceOnUse">
<stop stop-color="#F95F00"/>
<stop offset="0.524251" stop-color="#FE0A02"/>
<stop offset="1" stop-color="#990130"/>
</linearGradient>
<linearGradient id="paint27_linear_1655_8216" x1="421.472" y1="-85.2154" x2="295.152" y2="167.721" gradientUnits="userSpaceOnUse">
<stop stop-color="#F95F00"/>
<stop offset="0.524251" stop-color="#FE0A02"/>
<stop offset="1" stop-color="#990130"/>
</linearGradient>
<linearGradient id="paint28_linear_1655_8216" x1="80.8283" y1="-29.5474" x2="-45.4918" y2="223.389" gradientUnits="userSpaceOnUse">
<stop stop-color="#F95F00"/>
<stop offset="0.524251" stop-color="#FE0A02"/>
<stop offset="1" stop-color="#990130"/>
</linearGradient>
<linearGradient id="paint29_linear_1655_8216" x1="80.8283" y1="-29.5474" x2="-45.4918" y2="223.389" gradientUnits="userSpaceOnUse">
<stop stop-color="#F95F00"/>
<stop offset="0.524251" stop-color="#FE0A02"/>
<stop offset="1" stop-color="#990130"/>
</linearGradient>
<linearGradient id="paint30_linear_1655_8216" x1="80.8283" y1="-29.5474" x2="-45.4918" y2="223.389" gradientUnits="userSpaceOnUse">
<stop stop-color="#F95F00"/>
<stop offset="0.524251" stop-color="#FE0A02"/>
<stop offset="1" stop-color="#990130"/>
</linearGradient>
<linearGradient id="paint31_linear_1655_8216" x1="80.8283" y1="-29.5474" x2="-45.4918" y2="223.389" gradientUnits="userSpaceOnUse">
<stop stop-color="#F95F00"/>
<stop offset="0.524251" stop-color="#FE0A02"/>
<stop offset="1" stop-color="#990130"/>
</linearGradient>
<linearGradient id="paint32_linear_1655_8216" x1="324.275" y1="412.728" x2="197.955" y2="665.664" gradientUnits="userSpaceOnUse">
<stop stop-color="#F95F00"/>
<stop offset="0.524251" stop-color="#FE0A02"/>
<stop offset="1" stop-color="#990130"/>
</linearGradient>
<linearGradient id="paint33_linear_1655_8216" x1="324.275" y1="412.728" x2="197.955" y2="665.664" gradientUnits="userSpaceOnUse">
<stop stop-color="#F95F00"/>
<stop offset="0.524251" stop-color="#FE0A02"/>
<stop offset="1" stop-color="#990130"/>
</linearGradient>
<linearGradient id="paint34_linear_1655_8216" x1="324.275" y1="412.728" x2="197.955" y2="665.664" gradientUnits="userSpaceOnUse">
<stop stop-color="#F95F00"/>
<stop offset="0.524251" stop-color="#FE0A02"/>
<stop offset="1" stop-color="#990130"/>
</linearGradient>
<linearGradient id="paint35_linear_1655_8216" x1="324.275" y1="412.728" x2="197.955" y2="665.664" gradientUnits="userSpaceOnUse">
<stop stop-color="#F95F00"/>
<stop offset="0.524251" stop-color="#FE0A02"/>
<stop offset="1" stop-color="#990130"/>
</linearGradient>
<linearGradient id="paint36_linear_1655_8216" x1="363.096" y1="240.601" x2="236.776" y2="493.538" gradientUnits="userSpaceOnUse">
<stop stop-color="#F95F00"/>
<stop offset="0.524251" stop-color="#FE0A02"/>
<stop offset="1" stop-color="#990130"/>
</linearGradient>
<linearGradient id="paint37_linear_1655_8216" x1="363.096" y1="240.601" x2="236.776" y2="493.538" gradientUnits="userSpaceOnUse">
<stop stop-color="#F95F00"/>
<stop offset="0.524251" stop-color="#FE0A02"/>
<stop offset="1" stop-color="#990130"/>
</linearGradient>
<linearGradient id="paint38_linear_1655_8216" x1="363.096" y1="240.601" x2="236.776" y2="493.538" gradientUnits="userSpaceOnUse">
<stop stop-color="#F95F00"/>
<stop offset="0.524251" stop-color="#FE0A02"/>
<stop offset="1" stop-color="#990130"/>
</linearGradient>
<linearGradient id="paint39_linear_1655_8216" x1="363.096" y1="240.601" x2="236.776" y2="493.538" gradientUnits="userSpaceOnUse">
<stop stop-color="#F95F00"/>
<stop offset="0.524251" stop-color="#FE0A02"/>
<stop offset="1" stop-color="#990130"/>
</linearGradient>
<linearGradient id="paint40_linear_1655_8216" x1="163.692" y1="431.443" x2="37.372" y2="684.379" gradientUnits="userSpaceOnUse">
<stop stop-color="#F95F00"/>
<stop offset="0.524251" stop-color="#FE0A02"/>
<stop offset="1" stop-color="#990130"/>
</linearGradient>
<linearGradient id="paint41_linear_1655_8216" x1="163.692" y1="431.443" x2="37.372" y2="684.379" gradientUnits="userSpaceOnUse">
<stop stop-color="#F95F00"/>
<stop offset="0.524251" stop-color="#FE0A02"/>
<stop offset="1" stop-color="#990130"/>
</linearGradient>
<linearGradient id="paint42_linear_1655_8216" x1="163.692" y1="431.443" x2="37.372" y2="684.379" gradientUnits="userSpaceOnUse">
<stop stop-color="#F95F00"/>
<stop offset="0.524251" stop-color="#FE0A02"/>
<stop offset="1" stop-color="#990130"/>
</linearGradient>
<linearGradient id="paint43_linear_1655_8216" x1="163.692" y1="431.443" x2="37.372" y2="684.379" gradientUnits="userSpaceOnUse">
<stop stop-color="#F95F00"/>
<stop offset="0.524251" stop-color="#FE0A02"/>
<stop offset="1" stop-color="#990130"/>
</linearGradient>
</defs>
</svg>
