<svg width="64" height="65" viewBox="0 0 64 65" fill="none" xmlns="http://www.w3.org/2000/svg">
<circle cx="32" cy="32.6406" r="32" fill="#FFEDEC"/>
<path d="M16.8182 19.0434L34.5771 45.3887L46.6794 37.2307L28.9205 10.8855L16.8182 19.0434Z" fill="#BEBEBE"/>
<path d="M20.723 16.4372L33.3372 45.5977L46.7327 39.8031L34.1185 10.6426L20.723 16.4372Z" fill="#CECECE"/>
<path d="M26.9229 13.8526L33.5632 44.9238L47.8365 41.8734L41.1962 10.8022L26.9229 13.8526Z" fill="white"/>
<path d="M39.0422 12.5334L31.8537 14.0692L31.851 14.0698L28.3113 14.8258L28.3836 15.165L29.6272 20.9839L29.6272 20.9844L29.6417 21.0508L30.5725 25.4095L30.6916 25.9673L30.6916 25.9677L31.6903 30.641L34.3149 42.9267L34.3154 42.929L34.3175 42.9371L34.3617 43.1457L34.3623 43.152L34.3638 43.157L34.4304 43.4697L36.991 42.9228L39.985 42.2832L46.4524 40.9013L45.0179 34.1872L44.9539 33.8883L44.7158 32.775L44.6628 32.5273L44.5931 32.2006L44.5292 31.9021L44.4076 31.3327L44.1107 29.9438L44.0269 29.5494L43.91 29.0028L43.808 28.5258L43.2122 25.7373L43.2122 25.7368L43.0911 25.1705L42.9959 24.7244L42.1713 20.8639L41.4304 17.3951L41.1595 16.1273L40.3328 12.2578L39.0422 12.5334ZM40.2219 14.2364L41.5628 20.5126L41.5628 20.514L41.723 21.2634L41.723 21.2638L42.5621 25.1899L42.6401 25.5543L43.2317 28.3239L43.4189 29.2003L43.5395 29.7631L43.6258 30.1656L43.9055 31.4759L44.021 32.018L44.0921 32.3474L44.1587 32.6602L44.2118 32.911L44.4493 34.0203L44.5169 34.3349L45.5423 39.1401C45.703 39.8908 45.2244 40.6293 44.4737 40.7899L40.4009 41.6598L36.1925 42.5593C35.4418 42.7199 34.7028 42.2414 34.5422 41.4906L32.1198 30.1503L30.9853 24.8408L30.662 23.3294L30.662 23.3281L30.2559 21.4267L30.2424 21.3648L30.2424 21.3643L29.2218 16.587C29.0612 15.8362 29.5397 15.0977 30.2904 14.9371L38.5716 13.1678C38.8045 13.1184 39.0364 13.1299 39.2499 13.1916C39.7251 13.3304 40.1107 13.7186 40.2219 14.2364Z" fill="#E1E1E1"/>
<path opacity="0.3" d="M40.9211 27.1771C41.3069 29.1607 40.012 31.0815 38.0284 31.4673C36.0448 31.8532 34.124 30.5583 33.7382 28.5747C33.3523 26.5911 34.6472 24.6703 36.6308 24.2845C38.614 23.8986 40.5348 25.1935 40.9211 27.1771Z" fill="#C9C9C9"/>
<path opacity="0.3" d="M40.2908 34.8223C40.4333 35.5546 39.9554 36.2637 39.2231 36.4062C38.4908 36.5487 37.7816 36.0707 37.6391 35.3384C37.4966 34.6061 37.9746 33.897 38.7069 33.7545C39.4392 33.612 40.1483 34.09 40.2908 34.8223Z" fill="#C9C9C9"/>
<path opacity="0.3" d="M37.2034 20.375C37.3459 21.1073 36.868 21.8164 36.1357 21.9589C35.4034 22.1014 34.6942 21.6234 34.5517 20.8911C34.4092 20.1589 34.8872 19.4497 35.6195 19.3072C36.3518 19.1643 37.0614 19.6427 37.2034 20.375Z" fill="#C9C9C9"/>
<rect x="16.9644" y="23.0508" width="34.1117" height="26.0854" rx="2.73374" fill="url(#paint0_linear_1559_7012)"/>
<rect x="42.9866" y="32.2012" width="9.14967" height="6.53548" rx="2.73374" fill="url(#paint1_linear_1559_7012)"/>
<circle cx="46.2543" cy="35.4685" r="1.96064" fill="url(#paint2_linear_1559_7012)"/>
<circle cx="20.6364" cy="45.0036" r="7.63636" fill="#FFC339"/>
<path d="M23.9093 45.5492H21.182V48.2765C21.182 48.4211 21.1245 48.5599 21.0222 48.6622C20.9199 48.7644 20.7812 48.8219 20.6365 48.8219C20.4919 48.8219 20.3531 48.7644 20.2508 48.6622C20.1486 48.5599 20.0911 48.4211 20.0911 48.2765V45.5492H17.3638C17.2192 45.5492 17.0804 45.4917 16.9781 45.3894C16.8758 45.2871 16.8184 45.1484 16.8184 45.0037C16.8184 44.8591 16.8758 44.7203 16.9781 44.618C17.0804 44.5157 17.2192 44.4583 17.3638 44.4583H20.0911V41.731C20.0911 41.5863 20.1486 41.4476 20.2508 41.3453C20.3531 41.243 20.4919 41.1855 20.6365 41.1855C20.7812 41.1855 20.9199 41.243 21.0222 41.3453C21.1245 41.4476 21.182 41.5863 21.182 41.731V44.4583H23.9093C24.0539 44.4583 24.1927 44.5157 24.295 44.618C24.3973 44.7203 24.4547 44.8591 24.4547 45.0037C24.4547 45.1484 24.3973 45.2871 24.295 45.3894C24.1927 45.4917 24.0539 45.5492 23.9093 45.5492Z" fill="white"/>
<defs>
<linearGradient id="paint0_linear_1559_7012" x1="22.0731" y1="26.4972" x2="58.0182" y2="50.6785" gradientUnits="userSpaceOnUse">
<stop stop-color="#FF4D4D"/>
<stop offset="0.843" stop-color="#DA2F47"/>
</linearGradient>
<linearGradient id="paint1_linear_1559_7012" x1="54.1806" y1="37.0191" x2="64.2512" y2="43.8727" gradientUnits="userSpaceOnUse">
<stop offset="0.0227121" stop-color="#FF4D4D"/>
<stop offset="1" stop-color="#DA2F47"/>
</linearGradient>
<linearGradient id="paint2_linear_1559_7012" x1="44.2937" y1="34.6842" x2="47.8229" y2="37.037" gradientUnits="userSpaceOnUse">
<stop stop-color="#FFE362"/>
<stop offset="1" stop-color="#FD9F2A"/>
</linearGradient>
</defs>
</svg>
